<svg width="218" height="550" viewBox="0 0 218 550" fill="none" xmlns="http://www.w3.org/2000/svg">
<line y1="-0.5" x2="95.6997" y2="-0.5" transform="matrix(0.999963 0.00860902 -0.0105348 0.999945 112.101 1)" stroke="black"/>
<line x1="21.8735" y1="21.097" x2="148.557" y2="21.097" stroke="black"/>
<path d="M21.8735 21.597H148.101L175.899 43.8418H51.9495L21.8735 21.597Z" fill="#B19EFF"/>
<path d="M21.8735 21.597L51.0381 43.8418V549.704H21.8735V21.597Z" fill="#B19EFF"/>
<rect x="51.0381" y="43.8418" width="135.797" height="505.863" fill="#B19EFF"/>
<rect x="157.671" y="199.555" width="57.4177" height="350.149" fill="#C4C4C4"/>
<rect x="28.2529" y="199.555" width="57.4177" height="350.149" fill="#B19EFF"/>
<line x1="80.291" y1="199.555" x2="80.291" y2="549.704" stroke="black" stroke-width="2"/>
<line x1="79.291" y1="200.555" x2="21.8733" y2="200.555" stroke="black" stroke-width="2"/>
<line x1="22.8735" y1="199.555" x2="22.8735" y2="549.704" stroke="black" stroke-width="2"/>
<rect x="157.671" y="199.555" width="57.4177" height="350.149" fill="#B19EFF"/>
<line x1="80.291" y1="199.555" x2="80.291" y2="549.704" stroke="black" stroke-width="2"/>
<line x1="79.291" y1="200.555" x2="21.8733" y2="200.555" stroke="black" stroke-width="2"/>
<line x1="22.8735" y1="199.555" x2="22.8735" y2="549.704" stroke="black" stroke-width="2"/>
<line x1="216.088" y1="199.555" x2="216.088" y2="549.704" stroke="black" stroke-width="2"/>
<line x1="215.088" y1="200.555" x2="157.671" y2="200.555" stroke="black" stroke-width="2"/>
<line x1="158.671" y1="199.555" x2="158.671" y2="549.704" stroke="black" stroke-width="2"/>
<line x1="52.0381" y1="43.8418" x2="52.0381" y2="199.555" stroke="black" stroke-width="2"/>
<line x1="187.835" y1="43.8418" x2="187.835" y2="199.555" stroke="black" stroke-width="2"/>
<line x1="51.0381" y1="42.8418" x2="186.836" y2="42.8418" stroke="black" stroke-width="2"/>
<path d="M112.009 1.41193H207.705L190.845 157.949H112.009V1.41193Z" fill="#F8B300"/>
<line y1="-1" x2="36.6797" y2="-1" transform="matrix(0.795114 0.60646 -0.682333 0.731041 21.8735 21.597)" stroke="black" stroke-width="2"/>
<line x1="22.3735" y1="21.597" x2="22.3735" y2="199.555" stroke="black"/>
<line y1="-0.5" x2="156.548" y2="-0.5" transform="matrix(0.0116436 0.999932 -0.999955 0.00951515 109.367 1)" stroke="black"/>
<line x1="111.19" y1="157.037" x2="187.747" y2="157.037" stroke="black"/>
<line y1="-0.5" x2="156.885" y2="-0.5" transform="matrix(-0.121995 0.992531 -0.994993 -0.0999394 206.886 1.82385)" stroke="black"/>
<rect x="163.139" y="122.11" width="13.6709" height="49.4328" fill="#FF795B"/>
<line y1="-0.5" x2="49.4412" y2="-0.5" transform="matrix(0.0184339 0.99983 -0.99948 0.032249 163.139 122.11)" stroke="black"/>
<line x1="164.051" y1="121.61" x2="176.81" y2="121.61" stroke="black"/>
<line x1="177.31" y1="122.11" x2="177.31" y2="171.543" stroke="black"/>
<line x1="164.051" y1="171.043" x2="176.81" y2="171.043" stroke="black"/>
<path d="M0 187.609H54.6835L79.2911 200.379H21.8734L0 187.609Z" fill="#B19EFF"/>
<path d="M136.709 187.197H191.393L216 199.967H158.582L136.709 187.197Z" fill="#B19EFF"/>
<path d="M0.455696 186.785L21.8734 200.379V549.704H0L0.455696 186.785Z" fill="#B19EFF"/>
<path d="M136.253 186.785L157.671 200.379V549.704H135.797L136.253 186.785Z" fill="#B19EFF"/>
<line y1="-0.5" x2="25.5385" y2="-0.5" transform="matrix(0.856489 0.516166 -0.593531 0.804811 0 187.197)" stroke="black"/>
<line y1="186.697" x2="55.5949" y2="186.697" stroke="black"/>
<line y1="-0.5" x2="27.5259" y2="-0.5" transform="matrix(0.860868 0.508828 -0.586063 0.810266 55.5947 186.373)" stroke="black"/>
<line y1="-0.5" x2="26.3233" y2="-0.5" transform="matrix(0.865576 0.500777 -0.577825 0.81616 136.709 187.197)" stroke="black"/>
<line y1="-0.5" x2="55.6009" y2="-0.5" transform="matrix(0.999883 0.0153199 -0.0187462 0.999824 136.709 186.373)" stroke="black"/>
<line y1="-0.5" x2="26.7252" y2="-0.5" transform="matrix(0.886662 0.462418 -0.537979 0.842958 192.304 187.197)" stroke="black"/>
<line y1="-0.5" x2="363.332" y2="-0.5" transform="matrix(-0.00250843 0.999997 -0.999998 -0.00204984 136.709 186.373)" stroke="black"/>
<line x1="33.7217" y1="225.039" x2="68.3546" y2="225.039" stroke="#F9D0D0" stroke-width="10"/>
<line x1="29.1646" y1="212.709" x2="72.9114" y2="212.709" stroke="#F9D0D0" stroke-width="5"/>
<line x1="33.7217" y1="251.403" x2="68.3546" y2="251.403" stroke="#F9D0D0" stroke-width="10"/>
<line x1="28.2529" y1="239.897" x2="71.9998" y2="239.897" stroke="#F9D0D0" stroke-width="5"/>
<line x1="32.8101" y1="279.415" x2="67.443" y2="279.415" stroke="#F9D0D0" stroke-width="10"/>
<line x1="28.2529" y1="267.085" x2="71.9998" y2="267.085" stroke="#F9D0D0" stroke-width="5"/>
<line x1="32.8101" y1="305.779" x2="67.443" y2="305.779" stroke="#F9D0D0" stroke-width="10"/>
<line x1="27.3418" y1="294.273" x2="71.0886" y2="294.273" stroke="#F9D0D0" stroke-width="5"/>
<line x1="34.6328" y1="333.791" x2="69.2657" y2="333.791" stroke="#F9D0D0" stroke-width="10"/>
<line x1="30.0762" y1="321.461" x2="73.823" y2="321.461" stroke="#F9D0D0" stroke-width="5"/>
<line x1="34.6328" y1="360.155" x2="69.2657" y2="360.155" stroke="#F9D0D0" stroke-width="10"/>
<line x1="29.1646" y1="348.649" x2="72.9114" y2="348.649" stroke="#F9D0D0" stroke-width="5"/>
<line x1="35.5444" y1="387.343" x2="70.1773" y2="387.343" stroke="#F9D0D0" stroke-width="10"/>
<line x1="30.9873" y1="375.013" x2="74.7341" y2="375.013" stroke="#F9D0D0" stroke-width="5"/>
<line x1="35.5444" y1="413.707" x2="70.1773" y2="413.707" stroke="#F9D0D0" stroke-width="10"/>
<line x1="30.0762" y1="402.202" x2="73.823" y2="402.202" stroke="#F9D0D0" stroke-width="5"/>
<line x1="36.4556" y1="440.896" x2="71.0885" y2="440.896" stroke="#F9D0D0" stroke-width="10"/>
<line x1="31.8989" y1="428.566" x2="75.6458" y2="428.566" stroke="#F9D0D0" stroke-width="5"/>
<line x1="36.4556" y1="467.26" x2="71.0885" y2="467.26" stroke="#F9D0D0" stroke-width="10"/>
<line x1="30.9873" y1="455.754" x2="74.7341" y2="455.754" stroke="#F9D0D0" stroke-width="5"/>
<line x1="37.3672" y1="494.448" x2="72.0001" y2="494.448" stroke="#F9D0D0" stroke-width="10"/>
<line x1="32.8101" y1="482.118" x2="76.5569" y2="482.118" stroke="#F9D0D0" stroke-width="5"/>
<line x1="37.3672" y1="520.812" x2="72.0001" y2="520.812" stroke="#F9D0D0" stroke-width="10"/>
<line x1="31.8989" y1="509.306" x2="75.6458" y2="509.306" stroke="#F9D0D0" stroke-width="5"/>
<line x1="33.7217" y1="535.67" x2="77.4685" y2="535.67" stroke="#F9D0D0" stroke-width="5"/>
<line x1="172.253" y1="225.039" x2="206.886" y2="225.039" stroke="#F9D0D0" stroke-width="10"/>
<line x1="167.696" y1="212.709" x2="211.443" y2="212.709" stroke="#F9D0D0" stroke-width="5"/>
<line x1="172.253" y1="251.403" x2="206.886" y2="251.403" stroke="#F9D0D0" stroke-width="10"/>
<line x1="166.785" y1="239.897" x2="210.531" y2="239.897" stroke="#F9D0D0" stroke-width="5"/>
<line x1="171.342" y1="279.415" x2="205.975" y2="279.415" stroke="#F9D0D0" stroke-width="10"/>
<line x1="166.785" y1="267.085" x2="210.531" y2="267.085" stroke="#F9D0D0" stroke-width="5"/>
<line x1="171.342" y1="305.779" x2="205.975" y2="305.779" stroke="#F9D0D0" stroke-width="10"/>
<line x1="165.874" y1="294.273" x2="209.62" y2="294.273" stroke="#F9D0D0" stroke-width="5"/>
<line x1="173.165" y1="333.791" x2="207.797" y2="333.791" stroke="#F9D0D0" stroke-width="10"/>
<line x1="168.607" y1="321.461" x2="212.354" y2="321.461" stroke="#F9D0D0" stroke-width="5"/>
<line x1="173.165" y1="360.155" x2="207.797" y2="360.155" stroke="#F9D0D0" stroke-width="10"/>
<line x1="167.696" y1="348.649" x2="211.443" y2="348.649" stroke="#F9D0D0" stroke-width="5"/>
<line x1="174.076" y1="387.343" x2="208.709" y2="387.343" stroke="#F9D0D0" stroke-width="10"/>
<line x1="166.785" y1="375.013" x2="210.531" y2="375.013" stroke="#F9D0D0" stroke-width="5"/>
<line x1="170.43" y1="413.707" x2="205.063" y2="413.707" stroke="#F9D0D0" stroke-width="10"/>
<line x1="163.139" y1="402.202" x2="206.886" y2="402.202" stroke="#F9D0D0" stroke-width="5"/>
<line x1="171.342" y1="440.896" x2="205.975" y2="440.896" stroke="#F9D0D0" stroke-width="10"/>
<line x1="165.874" y1="428.566" x2="209.62" y2="428.566" stroke="#F9D0D0" stroke-width="5"/>
<line x1="174.987" y1="467.26" x2="209.62" y2="467.26" stroke="#F9D0D0" stroke-width="10"/>
<line x1="165.874" y1="455.754" x2="209.62" y2="455.754" stroke="#F9D0D0" stroke-width="5"/>
<line x1="175.899" y1="494.448" x2="210.532" y2="494.448" stroke="#F9D0D0" stroke-width="10"/>
<line x1="171.342" y1="482.118" x2="215.089" y2="482.118" stroke="#F9D0D0" stroke-width="5"/>
<line x1="175.899" y1="520.812" x2="210.532" y2="520.812" stroke="#F9D0D0" stroke-width="10"/>
<line x1="170.43" y1="509.306" x2="214.177" y2="509.306" stroke="#F9D0D0" stroke-width="5"/>
<line x1="167.696" y1="535.67" x2="211.443" y2="535.67" stroke="#F9D0D0" stroke-width="5"/>
</svg>
