<svg width="203" height="268" viewBox="0 0 203 268" fill="none" xmlns="http://www.w3.org/2000/svg">
<rect x="1.6543" y="9.78104" width="153.485" height="255.611" fill="#A7C9D3"/>
<rect x="21.459" y="59.3382" width="14.8534" height="20.8662" fill="#FF795B"/>
<rect x="21.459" y="59.3382" width="14.8534" height="20.8662" fill="#FF795B"/>
<rect x="21.459" y="59.3382" width="14.8534" height="20.8662" fill="#FF795B"/>
<rect x="120.481" y="59.3382" width="14.8534" height="20.8662" fill="#FF795B"/>
<rect x="120.481" y="59.3382" width="14.8534" height="20.8662" fill="#FF795B"/>
<rect x="120.481" y="59.3382" width="14.8534" height="20.8662" fill="#FF795B"/>
<rect x="21.459" y="90.6375" width="14.8534" height="20.8662" fill="#FF795B"/>
<rect x="21.459" y="90.6375" width="14.8534" height="20.8662" fill="#FF795B"/>
<rect x="21.459" y="90.6375" width="14.8534" height="20.8662" fill="#FF795B"/>
<rect x="46.2144" y="90.6375" width="14.8534" height="20.8662" fill="#FF795B"/>
<rect x="46.2144" y="90.6375" width="14.8534" height="20.8662" fill="#FF795B"/>
<rect x="46.2144" y="90.6375" width="14.8534" height="20.8662" fill="#FF795B"/>
<rect x="46.2144" y="90.6375" width="14.8534" height="20.8662" fill="#FF795B"/>
<rect x="46.2144" y="90.6375" width="14.8534" height="20.8662" fill="#FF795B"/>
<rect x="46.2144" y="90.6375" width="14.8534" height="20.8662" fill="#FF795B"/>
<rect x="71.9727" y="59.7769" width="14.8534" height="20.8662" fill="#FF795B"/>
<rect x="71.9727" y="59.7769" width="14.8534" height="20.8662" fill="#FF795B"/>
<rect x="71.9727" y="59.7769" width="14.8534" height="20.8662" fill="#FF795B"/>
<rect x="95.9639" y="59.7769" width="14.8534" height="20.8662" fill="#FF795B"/>
<rect x="95.9639" y="59.7769" width="14.8534" height="20.8662" fill="#FF795B"/>
<rect x="95.9639" y="59.7769" width="14.8534" height="20.8662" fill="#FF795B"/>
<rect x="47.0591" y="59.7769" width="14.8534" height="20.8662" fill="#FF795B"/>
<rect x="47.0591" y="59.7769" width="14.8534" height="20.8662" fill="#FF795B"/>
<rect x="47.0591" y="59.7769" width="14.8534" height="20.8662" fill="#FF795B"/>
<rect x="70.9702" y="90.6375" width="14.8534" height="20.8662" fill="#FF795B"/>
<rect x="70.9702" y="90.6375" width="14.8534" height="20.8662" fill="#FF795B"/>
<rect x="70.9702" y="90.6375" width="14.8534" height="20.8662" fill="#FF795B"/>
<rect x="95.7261" y="90.6375" width="14.8534" height="20.8662" fill="#FF795B"/>
<rect x="95.7261" y="90.6375" width="14.8534" height="20.8662" fill="#FF795B"/>
<rect x="95.7261" y="90.6375" width="14.8534" height="20.8662" fill="#FF795B"/>
<rect x="120.481" y="90.6375" width="14.8534" height="20.8662" fill="#FF795B"/>
<rect x="120.481" y="90.6375" width="14.8534" height="20.8662" fill="#FF795B"/>
<rect x="120.481" y="90.6375" width="14.8534" height="20.8662" fill="#FF795B"/>
<rect x="21.459" y="121.937" width="14.8534" height="20.8662" fill="#FF795B"/>
<rect x="21.459" y="121.937" width="14.8534" height="20.8662" fill="#FF795B"/>
<rect x="21.459" y="121.937" width="14.8534" height="20.8662" fill="#FF795B"/>
<rect x="46.2144" y="121.937" width="14.8534" height="20.8662" fill="#FF795B"/>
<rect x="46.2144" y="121.937" width="14.8534" height="20.8662" fill="#FF795B"/>
<rect x="46.2144" y="121.937" width="14.8534" height="20.8662" fill="#FF795B"/>
<rect x="70.9702" y="121.937" width="14.8534" height="20.8662" fill="#FF795B"/>
<rect x="70.9702" y="121.937" width="14.8534" height="20.8662" fill="#FF795B"/>
<rect x="70.9702" y="121.937" width="14.8534" height="20.8662" fill="#FF795B"/>
<rect x="95.7261" y="121.937" width="14.8534" height="20.8662" fill="#FF795B"/>
<rect x="95.7261" y="121.937" width="14.8534" height="20.8662" fill="#FF795B"/>
<rect x="95.7261" y="121.937" width="14.8534" height="20.8662" fill="#FF795B"/>
<rect x="120.481" y="121.937" width="14.8534" height="20.8662" fill="#FF795B"/>
<rect x="120.481" y="121.937" width="14.8534" height="20.8662" fill="#FF795B"/>
<rect x="120.481" y="121.937" width="14.8534" height="20.8662" fill="#FF795B"/>
<rect x="21.459" y="153.236" width="14.8534" height="20.8662" fill="#FF795B"/>
<rect x="21.459" y="153.236" width="14.8534" height="20.8662" fill="#FF795B"/>
<rect x="21.459" y="153.236" width="14.8534" height="20.8662" fill="#FF795B"/>
<rect x="46.2144" y="153.236" width="14.8534" height="20.8662" fill="#FF795B"/>
<rect x="46.2144" y="153.236" width="14.8534" height="20.8662" fill="#FF795B"/>
<rect x="46.2144" y="153.236" width="14.8534" height="20.8662" fill="#FF795B"/>
<rect x="70.9702" y="153.236" width="14.8534" height="20.8662" fill="#FF795B"/>
<rect x="70.9702" y="153.236" width="14.8534" height="20.8662" fill="#FF795B"/>
<rect x="70.9702" y="153.236" width="14.8534" height="20.8662" fill="#FF795B"/>
<rect x="95.7261" y="153.236" width="14.8534" height="20.8662" fill="#FF795B"/>
<rect x="95.7261" y="153.236" width="14.8534" height="20.8662" fill="#FF795B"/>
<rect x="95.7261" y="153.236" width="14.8534" height="20.8662" fill="#FF795B"/>
<rect x="120.481" y="153.236" width="14.8534" height="20.8662" fill="#FF795B"/>
<rect x="120.481" y="153.236" width="14.8534" height="20.8662" fill="#FF795B"/>
<rect x="120.481" y="153.236" width="14.8534" height="20.8662" fill="#FF795B"/>
<rect x="21.459" y="184.535" width="14.8534" height="20.8662" fill="#FF795B"/>
<rect x="21.459" y="184.535" width="14.8534" height="20.8662" fill="#FF795B"/>
<rect x="21.459" y="184.535" width="14.8534" height="20.8662" fill="#FF795B"/>
<rect x="46.2144" y="184.535" width="14.8534" height="20.8662" fill="#FF795B"/>
<rect x="46.2144" y="184.535" width="14.8534" height="20.8662" fill="#FF795B"/>
<rect x="46.2144" y="184.535" width="14.8534" height="20.8662" fill="#FF795B"/>
<rect x="70.9702" y="184.535" width="14.8534" height="20.8662" fill="#FF795B"/>
<rect x="70.9702" y="184.535" width="14.8534" height="20.8662" fill="#FF795B"/>
<rect x="70.9702" y="184.535" width="14.8534" height="20.8662" fill="#FF795B"/>
<rect x="95.7261" y="184.535" width="14.8534" height="20.8662" fill="#FF795B"/>
<rect x="95.7261" y="184.535" width="14.8534" height="20.8662" fill="#FF795B"/>
<rect x="95.7261" y="184.535" width="14.8534" height="20.8662" fill="#FF795B"/>
<rect x="120.481" y="184.535" width="14.8534" height="20.8662" fill="#FF795B"/>
<rect x="120.481" y="184.535" width="14.8534" height="20.8662" fill="#FF795B"/>
<rect x="120.481" y="184.535" width="14.8534" height="20.8662" fill="#FF795B"/>
<rect x="21.459" y="215.835" width="14.8534" height="20.8662" fill="#FF795B"/>
<rect x="21.459" y="215.835" width="14.8534" height="20.8662" fill="#FF795B"/>
<rect x="21.459" y="215.835" width="14.8534" height="20.8662" fill="#FF795B"/>
<rect x="46.2144" y="215.835" width="14.8534" height="20.8662" fill="#FF795B"/>
<rect x="46.2144" y="215.835" width="14.8534" height="20.8662" fill="#FF795B"/>
<rect x="46.2144" y="215.835" width="14.8534" height="20.8662" fill="#FF795B"/>
<rect x="70.9702" y="215.835" width="14.8534" height="20.8662" fill="#FF795B"/>
<rect x="70.9702" y="215.835" width="14.8534" height="20.8662" fill="#FF795B"/>
<rect x="70.9702" y="215.835" width="14.8534" height="20.8662" fill="#FF795B"/>
<rect x="95.7261" y="215.835" width="14.8534" height="20.8662" fill="#FF795B"/>
<rect x="95.7261" y="215.835" width="14.8534" height="20.8662" fill="#FF795B"/>
<rect x="95.7261" y="215.835" width="14.8534" height="20.8662" fill="#FF795B"/>
<rect x="120.481" y="215.835" width="14.8534" height="20.8662" fill="#FF795B"/>
<rect x="120.481" y="215.835" width="14.8534" height="20.8662" fill="#FF795B"/>
<rect x="120.481" y="215.835" width="14.8534" height="20.8662" fill="#FF795B"/>
<rect x="21.459" y="247.134" width="14.8534" height="20.8662" fill="#FF795B"/>
<rect x="21.459" y="247.134" width="14.8534" height="20.8662" fill="#FF795B"/>
<rect x="21.459" y="247.134" width="14.8534" height="20.8662" fill="#FF795B"/>
<rect x="46.2144" y="247.134" width="14.8534" height="20.8662" fill="#FF795B"/>
<rect x="46.2144" y="247.134" width="14.8534" height="20.8662" fill="#FF795B"/>
<rect x="46.2144" y="247.134" width="14.8534" height="20.8662" fill="#FF795B"/>
<rect x="70.9702" y="247.134" width="14.8534" height="20.8662" fill="#FF795B"/>
<rect x="70.9702" y="247.134" width="14.8534" height="20.8662" fill="#FF795B"/>
<rect x="70.9702" y="247.134" width="14.8534" height="20.8662" fill="#FF795B"/>
<rect x="95.7261" y="247.134" width="14.8534" height="20.8662" fill="#FF795B"/>
<rect x="95.7261" y="247.134" width="14.8534" height="20.8662" fill="#FF795B"/>
<rect x="95.7261" y="247.134" width="14.8534" height="20.8662" fill="#FF795B"/>
<path d="M153.489 10.4331L201.35 3.91245V265.392H155.14L153.489 10.4331Z" fill="#A7C9D3"/>
<path d="M163.392 26.0828L169.993 24.7786V45.6448L163.392 46.9489V26.0828Z" fill="#FF795B"/>
<path d="M163.392 26.0828L169.993 24.7786V45.6448L163.392 46.9489V26.0828Z" fill="#FF795B"/>
<path d="M163.392 26.0828L169.993 24.7786V45.6448L163.392 46.9489V26.0828Z" fill="#FF795B"/>
<path d="M174.944 22.1703L181.546 20.8662V41.7324L174.944 43.0365V22.1703Z" fill="#FF795B"/>
<path d="M174.944 22.1703L181.546 20.8662V41.7324L174.944 43.0365V22.1703Z" fill="#FF795B"/>
<path d="M174.944 22.1703L181.546 20.8662V41.7324L174.944 43.0365V22.1703Z" fill="#FF795B"/>
<path d="M187.322 18.91L193.924 17.6059V38.472L187.322 39.7762V18.91Z" fill="#FF795B"/>
<path d="M187.322 18.91L193.924 17.6059V38.472L187.322 39.7762V18.91Z" fill="#FF795B"/>
<path d="M187.322 18.91L193.924 17.6059V38.472L187.322 39.7762V18.91Z" fill="#FF795B"/>
<path d="M161.741 57.382L168.343 56.0779V76.944L161.741 78.2482V57.382Z" fill="#FF795B"/>
<path d="M161.741 57.382L168.343 56.0779V76.944L161.741 78.2482V57.382Z" fill="#FF795B"/>
<path d="M161.741 57.382L168.343 56.0779V76.944L161.741 78.2482V57.382Z" fill="#FF795B"/>
<path d="M173.294 53.4696L179.895 52.1655V73.0316L173.294 74.3358V53.4696Z" fill="#FF795B"/>
<path d="M173.294 53.4696L179.895 52.1655V73.0316L173.294 74.3358V53.4696Z" fill="#FF795B"/>
<path d="M173.294 53.4696L179.895 52.1655V73.0316L173.294 74.3358V53.4696Z" fill="#FF795B"/>
<path d="M185.672 50.2093L192.273 48.9051V69.7713L185.672 71.0754V50.2093Z" fill="#FF795B"/>
<path d="M185.672 50.2093L192.273 48.9051V69.7713L185.672 71.0754V50.2093Z" fill="#FF795B"/>
<path d="M185.672 50.2093L192.273 48.9051V69.7713L185.672 71.0754V50.2093Z" fill="#FF795B"/>
<path d="M163.392 88.6813L169.993 87.3772V108.243L163.392 109.547V88.6813Z" fill="#FF795B"/>
<path d="M163.392 88.6813L169.993 87.3772V108.243L163.392 109.547V88.6813Z" fill="#FF795B"/>
<path d="M163.392 88.6813L169.993 87.3772V108.243L163.392 109.547V88.6813Z" fill="#FF795B"/>
<path d="M174.944 84.7689L181.546 83.4647V104.331L174.944 105.635V84.7689Z" fill="#FF795B"/>
<path d="M174.944 84.7689L181.546 83.4647V104.331L174.944 105.635V84.7689Z" fill="#FF795B"/>
<path d="M174.944 84.7689L181.546 83.4647V104.331L174.944 105.635V84.7689Z" fill="#FF795B"/>
<path d="M187.322 81.5085L193.924 80.2044V101.071L187.322 102.375V81.5085Z" fill="#FF795B"/>
<path d="M187.322 81.5085L193.924 80.2044V101.071L187.322 102.375V81.5085Z" fill="#FF795B"/>
<path d="M187.322 81.5085L193.924 80.2044V101.071L187.322 102.375V81.5085Z" fill="#FF795B"/>
<path d="M163.392 119.981L169.993 118.676V139.543L163.392 140.847V119.981Z" fill="#FF795B"/>
<path d="M163.392 119.981L169.993 118.676V139.543L163.392 140.847V119.981Z" fill="#FF795B"/>
<path d="M163.392 119.981L169.993 118.676V139.543L163.392 140.847V119.981Z" fill="#FF795B"/>
<path d="M174.944 116.068L181.546 114.764V135.63L174.944 136.934V116.068Z" fill="#FF795B"/>
<path d="M174.944 116.068L181.546 114.764V135.63L174.944 136.934V116.068Z" fill="#FF795B"/>
<path d="M174.944 116.068L181.546 114.764V135.63L174.944 136.934V116.068Z" fill="#FF795B"/>
<path d="M187.322 112.808L193.924 111.504V132.37L187.322 133.674V112.808Z" fill="#FF795B"/>
<path d="M187.322 112.808L193.924 111.504V132.37L187.322 133.674V112.808Z" fill="#FF795B"/>
<path d="M187.322 112.808L193.924 111.504V132.37L187.322 133.674V112.808Z" fill="#FF795B"/>
<path d="M161.741 151.28L168.343 149.976V170.842L161.741 172.146V151.28Z" fill="#FF795B"/>
<path d="M161.741 151.28L168.343 149.976V170.842L161.741 172.146V151.28Z" fill="#FF795B"/>
<path d="M161.741 151.28L168.343 149.976V170.842L161.741 172.146V151.28Z" fill="#FF795B"/>
<path d="M173.294 147.367L179.895 146.063V166.929L173.294 168.234V147.367Z" fill="#FF795B"/>
<path d="M173.294 147.367L179.895 146.063V166.929L173.294 168.234V147.367Z" fill="#FF795B"/>
<path d="M173.294 147.367L179.895 146.063V166.929L173.294 168.234V147.367Z" fill="#FF795B"/>
<path d="M185.672 144.107L192.273 142.803V163.669L185.672 164.973V144.107Z" fill="#FF795B"/>
<path d="M185.672 144.107L192.273 142.803V163.669L185.672 164.973V144.107Z" fill="#FF795B"/>
<path d="M185.672 144.107L192.273 142.803V163.669L185.672 164.973V144.107Z" fill="#FF795B"/>
<path d="M163.392 182.579L169.993 181.275V202.141L163.392 203.445V182.579Z" fill="#FF795B"/>
<path d="M163.392 182.579L169.993 181.275V202.141L163.392 203.445V182.579Z" fill="#FF795B"/>
<path d="M163.392 182.579L169.993 181.275V202.141L163.392 203.445V182.579Z" fill="#FF795B"/>
<path d="M174.944 178.667L181.546 177.363V198.229L174.944 199.533V178.667Z" fill="#FF795B"/>
<path d="M174.944 178.667L181.546 177.363V198.229L174.944 199.533V178.667Z" fill="#FF795B"/>
<path d="M174.944 178.667L181.546 177.363V198.229L174.944 199.533V178.667Z" fill="#FF795B"/>
<path d="M187.322 175.406L193.924 174.102V194.968L187.322 196.273V175.406Z" fill="#FF795B"/>
<path d="M187.322 175.406L193.924 174.102V194.968L187.322 196.273V175.406Z" fill="#FF795B"/>
<path d="M187.322 175.406L193.924 174.102V194.968L187.322 196.273V175.406Z" fill="#FF795B"/>
<path d="M161.741 213.878L168.343 212.574V233.44L161.741 234.745V213.878Z" fill="#FF795B"/>
<path d="M161.741 213.878L168.343 212.574V233.44L161.741 234.745V213.878Z" fill="#FF795B"/>
<path d="M161.741 213.878L168.343 212.574V233.44L161.741 234.745V213.878Z" fill="#FF795B"/>
<path d="M173.294 209.966L179.895 208.662V229.528L173.294 230.832V209.966Z" fill="#FF795B"/>
<path d="M173.294 209.966L179.895 208.662V229.528L173.294 230.832V209.966Z" fill="#FF795B"/>
<path d="M173.294 209.966L179.895 208.662V229.528L173.294 230.832V209.966Z" fill="#FF795B"/>
<path d="M185.672 206.706L192.273 205.401V226.268L185.672 227.572V206.706Z" fill="#FF795B"/>
<path d="M185.672 206.706L192.273 205.401V226.268L185.672 227.572V206.706Z" fill="#FF795B"/>
<path d="M185.672 206.706L192.273 205.401V226.268L185.672 227.572V206.706Z" fill="#FF795B"/>
<path d="M160.091 245.178L166.692 243.873V264.74L160.091 266.044V245.178Z" fill="#FF795B"/>
<path d="M160.091 245.178L166.692 243.873V264.74L160.091 266.044V245.178Z" fill="#FF795B"/>
<path d="M160.091 245.178L166.692 243.873V264.74L160.091 266.044V245.178Z" fill="#FF795B"/>
<path d="M171.643 241.265L178.245 239.961V260.827L171.643 262.131V241.265Z" fill="#FF795B"/>
<path d="M171.643 241.265L178.245 239.961V260.827L171.643 262.131V241.265Z" fill="#FF795B"/>
<path d="M171.643 241.265L178.245 239.961V260.827L171.643 262.131V241.265Z" fill="#FF795B"/>
<path d="M184.021 238.005L190.623 236.701V257.567L184.021 258.871V238.005Z" fill="#FF795B"/>
<path d="M184.021 238.005L190.623 236.701V257.567L184.021 258.871V238.005Z" fill="#FF795B"/>
<path d="M184.021 238.005L190.623 236.701V257.567L184.021 258.871V238.005Z" fill="#FF795B"/>
<rect x="120.481" y="247.134" width="14.8534" height="20.8662" fill="#FF795B"/>
<rect x="120.481" y="247.134" width="14.8534" height="20.8662" fill="#FF795B"/>
<rect x="120.481" y="247.134" width="14.8534" height="20.8662" fill="#FF795B"/>
<path d="M48.69 3.91245H125.432H202.175L154.314 8.47692H0.00390625L48.69 3.91245Z" fill="#A7C9D3"/>
<path d="M45.5889 2.62711L1.65406 8.51518" stroke="black"/>
<line y1="9.27414" x2="151.844" y2="9.27414" stroke="black"/>
<path d="M49.5151 3.91244L200.525 2.60831" stroke="black"/>
<line y1="-0.5" x2="48.1443" y2="-0.5" transform="matrix(0.994113 -0.108352 0.171951 0.985106 155.139 9.12897)" stroke="black"/>
<line x1="152.338" y1="10.4331" x2="152.338" y2="266.044" stroke="black"/>
<line x1="2.1543" y1="11.7372" x2="2.1543" y2="267.348" stroke="black"/>
<line x1="201.85" y1="5.21655" x2="201.85" y2="264.74" stroke="black"/>
</svg>
