<svg width="200" height="200" viewBox="0 0 200 200" fill="none" xmlns="http://www.w3.org/2000/svg">
<path d="M18.2006 180.006L0 0H200L181.781 179.979L99.8787 200L18.2006 180.006V180.006Z" fill="#353535"/>
<path d="M100.002 184.697L166.184 168.518L181.754 14.7169H100.002V184.697Z" fill="#595959" fill-opacity="0.8"/>
<path d="M100.002 79.9333H133.134L135.422 57.3262H100.002V35.2491H162.786L162.185 41.1726L156.03 102.01H100.002V79.9333V79.9333Z" fill="#F8B300"/>
<path d="M100.15 137.269L100.039 137.298L72.1557 130.659L70.3725 113.051H45.2422L48.7487 147.716L100.036 160.267L100.15 160.238V137.269V137.269Z" fill="#FFCA3F"/>
<path d="M131.005 101.077L127.989 130.642L100.063 137.288V160.258L151.392 147.715L151.769 143.984L156.124 101.077H131.005Z" fill="#F8B300"/>
<path d="M100.087 35.2491V57.3262H39.6093L39.1078 52.3652L37.9674 41.1726L37.3682 35.2491H100.087V35.2491ZM100.002 79.9365V102.014H72.4695L71.9681 97.0526L70.8258 85.86L70.2284 79.9365H100.002V79.9365Z" fill="#FFCA3F"/>
</svg>
