<svg width="200" height="200" viewBox="0 0 200 200" fill="none" xmlns="http://www.w3.org/2000/svg">
<path d="M200 194.7C192.725 197.889 188.227 194.838 184.191 184.393C175.129 161.004 165.127 138.686 155.476 115.956C154.231 113.015 152.939 110.129 151.328 106.474C139.906 133.024 128.5 158.31 117.795 184.613C113.967 194.013 109.947 198.108 102.8 194.783L145.745 95.4799L105.767 5.7967C112.643 3.48797 117.397 4.66982 121.608 15.279C130.909 38.6961 141.166 60.9864 151.392 84.5684C161.681 61.0688 171.811 38.7511 181.383 15.5538C185.228 6.154 189.359 2.58097 196.267 6.04406C191.034 18 185.914 29.7635 180.761 41.4446C173.805 57.1934 166.978 73.1347 159.767 88.5537C157.199 94.0507 157.613 97.6237 159.911 102.818C173.247 133.024 186.424 163.532 200 194.7Z" fill="#353535"/>
<path d="M0.0478583 93.8309C1.19645 83.9089 1.96219 73.7944 3.55746 64.0648C13.1291 5.16464 52.3728 -19.3244 79.3329 17.1755C95.1261 38.5863 99.0505 68.7647 98.2688 102.791H9.25258C7.91255 163.835 33.421 200.692 65.9326 181.892C77.3388 175.296 84.0549 159.905 87.4209 140.665C89.1279 131.018 91.9515 129.506 97.2159 132.255C94.5199 156.332 88.41 176.45 75.6478 189.039C56.5046 207.893 29.1775 201.792 14.8041 175.598C6.31728 160.207 2.71196 141.05 1.11669 120.354C0.8774 117.056 0.382865 113.812 0 110.542C0.0319055 104.971 0.0478583 99.4012 0.0478583 93.8309ZM9.41211 89.7356H89.8617C89.3353 45.5949 73.3825 14.2347 51.5752 13.9598C27.6461 13.63 10.449 44.2482 9.41211 89.7356Z" fill="#353535"/>
</svg>
