<svg width="200" height="200" viewBox="0 0 200 200" fill="none" xmlns="http://www.w3.org/2000/svg">
<path fill-rule="evenodd" clip-rule="evenodd" d="M99.9992 0C44.7784 0 0 45.9022 0 102.532C0 147.835 28.6528 186.266 68.3855 199.825C73.3815 200.776 75.2163 197.601 75.2163 194.893C75.2163 192.448 75.1236 184.371 75.0805 175.804C47.2607 182.006 41.3903 163.706 41.3903 163.706C36.8415 151.855 30.2872 148.704 30.2872 148.704C21.2127 142.34 30.9711 142.473 30.9711 142.473C41.0111 143.194 46.3002 153.039 46.3002 153.039C55.2191 168.71 69.6937 164.18 75.4001 161.562C76.2976 154.935 78.8892 150.41 81.749 147.85C59.5378 145.261 36.1874 136.467 36.1874 97.18C36.1874 85.9859 40.0954 76.8394 46.4923 69.6573C45.4524 67.0765 42.0295 56.6481 47.4594 42.5252C47.4594 42.5252 55.855 39.7695 74.9646 53.0351C82.9429 50.7616 91.4992 49.6189 99.9992 49.5799C108.494 49.6189 117.055 50.7582 125.049 53.0317C144.135 39.7661 152.521 42.5218 152.521 42.5218C157.964 56.643 154.541 67.0731 153.503 69.6539C159.915 76.836 163.794 85.9825 163.794 97.1766C163.794 136.557 140.401 145.227 118.133 147.767C121.722 150.949 124.918 157.19 124.918 166.754C124.918 180.473 124.802 191.514 124.802 194.891C124.802 197.62 126.604 200.817 131.671 199.81C171.38 186.237 200 147.818 200 102.532C199.998 45.9056 155.225 0.00169776 99.9992 0.00169776V0Z" fill="#353535"/>
<path d="M37.8752 147.211C37.655 147.721 36.8734 147.874 36.1613 147.526C35.4327 147.193 35.027 146.498 35.2621 145.987C35.4774 145.461 36.2607 145.317 36.9843 145.668C37.7129 146.003 38.1269 146.704 37.8736 147.213L37.8752 147.211ZM41.9257 151.845C41.4504 152.298 40.5181 152.088 39.8855 151.37C39.2298 150.656 39.1072 149.701 39.5924 149.24C40.0859 148.789 40.99 149.003 41.6458 149.716C42.2982 150.439 42.4274 151.387 41.9273 151.847L41.9257 151.845ZM45.8701 157.749C45.2574 158.187 44.2539 157.777 43.6346 156.866C43.0219 155.952 43.0219 154.857 43.6511 154.421C44.2688 153.983 45.2574 154.378 45.8867 155.282C46.4961 156.207 46.4961 157.302 45.8701 157.747V157.749ZM51.2702 163.455C50.7237 164.075 49.5546 163.908 48.7001 163.065C47.8274 162.238 47.584 161.061 48.1321 160.443C48.6885 159.822 49.8626 159.995 50.722 160.834C51.5947 161.659 51.858 162.837 51.2735 163.453L51.2702 163.455ZM58.7219 166.768C58.4785 167.571 57.3557 167.936 56.2214 167.593C55.0904 167.241 54.3502 166.302 54.582 165.491C54.8139 164.681 55.9449 164.302 57.0858 164.667C58.2168 165.017 58.957 165.951 58.7219 166.768ZM66.9072 167.381C66.9354 168.226 65.9749 168.926 64.7876 168.943C63.5904 168.972 62.6216 168.286 62.6101 167.454C62.6101 166.6 63.5506 165.909 64.7462 165.885C65.9335 165.863 66.9089 166.542 66.9089 167.379L66.9072 167.381ZM74.5213 166.053C74.6637 166.876 73.8374 167.724 72.6567 167.949C71.4975 168.17 70.4211 167.657 70.2721 166.841C70.1297 165.995 70.9709 165.148 72.1301 164.929C73.3124 164.72 74.3722 165.218 74.5213 166.055V166.053Z" fill="#353535"/>
</svg>
