<svg width="200" height="200" viewBox="0 0 200 200" fill="none" xmlns="http://www.w3.org/2000/svg">
<path d="M0 0H200V200H0V0Z" fill="#353535"/>
<path d="M183.633 152.299C182.168 143.175 176.218 135.511 158.594 128.365C152.472 125.552 145.647 123.537 143.613 118.898C142.891 116.198 142.795 114.677 143.252 113.042C144.564 107.738 150.895 106.085 155.913 107.606C159.146 108.689 162.205 111.179 164.05 115.153C172.681 109.564 172.663 109.601 178.69 105.76C176.483 102.34 175.306 100.761 173.861 99.2978C168.671 93.5 161.598 90.5141 150.287 90.7425L144.394 91.5046C138.748 92.9313 133.367 95.8949 130.212 99.8682C120.744 110.611 123.444 129.412 134.965 137.149C146.315 145.668 162.988 147.606 165.118 155.571C167.19 165.323 157.95 168.48 148.767 167.359C142 165.951 138.235 162.511 134.166 156.257C126.677 160.591 126.677 160.591 118.976 165.02C120.802 169.012 122.721 170.819 125.782 174.278C140.269 188.973 176.523 188.251 183.026 166.009C183.289 165.245 185.04 160.152 183.633 152.299V152.299ZM108.727 91.92H90.0201L89.9434 140.284C89.9434 150.569 90.4754 159.998 88.8027 162.889C86.0659 168.573 78.9739 167.868 75.7419 166.766C72.4523 165.149 70.7796 162.85 68.8416 159.601C68.3096 158.668 67.9102 157.945 67.776 157.89L52.5664 167.204C55.0955 172.394 58.8212 176.9 63.5934 179.827C70.7221 184.105 80.3032 185.417 90.3236 183.116C96.8452 181.217 102.472 177.282 105.418 171.292C109.678 163.44 108.764 153.935 108.725 143.423C108.821 126.272 108.727 109.125 108.727 91.92Z" fill="#F8B300"/>
</svg>
