<svg width="200" height="200" viewBox="0 0 200 200" fill="none" xmlns="http://www.w3.org/2000/svg">
<path d="M185.246 0.000757373H14.7541C10.8858 -0.0386109 7.15978 1.4582 4.39375 4.16274C1.62772 6.86729 0.0475594 10.5587 0 14.4269V185.606C0.0561604 189.468 1.6401 193.151 4.4052 195.849C7.17029 198.546 10.8914 200.039 14.7541 199.999H185.246C189.114 200.03 192.838 198.528 195.603 195.822C198.367 193.116 199.948 189.425 200 185.557V14.3777C199.931 10.5208 198.342 6.84705 195.58 4.15492C192.817 1.46279 189.103 -0.0300976 185.246 0.000757373V0.000757373ZM59.2951 170.491H29.6066V74.9674H59.2951V170.491ZM44.541 61.9511C41.1359 61.9544 37.8063 60.9476 34.9734 59.0582C32.1406 57.1688 29.9318 54.4816 28.6265 51.3366C27.3211 48.1916 26.9779 44.7302 27.6402 41.3901C28.3025 38.05 29.9406 34.9814 32.3473 32.5725C34.7539 30.1636 37.821 28.5226 41.1604 27.8571C44.4999 27.1916 47.9617 27.5315 51.108 28.8338C54.2542 30.1362 56.9435 32.3424 58.8356 35.1734C60.7278 38.0044 61.7377 41.333 61.7377 44.7381C61.7334 47.0013 61.2828 49.2415 60.4118 51.3304C59.5407 53.4192 58.2662 55.3158 56.6613 56.9116C55.0564 58.5073 53.1526 59.7709 51.0588 60.6301C48.9649 61.4892 46.7222 61.9269 44.459 61.9183L44.541 61.9511ZM170.492 170.491H140.803V124.016C140.803 112.951 140.607 98.7049 125.377 98.7049C110.148 98.7049 107.557 110.77 107.557 123.295V170.491H77.918V74.9674H106.377V88.0821H106.77C110.738 80.5739 120.41 72.6559 134.852 72.6559C164.918 72.5904 170.492 92.3771 170.492 118.033V170.491Z" fill="#353535"/>
</svg>
