<svg width="140" height="254" viewBox="0 0 140 254" fill="none" xmlns="http://www.w3.org/2000/svg">
<path fill-rule="evenodd" clip-rule="evenodd" d="M131.393 82.8793C135.492 92.5478 138.444 102.418 139.415 112.649C140.62 125.341 140.068 137.944 136.787 150.428C136.697 150.772 136.508 151.094 136.368 151.428C135.338 151.43 134.289 151.325 133.283 151.453C124.78 152.542 116.286 153.67 107.792 154.793C99.0111 155.953 90.2179 157.067 81.4527 158.306C78.3471 158.743 74.5034 158.22 73.2495 161.723C73.2137 161.819 72.8561 161.835 72.6493 161.889L73.0732 140.959C72.9277 124.125 72.7846 107.291 72.6416 90.4571L76.733 89.8845C83.4244 88.9911 90.1157 88.0853 96.8122 87.2169C104.803 86.182 112.802 85.1762 120.799 84.1662C124.326 83.7185 127.858 83.3083 131.393 82.8793V82.8793Z" fill="#353535" fill-opacity="0.98"/>
<path fill-rule="evenodd" clip-rule="evenodd" d="M64.1985 222.904C59.8823 219.878 55.4155 216.985 51.2781 213.804C29.0153 196.682 12.7314 176.531 4.71197 152.235C2.5028 145.549 1.02918 138.754 0.556698 131.845C0.224685 127.009 -0.255465 122.13 0.163382 117.32C1.27946 104.526 3.54737 91.8544 8.14958 79.5308L8.40242 79.2434C8.84936 79.7286 9.49295 80.1576 9.72025 80.7053C14.2126 91.4921 18.6718 102.287 23.108 113.089C37.0475 147.032 50.969 180.983 64.9315 214.918C65.2047 215.58 65.9122 216.123 66.4204 216.721L64.1985 222.904V222.904Z" fill="#353535" fill-opacity="0.94"/>
<path fill-rule="evenodd" clip-rule="evenodd" d="M131.391 82.8793C127.857 83.3082 124.322 83.7185 120.795 84.162C112.799 85.172 104.8 86.1778 96.8083 87.2127C90.1118 88.0811 83.4205 88.9869 76.7291 89.8803L72.6377 90.4529L72.6071 88.2768C72.4717 86.4881 72.2393 84.7014 72.2137 82.9126C72.0375 71.5052 71.9277 60.0979 71.754 48.6905C71.6468 41.55 71.4859 34.4116 71.3071 27.2731C71.1973 22.8376 71.0798 18.4 70.8346 13.9708C70.7018 11.5906 70.2319 9.22293 70.0403 6.84275C69.9331 5.47462 70.0812 4.09607 70.1144 2.72169C72.201 6.01812 74.2416 9.33954 76.3869 12.611C79.776 17.7836 85.175 21.5944 90.0352 25.753C109.249 42.1872 122.889 61.2953 131.391 82.8793Z" fill="#353535" fill-opacity="0.96"/>
<path fill-rule="evenodd" clip-rule="evenodd" d="M72.6441 161.887C72.851 161.833 73.2111 161.817 73.2443 161.721C74.4983 158.218 78.342 158.741 81.4476 158.304C90.2127 157.067 99.006 155.95 107.786 154.791C116.281 153.668 124.775 152.539 133.277 151.45C134.284 151.321 135.333 151.427 136.363 151.425C134.774 156.048 133.523 160.771 131.507 165.267C129.219 170.367 126.451 175.344 123.511 180.223C119.118 187.517 113.645 194.321 107.286 200.553C102.385 205.359 96.9219 209.801 91.4463 214.189C88.4199 216.615 84.852 218.591 81.5319 220.771L80.6712 220.292L77.5707 218.131L74.3629 212.398C72.1538 205.686 70.9943 198.854 70.8027 191.911L70.8615 190.743L71.2982 185.691C71.4438 183.967 71.6379 182.245 71.7273 180.516C72.0567 174.307 72.3428 168.097 72.6441 161.887V161.887Z" fill="#353535"/>
<path fill-rule="evenodd" clip-rule="evenodd" d="M72.6433 161.887C72.3419 168.097 72.0559 174.307 71.7315 180.519C71.6421 182.247 71.448 183.969 71.3025 185.693L69.3487 186.295C65.0095 175.879 60.6678 165.573 56.4206 155.24C49.3972 138.146 42.4582 121.025 35.445 103.926C29.7829 90.1239 24.0749 76.3364 18.3336 62.5551C18.0654 61.9096 17.2941 61.4056 16.7578 60.8351L29.2619 42.0894C29.691 42.6974 30.258 43.2659 30.5287 43.9198C36.3134 57.8781 42.0879 71.8384 47.8138 85.8134C55.2611 103.993 62.6625 122.187 70.1047 140.368C70.4009 141.095 70.8913 141.765 71.3586 142.579L73.0698 140.955C72.9268 147.933 72.7838 154.909 72.6433 161.887V161.887Z" fill="#353535" fill-opacity="0.9"/>
<path fill-rule="evenodd" clip-rule="evenodd" d="M16.7608 60.8371C17.2971 61.4077 18.0659 61.9117 18.3366 62.5572C24.0779 76.3385 29.7859 90.126 35.448 103.928C42.4612 121.027 49.4003 138.148 56.4236 155.242C60.6683 165.573 65.01 175.881 69.3517 186.297L71.3054 185.695L70.8687 190.747L70.4729 191.911C69.7935 197.442 69.2214 202.986 68.394 208.504C67.9777 211.269 67.094 213.985 66.4223 216.723C65.9166 216.125 65.2066 215.582 64.9333 214.92C50.9709 180.983 37.0494 147.034 23.1099 113.091C18.6737 102.289 14.2145 91.4941 9.72213 80.7073C9.49483 80.1597 8.85379 79.7307 8.4043 79.2455C11.1881 73.1087 13.9745 66.9719 16.7608 60.8371V60.8371Z" fill="#353535" fill-opacity="0.92"/>
<path fill-rule="evenodd" clip-rule="evenodd" d="M73.0686 140.957L71.3574 142.582C70.8901 141.767 70.3997 141.095 70.1035 140.37C62.6638 122.189 55.2599 103.995 47.8126 85.8155C42.0867 71.8405 36.3122 57.8801 30.5275 43.9219C30.2593 43.268 29.6924 42.6974 29.2607 42.0914L44.7249 25.5052C45.2127 26.0362 45.9074 26.5089 46.1602 27.1065C50.4534 37.354 54.7083 47.6139 58.9376 57.8801C62.8886 67.4675 66.7808 77.0694 70.7777 86.6442C71.0459 87.2856 71.978 87.7396 72.6012 88.281L72.6319 90.4571C72.78 107.287 72.9256 124.123 73.0686 140.957V140.957Z" fill="#353535" fill-opacity="0.88"/>
<path fill-rule="evenodd" clip-rule="evenodd" d="M72.6058 88.2768C71.9827 87.7354 71.0505 87.2814 70.7823 86.6401C66.7854 77.0652 62.8932 67.4633 58.9422 57.876C54.7129 47.6098 50.458 37.3519 46.1648 27.1024C45.912 26.5047 45.2173 26.032 44.7295 25.501C49.7582 21.4861 54.6311 17.3276 59.8616 13.4981C64.5124 10.0954 68.2513 6.44709 68.4225 1.07035C68.4301 0.847534 68.5731 0.624718 68.7928 0L70.1183 2.71961C70.0851 4.09607 69.9344 5.47253 70.0442 6.84066C70.2358 9.22084 70.7057 11.5885 70.8385 13.9687C71.0837 18.3979 71.2012 22.8355 71.311 27.271C71.4872 34.4095 71.6481 41.5479 71.7579 48.6884C71.929 60.0958 72.0414 71.5031 72.2176 82.9105C72.2381 84.7034 72.4679 86.4881 72.6058 88.2768V88.2768Z" fill="#353535" fill-opacity="0.86"/>
<path fill-rule="evenodd" clip-rule="evenodd" d="M66.4182 216.721C67.0899 213.983 67.9736 211.265 68.3899 208.502C69.2199 202.986 69.7894 197.44 70.4688 191.909L70.6373 191.888L70.8059 191.911C70.9975 198.854 72.1569 205.686 74.3661 212.398C73.9166 212.881 73.2807 213.312 73.0432 213.858C71.1864 218.127 69.437 222.429 67.5701 226.698C67.3147 227.281 66.6047 227.735 66.1041 228.247L64.1963 222.904L66.4182 216.721V216.721Z" fill="#A9AA88"/>
<path fill-rule="evenodd" clip-rule="evenodd" d="M66.1064 228.249C66.607 227.737 67.3196 227.283 67.5724 226.7C69.4393 222.431 71.1914 218.131 73.0455 213.86C73.283 213.314 73.9164 212.883 74.3685 212.4L77.5737 218.135C76.9403 218.868 76.0668 219.528 75.7144 220.344L69.5747 235.044C69.3219 235.633 68.4586 236.05 67.8814 236.547L66.1064 228.249V228.249Z" fill="#B6B598"/>
<path fill-rule="evenodd" clip-rule="evenodd" d="M67.8818 236.545C68.4616 236.05 69.3223 235.631 69.5751 235.042L75.7148 220.342C76.0647 219.528 76.9407 218.866 77.5741 218.133L80.6771 220.292C79.1779 221.5 78.3453 222.895 78.8459 224.659L77.9035 227.175C77.4745 227.606 76.8538 227.98 76.6419 228.474C74.4991 233.478 72.4534 238.509 70.2953 243.513C70.022 244.148 69.2635 244.646 68.7272 245.204C68.4488 242.316 68.1653 239.434 67.8818 236.545V236.545Z" fill="#C2C1A7"/>
<path fill-rule="evenodd" clip-rule="evenodd" d="M68.7294 245.204C69.2632 244.644 70.0217 244.146 70.2975 243.513C72.4556 238.511 74.5013 233.48 76.6441 228.474C76.8561 227.983 77.4741 227.606 77.9057 227.175L76.6058 238.721C76.2584 239.048 75.7553 239.334 75.5893 239.715C74.1208 243.076 72.7366 246.462 71.2629 249.823C70.959 250.516 70.3767 251.128 69.9221 251.776C69.5186 251.345 68.7958 250.928 68.7626 250.479C68.6324 248.727 68.7217 246.964 68.7294 245.204V245.204Z" fill="#CECDB7"/>
<path fill-rule="evenodd" clip-rule="evenodd" d="M69.9199 251.776C70.3745 251.126 70.9568 250.514 71.2607 249.823C72.7369 246.464 74.1186 243.078 75.5871 239.715C75.7531 239.334 76.2588 239.05 76.6036 238.721L76.6342 246.301L73.5235 252.807L69.9199 251.776V251.776Z" fill="#DBDAC7"/>
<path fill-rule="evenodd" clip-rule="evenodd" d="M73.5234 252.809L76.6342 246.303L77.2752 254L73.5234 252.809V252.809Z" fill="#EBE9DC"/>
<path fill-rule="evenodd" clip-rule="evenodd" d="M78.8452 224.661C78.3446 222.897 79.1746 221.5 80.6764 220.294L81.537 220.773L78.8452 224.661V224.661Z" fill="#CECDB7"/>
<path fill-rule="evenodd" clip-rule="evenodd" d="M70.8049 191.913L70.6363 191.891L70.4678 191.911L70.8636 190.747L70.8049 191.913V191.913Z" fill="#4FAA41"/>
</svg>
