<svg width="200" height="200" viewBox="0 0 200 200" fill="none" xmlns="http://www.w3.org/2000/svg">
<path d="M192.095 44.3156L109.671 1.96495C104.473 -0.654984 97.7047 -0.654984 92.4654 1.96495L9.16075 44.3156C3.79626 47.0464 0 52.1787 0 57.6684V142.257C0 147.747 3.89533 152.881 9.25981 155.627L31.2692 166.688C41.7888 171.273 45.5065 171.273 50.2935 171.273C65.8692 171.273 74.7664 162.939 74.7664 148.402V64.8914C74.7664 63.7121 74.0729 61.9572 72.7645 61.9572H62.2542C60.9234 61.9572 57.9439 63.7121 57.9439 64.8897V148.4C57.9439 154.844 51.357 161.257 39.0467 155.81L16.3047 144.211C15.5121 143.83 14.9533 143.064 14.9533 142.257V57.6684C14.9533 56.8711 15.9907 56.0706 16.7888 55.6621L99.8243 13.3842C100.6 12.9955 101.74 12.9955 102.514 13.3842L184.536 55.6521C185.321 56.0706 185.045 56.8463 185.045 57.6684V142.257C185.045 143.064 185.387 143.85 184.611 144.239L102.207 186.541C101.501 186.917 100.624 186.917 99.8505 186.541L78.7159 175.379C78.0785 175.051 77.3215 174.934 76.7103 175.236C70.8299 178.185 69.7458 178.577 64.2299 180.269C62.8729 180.688 60.871 181.414 64.9963 183.46L92.6561 197.939C95.3047 199.295 98.314 200 101.342 200C104.411 200 107.417 199.295 110.065 197.939L192.093 155.627C197.458 152.861 200 147.747 200 142.257V57.6684C200 52.1787 197.458 47.0596 192.095 44.3156V44.3156ZM126.935 128.853C105.017 128.853 100.189 123.503 98.5794 113.858C98.3925 112.819 97.3963 111.577 96.2019 111.577H85.4897C84.1645 111.577 83.0991 113 83.0991 114.167C83.0991 126.516 90.686 141.478 126.936 141.478C153.178 141.478 168.222 132.456 168.222 116.488C168.222 100.656 156.135 96.501 130.686 93.5205C104.963 90.5118 102.35 88.9918 102.35 83.6593C102.35 79.263 104.563 73.3995 123.609 73.3995C140.628 73.3995 146.901 76.6315 149.482 86.7821C149.703 87.7364 150.688 88.4212 151.8 88.4212H162.555C163.217 88.4212 163.849 88.1847 164.312 87.7662C164.761 87.3163 164.998 86.7523 164.938 86.1469C163.273 68.6675 150.15 60.5215 123.607 60.5215C99.9981 60.5215 85.914 69.3439 85.914 84.1324C85.914 100.173 99.9271 104.606 122.591 106.589C149.703 108.941 151.811 112.447 151.811 117.166C151.811 125.362 144.376 128.853 126.935 128.853Z" fill="#353535"/>
</svg>
