<svg viewBox="0 0 138 62" fill="none" xmlns="http://www.w3.org/2000/svg">
<line y1="-0.5" x2="96.709" y2="-0.5" transform="matrix(0.999972 0.00748967 -0.00601374 0.999982 1.75195 1)" stroke="black"/>
<rect x="36.0894" y="19.7692" width="100.91" height="39.8846" fill="#FF795B"/>
<path d="M1.75195 1.78204H99.509L137 20.1602H36.0895L1.75195 1.78204Z" fill="#FF795B"/>
<path d="M0 1L36.0895 19.7692V59.6538H0V1Z" fill="#FF795B"/>
<line x1="36.0894" y1="19.2692" x2="137" y2="19.2692" stroke="black"/>
<line y1="-0.5" x2="38.7635" y2="-0.5" transform="matrix(0.885823 0.464024 -0.387703 0.921784 1.75195 1.78204)" stroke="black"/>
<line x1="36.5894" y1="19.7692" x2="36.5894" y2="59.6538" stroke="black"/>
<line y1="-0.5" x2="42.5328" y2="-0.5" transform="matrix(0.906176 0.422901 -0.350891 0.936416 98.458 1.78204)" stroke="black"/>
<line x1="0.850586" y1="1.78204" x2="0.850586" y2="59.6538" stroke="black"/>
<line x1="137.5" y1="19.7692" x2="137.5" y2="62" stroke="black"/>
<rect x="45.1997" y="30.718" width="20.3223" height="4.69231" fill="#353535"/>
<rect x="78.1357" y="30.718" width="20.3223" height="4.69231" fill="#353535"/>
<rect x="110.371" y="30.718" width="20.3223" height="4.69231" fill="#353535"/>
<rect x="45.1997" y="40.8846" width="20.3223" height="4.69231" fill="#353535"/>
<rect x="78.1357" y="40.8846" width="20.3223" height="4.69231" fill="#353535"/>
<rect x="110.371" y="40.8846" width="20.3223" height="4.69231" fill="#353535"/>
<rect x="45.1997" y="51.0513" width="20.3223" height="4.69231" fill="#353535"/>
<rect x="78.1357" y="51.0513" width="20.3223" height="4.69231" fill="#353535"/>
<rect x="110.371" y="51.0513" width="20.3223" height="4.69231" fill="#353535"/>
<path d="M8.05859 19.7692L26.9793 29.5449V34.2372L8.05859 25.2436V19.7692Z" fill="#353535"/>
<path d="M8.05859 32.282L26.9793 42.0577V46.75L8.05859 37.7564V32.282Z" fill="#353535"/>
<path d="M8.05859 43.2308L26.9793 53.0064V57.6987L8.05859 48.7051V43.2308Z" fill="#353535"/>
</svg>
