<svg width="200" height="200" viewBox="0 0 200 200" fill="none" xmlns="http://www.w3.org/2000/svg">
<path d="M99.9999 120.394C110.058 120.394 118.211 111.263 118.211 100C118.211 88.737 110.058 79.6064 99.9999 79.6064C89.9423 79.6064 81.7891 88.737 81.7891 100C81.7891 111.263 89.9423 120.394 99.9999 120.394Z" fill="#353535"/>
<path d="M169.169 66.3685C165.655 64.9374 161.981 63.5063 158.147 62.254C159.105 57.9606 159.904 53.6673 160.543 49.5528C163.898 25.9392 160.224 9.30232 150 2.86225C146.965 0.894453 143.61 0 139.776 0C128.594 0 114.377 9.30233 100 24.8658C85.623 9.30233 71.4057 0 60.2236 0C56.3898 0 53.0351 0.894453 50 2.86225C39.7764 9.48122 36.1022 26.1181 39.4569 49.5528C40.0959 53.6673 40.8946 57.9606 41.853 62.254C38.0192 63.5063 34.3451 64.7585 30.8307 66.3685C10.8626 74.9553 0 86.7621 0 100C0 113.238 11.0224 125.045 30.8307 133.631C34.3451 135.063 38.0192 136.494 41.853 137.746C40.8946 142.039 40.0959 146.333 39.4569 150.447C36.1022 174.061 39.7764 190.698 50 197.138C53.0351 199.106 56.3898 200 60.2236 200C71.5655 200 85.7828 190.698 100 175.134C114.377 190.698 128.594 200 139.776 200C143.61 200 146.965 199.106 150 197.138C160.224 190.519 163.898 173.882 160.543 150.447C159.904 146.333 159.105 142.039 158.147 137.746C161.981 136.494 165.655 135.242 169.169 133.631C189.137 125.045 200 113.238 200 100C200 86.7621 189.137 74.9553 169.169 66.3685ZM145.527 11.8068C152.077 16.1002 154.313 29.3381 151.597 48.1216C151.118 51.8784 150.319 55.814 149.361 59.9284C141.054 57.7818 132.268 56.3506 123.003 55.4562C117.572 46.8694 111.981 39.1771 106.39 32.2004C118.211 19.1413 130.192 10.1968 139.936 10.1968C142.013 10.1968 143.93 10.7335 145.527 11.8068V11.8068ZM127.636 117.889C124.76 123.614 121.406 129.338 117.891 135.063C111.981 135.599 106.07 135.778 100 135.778C93.77 135.778 87.8594 135.599 82.1086 135.063C78.5942 129.338 75.3994 123.614 72.524 117.889C69.4888 111.986 66.6134 105.903 64.0575 100C66.6134 94.0966 69.4888 88.0143 72.524 82.1109C75.3994 76.3864 78.754 70.6619 82.2684 64.9374C88.1789 64.4007 94.0895 64.2218 100.16 64.2218C106.39 64.2218 112.3 64.4007 118.051 64.9374C121.566 70.6619 124.76 76.3864 127.636 82.1109C130.671 88.0143 133.546 94.0966 136.102 100C133.387 105.903 130.671 111.807 127.636 117.889ZM140.895 111.986C143.291 118.247 145.208 124.329 146.965 130.411C141.534 131.843 135.783 132.916 129.712 133.81C131.629 130.411 133.706 126.834 135.463 123.077C137.38 119.32 139.137 115.564 140.895 111.986ZM100 160.465C96.1661 155.814 92.492 150.805 88.9776 145.617C92.6518 145.796 96.3259 145.975 100 145.975C103.674 145.975 107.348 145.796 111.022 145.617C107.508 150.805 103.834 155.814 100 160.465ZM70.2875 133.631C64.2173 132.737 58.4665 131.664 53.0351 130.233C54.7923 124.329 56.7093 118.068 59.1054 111.807C60.8626 115.385 62.6198 119.141 64.5367 122.719C66.4537 126.655 68.3706 130.054 70.2875 133.631V133.631ZM59.1054 88.0143C56.7093 81.7531 54.7923 75.6708 53.0351 69.5886C58.4665 68.1574 64.2173 67.0841 70.2875 66.1896C68.3706 69.5885 66.2939 73.1664 64.5367 76.9231C62.6198 80.6798 60.8626 84.4365 59.1054 88.0143V88.0143ZM100 39.5349C103.834 44.186 107.508 49.195 111.022 54.3828C107.348 54.2039 103.674 54.025 100 54.025C96.3259 54.025 92.6518 54.2039 88.9776 54.3828C92.492 49.195 96.1661 44.186 100 39.5349V39.5349ZM135.463 77.102L129.712 66.3685C135.783 67.263 141.534 68.3363 146.965 69.7674C145.208 75.6708 143.291 81.932 140.895 88.1932C139.137 84.4365 137.38 80.6798 135.463 77.102V77.102ZM48.4026 48.1216C45.6869 29.3381 47.9233 16.1002 54.4728 11.8068C56.0703 10.7335 57.9872 10.1968 60.0639 10.1968C69.6486 10.1968 81.6294 18.9624 93.6102 32.2004C88.0192 38.9982 82.4281 46.8694 76.9968 55.4562C67.7316 56.3506 58.9457 57.9606 50.639 59.9284C49.6805 55.814 49.0415 51.8784 48.4026 48.1216ZM8.94569 100C8.94569 91.5921 18.0511 82.6476 34.0256 76.0286C37.2205 74.5975 40.7348 73.3453 44.2492 72.2719C46.8051 81.2165 50 90.6977 53.8339 100.179C50 109.66 46.6454 118.962 44.2492 127.907C22.2045 120.751 8.94569 110.018 8.94569 100V100ZM54.4728 188.193C47.9233 183.9 45.6869 170.662 48.4026 151.878C48.8818 148.122 49.6805 144.186 50.639 140.072C58.9457 142.218 67.7316 143.649 76.9968 144.544C82.4281 153.131 88.0192 160.823 93.6102 167.8C81.7891 180.859 69.8083 189.803 60.0639 189.803C57.9872 189.803 56.0703 189.267 54.4728 188.193ZM151.597 151.878C154.313 170.662 152.077 183.9 145.527 188.193C143.93 189.267 142.013 189.803 139.936 189.803C130.351 189.803 118.371 181.038 106.39 167.8C111.981 161.002 117.572 153.131 123.003 144.544C132.268 143.649 141.054 142.039 149.361 140.072C150.319 144.186 150.958 148.122 151.597 151.878V151.878ZM165.974 123.971C162.78 125.403 159.265 126.655 155.751 127.728C153.195 118.784 150 109.302 146.166 99.8211C150 90.3399 153.355 81.0376 155.751 72.093C177.796 79.2487 191.054 89.9821 191.054 100C191.054 108.408 181.789 117.352 165.974 123.971V123.971Z" fill="#353535"/>
</svg>
