<svg width="131" height="489" viewBox="0 0 131 489" fill="none" xmlns="http://www.w3.org/2000/svg">
<rect y="29" width="131" height="460" fill="#353535"/>
<rect x="11" y="21.6667" width="109" height="7.33333" fill="#353535"/>
<rect x="21" y="14.3333" width="90" height="7.33333" fill="#353535"/>
<rect x="31" y="7" width="69" height="7.33333" fill="#353535"/>
<rect x="40" width="52" height="7" fill="#353535"/>
<line x1="40" y1="6.5" x2="92" y2="6.5" stroke="#F8B300"/>
<line x1="31" y1="13.5" x2="100" y2="13.5" stroke="#F8B300"/>
<line x1="21" y1="21.5" x2="111" y2="21.5" stroke="#F8B300"/>
<line x1="11" y1="28.5" x2="120" y2="28.5" stroke="#F8B300"/>
<line x1="9.5" y1="476.998" x2="10.178" y2="269.997" stroke="#F8B300"/>
<line x1="19.8389" y1="476.002" x2="19.8389" y2="268.999" stroke="#F8B300"/>
<line opacity="0.9" x1="29.5" y1="475.001" x2="30.178" y2="268" stroke="#F8B300"/>
<line x1="40.5" y1="477.001" x2="40.5" y2="39" stroke="#F8B300"/>
<line x1="50.5" y1="477.001" x2="50.5" y2="39" stroke="#F8B300"/>
<line x1="60.5" y1="477.001" x2="60.5" y2="39" stroke="#F8B300"/>
<line x1="70.5" y1="477.001" x2="70.5" y2="39" stroke="#F8B300"/>
<line x1="80.5" y1="477.001" x2="80.5" y2="39" stroke="#F8B300"/>
<line x1="90.5" y1="477.001" x2="90.5" y2="39" stroke="#F8B300"/>
<line x1="100.5" y1="477.001" x2="100.5" y2="39" stroke="#F8B300"/>
<line x1="110.5" y1="477.001" x2="110.5" y2="39" stroke="#F8B300"/>
<line x1="120.5" y1="477.001" x2="120.5" y2="39" stroke="#F8B300"/>
<line x1="46" y1="50.875" x2="126" y2="50.875" stroke="#F8B300" stroke-width="0.25"/>
<line x1="46" y1="70.875" x2="126" y2="70.875" stroke="#F8B300" stroke-width="0.25"/>
<line x1="46" y1="90.875" x2="126" y2="90.875" stroke="#F8B300" stroke-width="0.25"/>
<line x1="46" y1="110.875" x2="126" y2="110.875" stroke="#F8B300" stroke-width="0.25"/>
<line x1="46" y1="130.875" x2="126" y2="130.875" stroke="#F8B300" stroke-width="0.25"/>
<line x1="46" y1="150.875" x2="126" y2="150.875" stroke="#F8B300" stroke-width="0.25"/>
<line x1="46" y1="170.875" x2="126" y2="170.875" stroke="#F8B300" stroke-width="0.25"/>
<line x1="46" y1="190.875" x2="126" y2="190.875" stroke="#F8B300" stroke-width="0.25"/>
<line x1="46" y1="210.875" x2="126" y2="210.875" stroke="#F8B300" stroke-width="0.25"/>
<line x1="46" y1="236.875" x2="126" y2="236.875" stroke="#F8B300" stroke-width="0.25"/>
<line x1="46" y1="257.875" x2="126" y2="257.875" stroke="#F8B300" stroke-width="0.25"/>
<line x1="5.66797" y1="280.875" x2="126.817" y2="280.875" stroke="#F8B300" stroke-width="0.25"/>
<line x1="5.74219" y1="303.875" x2="126.891" y2="303.875" stroke="#F8B300" stroke-width="0.25"/>
<line x1="5.81641" y1="326.875" x2="126.965" y2="326.875" stroke="#F8B300" stroke-width="0.25"/>
<line x1="5.89062" y1="349.875" x2="127.039" y2="349.875" stroke="#F8B300" stroke-width="0.25"/>
<line x1="5.96484" y1="372.875" x2="127.114" y2="372.875" stroke="#F8B300" stroke-width="0.25"/>
<line x1="6.03906" y1="395.875" x2="127.188" y2="395.875" stroke="#F8B300" stroke-width="0.25"/>
<line x1="6.11328" y1="418.875" x2="127.262" y2="418.875" stroke="#F8B300" stroke-width="0.25"/>
<line x1="6.1875" y1="441.875" x2="127.336" y2="441.875" stroke="#F8B300" stroke-width="0.25"/>
<line x1="6.26172" y1="464.875" x2="127.41" y2="464.875" stroke="#F8B300" stroke-width="0.25"/>
</svg>
