<svg width="200" height="200" viewBox="0 0 200 200" fill="none" xmlns="http://www.w3.org/2000/svg">
<path d="M82.333 91.6316L90.9463 117.348L117.656 108.398L109.042 82.6818L82.333 91.6316Z" fill="#353535"/>
<path d="M82.333 91.6316L90.9463 117.348L117.656 108.398L109.042 82.6818L82.333 91.6316Z" fill="#353535"/>
<path d="M191.618 72.532C170.994 3.80018 141.226 -12.2328 72.5127 8.35009C3.79955 28.933 -12.2518 58.7823 8.37183 127.498C28.9954 196.213 58.7636 212.246 127.509 191.629C196.254 171.013 212.241 141.247 191.618 72.532ZM156.858 117.131L143.979 121.464L148.471 134.797C148.908 136.114 149.082 137.508 148.983 138.896C148.885 140.284 148.515 141.637 147.896 142.872C147.277 144.108 146.423 145.201 145.384 146.085C144.346 146.968 143.144 147.625 141.854 148.014C140.705 148.398 139.502 148.579 138.296 148.547C136.197 148.514 134.158 147.82 132.45 146.557C130.741 145.295 129.445 143.524 128.732 141.481L124.241 128.147L97.5314 137.014L102.023 150.347C102.447 151.652 102.613 153.031 102.512 154.403C102.411 155.776 102.045 157.113 101.435 158.336C100.825 159.56 99.9848 160.644 98.9631 161.524C97.9414 162.405 96.7592 163.064 95.4868 163.463C94.3384 163.848 93.1354 164.028 91.9288 163.997C89.8241 163.985 87.7729 163.309 86.0496 162.058C84.3263 160.807 83.0129 159.041 82.2851 156.997L77.7933 143.664L64.9136 147.997C63.7652 148.381 62.5622 148.562 61.3556 148.53C59.2571 148.497 57.218 147.803 55.5098 146.541C53.8015 145.278 52.5049 143.508 51.7925 141.464C51.369 140.159 51.2029 138.78 51.304 137.407C51.405 136.035 51.7712 134.698 52.3808 133.474C52.9903 132.251 53.8309 131.167 54.8526 130.287C55.8743 129.406 57.0565 128.747 58.3289 128.347L71.2086 124.014L62.6758 98.2148L49.7961 102.548C48.6478 102.933 47.4447 103.113 46.2381 103.081C44.1395 103.048 42.1005 102.354 40.3922 101.092C38.684 99.8293 37.3874 98.0586 36.6749 96.0149C36.2515 94.7102 36.0854 93.3308 36.1865 91.9584C36.2875 90.586 36.6537 89.2486 37.2632 88.0255C37.8728 86.8023 38.7133 85.7182 39.7351 84.8376C40.7568 83.9569 41.9389 83.2975 43.2114 82.8985L56.0911 78.5652L51.5993 65.2322C51.1607 63.9215 50.9829 62.5324 51.0764 61.1487C51.17 59.7649 51.533 58.4151 52.1436 57.1804C52.7543 55.9456 53.6 54.8516 54.6297 53.964C55.6595 53.0765 56.8521 52.4138 58.1357 52.0158C60.714 51.1238 63.5267 51.3072 65.9765 52.527C68.4264 53.7468 70.3206 55.907 71.2569 58.549L75.7487 71.882L102.474 62.9322L97.9822 49.5992C97.5588 48.2945 97.3927 46.9151 97.4937 45.5427C97.5948 44.1704 97.961 42.833 98.5705 41.6098C99.1801 40.3866 100.021 39.3026 101.042 38.4219C102.064 37.5412 103.246 36.8818 104.519 36.4828C107.107 35.5715 109.938 35.747 112.403 36.9715C114.868 38.196 116.771 40.3721 117.704 43.0327L122.196 56.3657L135.076 52.0325C137.654 51.1405 140.467 51.3238 142.917 52.5437C145.366 53.7635 147.261 55.9237 148.197 58.5657C148.62 59.8704 148.786 61.2498 148.685 62.6221C148.584 63.9945 148.218 65.3319 147.609 66.5551C146.999 67.7782 146.158 68.8623 145.137 69.743C144.115 70.6237 142.933 71.283 141.66 71.6821L128.781 76.0153L137.394 101.731L150.274 97.3982C152.852 96.5062 155.665 96.6895 158.115 97.9093C160.564 99.1292 162.459 101.289 163.395 103.931C163.831 105.241 164.007 106.629 163.912 108.01C163.817 109.392 163.454 110.74 162.843 111.973C162.233 113.206 161.388 114.298 160.359 115.184C159.331 116.071 158.14 116.733 156.858 117.131V117.131Z" fill="#353535"/>
</svg>
