<svg width="250" height="200" viewBox="0 0 250 200" fill="none" xmlns="http://www.w3.org/2000/svg">
<path d="M78.6201 200C172.964 200 224.552 123.04 224.552 56.3163C224.552 54.1325 224.552 51.9487 224.414 49.7844C234.451 42.633 243.115 33.7791 250 23.637C240.643 27.7233 230.717 30.4049 220.552 31.5924C231.255 25.2752 239.263 15.346 243.089 3.65117C233.019 9.53675 222.001 13.6846 210.512 15.9157C202.779 7.82051 192.553 2.46025 181.415 0.664387C170.276 -1.13148 158.847 0.737189 148.897 5.9812C138.946 11.2252 131.028 19.5522 126.368 29.6735C121.708 39.7948 120.566 51.1462 123.119 61.9709C102.726 60.9649 82.7762 55.7477 64.5643 46.6578C46.3525 37.5679 30.2858 24.8086 17.4073 9.20821C10.8417 20.3226 8.82528 33.4829 11.7687 46.0097C14.7121 58.5364 22.3939 69.4877 33.2502 76.6337C25.1439 76.3639 17.2204 74.1913 10.1394 70.2967C10.1394 70.5112 10.1394 70.7256 10.1394 70.9401C10.138 82.5866 14.2235 93.8758 21.7044 102.897C29.1854 111.919 39.6023 118.118 51.1922 120.447C43.637 122.473 35.7104 122.766 28.022 121.304C31.2954 131.345 37.6752 140.126 46.2686 146.419C54.8619 152.712 65.2387 156.203 75.9466 156.402C57.7669 170.419 35.3296 178.014 12.2386 177.967C8.14862 177.969 4.06205 177.735 0 177.265C23.4527 192.097 50.746 199.969 78.6201 199.941" fill="#353535"/>
</svg>
