<svg width="200" height="200" viewBox="0 0 200 200" fill="none" xmlns="http://www.w3.org/2000/svg">
<path d="M100 0C44.77 0 0 44.7707 0 100C0 155.226 44.77 200 100 200C155.228 200 200 155.226 200 100C200 44.7707 155.23 0 100 0V0ZM122.436 34.4372C126.126 28.0492 134.287 25.8617 140.673 29.5454C147.059 33.2357 149.245 41.3965 145.555 47.7829C141.871 54.1693 133.709 56.3551 127.323 52.6665C120.941 48.9811 118.754 40.8187 122.436 34.4372V34.4372ZM100 42.0005C105.369 42.0005 110.562 42.7462 115.495 44.109C116.366 49.4733 119.549 54.4162 124.627 57.346C129.695 60.2676 135.559 60.5606 140.634 58.6447C150.506 68.3527 156.93 81.5551 157.867 96.262L138.843 96.5418C137.087 76.6205 120.372 61.0001 100 61.0001C94.1322 61.0001 88.5639 62.3037 83.5734 64.6262L74.2951 48.0034C82.0443 44.1683 90.7711 42.0005 100 42.0005V42.0005ZM32.004 113.352C24.6268 113.352 18.6503 107.374 18.6503 100C18.6503 92.6244 24.6251 86.6462 32.004 86.6462C39.3762 86.6462 45.3543 92.6227 45.3543 100C45.3543 107.372 39.3762 113.352 32.004 113.352ZM43.84 114.541C48.0553 111.101 50.753 105.865 50.753 100C50.753 94.1321 48.0553 88.8946 43.84 85.4561C47.4512 71.4834 56.1435 59.5516 67.8232 51.7415L77.5854 68.0926C67.5582 75.149 61.004 86.8058 61.004 100C61.004 113.194 67.5566 124.851 77.5854 131.904L67.8232 148.26C56.1386 140.452 47.4463 128.517 43.84 114.541V114.541ZM140.673 170.445C134.289 174.133 126.126 171.946 122.441 165.558C118.752 159.176 120.941 151.016 127.328 147.327C133.709 143.642 141.875 145.832 145.56 152.214C149.247 158.6 147.058 166.763 140.673 170.445V170.445ZM140.634 141.355C135.559 139.436 129.696 139.724 124.627 142.652C119.551 145.587 116.366 150.523 115.497 155.889C110.562 157.255 105.369 158.003 100 158.003C90.7711 158.003 82.0443 155.833 74.2968 151.997L83.5734 135.372C88.5639 137.695 94.1322 139 100 139C120.374 139 137.087 123.383 138.838 103.46L157.867 103.738C156.93 118.445 150.506 131.647 140.634 141.355V141.355Z" fill="#353535"/>
</svg>
