<svg width="200" height="200" viewBox="0 0 200 200" fill="none" xmlns="http://www.w3.org/2000/svg">
<path d="M18.2015 180.008L0 0H200L181.778 179.98L99.8781 200L18.2015 180.008Z" fill="#353535"/>
<path d="M99.999 184.698L166.179 168.519L181.75 14.7179H99.999V184.698Z" fill="#595959" fill-opacity="0.8"/>
<path d="M99.9996 81.4803H66.8676L64.579 58.8717H99.9996V36.7956H37.2158L37.8162 42.718L43.9688 103.558H99.9996V81.4803ZM99.9996 138.817L99.8886 138.844L72.0051 132.203L70.2241 114.598H45.0877L48.5952 149.261L99.885 161.815L99.9996 161.788V138.817Z" fill="#FFCA3F"/>
<path d="M99.9121 81.4803V103.558H130.743L127.837 132.19L99.9121 138.836V161.806L151.242 149.261L151.619 145.532L157.502 87.4092L158.111 81.4803H151.366H99.9121ZM99.9121 36.7956V58.8717H160.391L160.893 53.9117L162.036 42.718L162.634 36.7956H99.9121Z" fill="#F8B300"/>
</svg>
