<svg viewBox="0 0 46 16" fill="none" xmlns="http://www.w3.org/2000/svg">
<path d="M0.817383 0.445312H1.4502V15H0.817383V0.445312ZM4.61426 0.445312H5.24707V11.8359H10.3096V12.4688H5.24707V13.1016H10.3096V13.7344H5.24707V14.3672H10.3096V15H4.61426V0.445312ZM3.34863 0.445312H3.98145V15H3.34863V0.445312ZM2.08301 0.445312H2.71582V15H2.08301V0.445312ZM16.5498 6.8877C16.0576 7.37988 15.8115 7.97461 15.8115 8.67188C15.8115 9.36914 16.0576 9.9668 16.5498 10.4648C17.0479 10.957 17.6455 11.2031 18.3428 11.2031C19.04 11.2031 19.6348 10.957 20.127 10.4648C20.625 9.9668 20.874 9.36914 20.874 8.67188C20.874 7.97461 20.625 7.37988 20.127 6.8877C19.6348 6.38965 19.04 6.14062 18.3428 6.14062C17.6455 6.14062 17.0479 6.38965 16.5498 6.8877ZM16.1016 10.9131C15.4863 10.292 15.1787 9.54492 15.1787 8.67188C15.1787 7.79883 15.4863 7.05469 16.1016 6.43945C16.7227 5.81836 17.4697 5.50781 18.3428 5.50781C19.2158 5.50781 19.96 5.81836 20.5752 6.43945C21.1963 7.05469 21.5068 7.79883 21.5068 8.67188C21.5068 9.54492 21.1963 10.292 20.5752 10.9131C19.96 11.5283 19.2158 11.8359 18.3428 11.8359C17.4697 11.8359 16.7227 11.5283 16.1016 10.9131ZM15.6533 5.99121C14.915 6.73535 14.5459 7.62891 14.5459 8.67188C14.5459 9.71484 14.915 10.6084 15.6533 11.3525C16.3975 12.0967 17.2939 12.4688 18.3428 12.4688C19.3916 12.4688 20.2852 12.0967 21.0234 11.3525C21.7676 10.6084 22.1396 9.71484 22.1396 8.67188C22.1396 7.62891 21.7676 6.73535 21.0234 5.99121C20.2852 5.24707 19.3916 4.875 18.3428 4.875C17.2939 4.875 16.3975 5.24707 15.6533 5.99121ZM14.502 10.8955C14.1094 10.2158 13.9131 9.47461 13.9131 8.67188C13.9131 7.86914 14.1094 7.12793 14.502 6.44824C14.9004 5.76855 15.4395 5.23242 16.1191 4.83984C16.7988 4.44141 17.54 4.24219 18.3428 4.24219C19.1455 4.24219 19.8867 4.44141 20.5664 4.83984C21.2461 5.23242 21.7822 5.76855 22.1748 6.44824C22.5732 7.12793 22.7725 7.86914 22.7725 8.67188C22.7725 9.47461 22.5732 10.2158 22.1748 10.8955C21.7822 11.5752 21.2461 12.1143 20.5664 12.5127C19.8867 12.9053 19.1455 13.1016 18.3428 13.1016C17.54 13.1016 16.7988 12.9053 16.1191 12.5127C15.4395 12.1143 14.9004 11.5752 14.502 10.8955ZM13.6758 6.71191C13.4121 7.33301 13.2803 7.98633 13.2803 8.67188C13.2803 9.35742 13.4121 10.0137 13.6758 10.6406C13.9453 11.2617 14.3057 11.8008 14.7568 12.2578C15.2139 12.709 15.7529 13.0693 16.374 13.3389C17.001 13.6025 17.6572 13.7344 18.3428 13.7344C19.0283 13.7344 19.6816 13.6025 20.3027 13.3389C20.9297 13.0693 21.4688 12.709 21.9199 12.2578C22.377 11.8008 22.7373 11.2617 23.001 10.6406C23.2705 10.0137 23.4053 9.35742 23.4053 8.67188C23.4053 7.98633 23.2705 7.33301 23.001 6.71191C22.7373 6.08496 22.377 5.5459 21.9199 5.09473C21.4688 4.6377 20.9297 4.27734 20.3027 4.01367C19.6816 3.74414 19.0283 3.60938 18.3428 3.60938C17.6572 3.60938 17.001 3.74414 16.374 4.01367C15.7529 4.27734 15.2139 4.6377 14.7568 5.09473C14.3057 5.5459 13.9453 6.08496 13.6758 6.71191ZM13.0957 10.8867C12.7969 10.1836 12.6475 9.44531 12.6475 8.67188C12.6475 7.89844 12.7969 7.16016 13.0957 6.45703C13.4004 5.75391 13.8047 5.15039 14.3086 4.64648C14.8184 4.13672 15.4248 3.73242 16.1279 3.43359C16.8311 3.12891 17.5693 2.97656 18.3428 2.97656C19.1162 2.97656 19.8545 3.12891 20.5576 3.43359C21.2607 3.73242 21.8643 4.13672 22.3682 4.64648C22.8779 5.15039 23.2822 5.75391 23.5811 6.45703C23.8857 7.16016 24.0381 7.89844 24.0381 8.67188C24.0381 9.44531 23.8857 10.1836 23.5811 10.8867C23.2822 11.5898 22.8779 12.1963 22.3682 12.7061C21.8643 13.21 21.2607 13.6143 20.5576 13.9189C19.8545 14.2178 19.1162 14.3672 18.3428 14.3672C17.5693 14.3672 16.8311 14.2178 16.1279 13.9189C15.4248 13.6143 14.8184 13.21 14.3086 12.7061C13.8047 12.1963 13.4004 11.5898 13.0957 10.8867ZM12.5156 6.21973C12.1816 6.99902 12.0146 7.81641 12.0146 8.67188C12.0146 9.52734 12.1816 10.3477 12.5156 11.1328C12.8496 11.9121 13.2979 12.5859 13.8604 13.1543C14.4287 13.7168 15.1025 14.165 15.8818 14.499C16.667 14.833 17.4873 15 18.3428 15C19.1982 15 20.0156 14.833 20.7949 14.499C21.5801 14.165 22.2539 13.7168 22.8164 13.1543C23.3848 12.5859 23.8359 11.9121 24.1699 11.1328C24.5039 10.3477 24.6709 9.52734 24.6709 8.67188C24.6709 7.81641 24.5039 6.99902 24.1699 6.21973C23.8359 5.43457 23.3848 4.76074 22.8164 4.19824C22.2539 3.62988 21.5801 3.17871 20.7949 2.84473C20.0156 2.51074 19.1982 2.34375 18.3428 2.34375C17.4873 2.34375 16.667 2.51074 15.8818 2.84473C15.1025 3.17871 14.4287 3.62988 13.8604 4.19824C13.2979 4.76074 12.8496 5.43457 12.5156 6.21973ZM11.9355 11.3789C11.5664 10.5176 11.3818 9.61523 11.3818 8.67188C11.3818 7.72852 11.5664 6.8291 11.9355 5.97363C12.3047 5.1123 12.7998 4.37109 13.4209 3.75C14.042 3.12891 14.7803 2.63379 15.6357 2.26465C16.4971 1.89551 17.3994 1.71094 18.3428 1.71094C19.2861 1.71094 20.1855 1.89551 21.041 2.26465C21.9023 2.63379 22.6436 3.12891 23.2646 3.75C23.8857 4.37109 24.3809 5.1123 24.75 5.97363C25.1191 6.8291 25.3037 7.72852 25.3037 8.67188C25.3037 9.61523 25.1191 10.5176 24.75 11.3789C24.3809 12.2344 23.8857 12.9727 23.2646 13.5938C22.6436 14.2148 21.9023 14.71 21.041 15.0791C20.1855 15.4482 19.2861 15.6328 18.3428 15.6328C17.3994 15.6328 16.4971 15.4482 15.6357 15.0791C14.7803 14.71 14.042 14.2148 13.4209 13.5938C12.7998 12.9727 12.3047 12.2344 11.9355 11.3789ZM39.208 10.9307C39.3311 10.9365 39.4805 10.9395 39.6562 10.9395C39.832 10.9395 39.9785 10.9365 40.0957 10.9307C40.2188 10.9189 40.3447 10.8955 40.4736 10.8604C40.6025 10.8193 40.7051 10.7666 40.7812 10.7021C40.8574 10.6377 40.9189 10.5469 40.9658 10.4297C41.0186 10.3066 41.0449 10.1602 41.0449 9.99023V2.34375H41.6777V9.99023C41.6777 11.0449 41.0039 11.5723 39.6562 11.5723C38.9766 11.5723 38.4727 11.4434 38.1445 11.1855C38.0977 11.4141 38.042 11.6162 37.9775 11.792C38.4229 12.0674 38.9824 12.2051 39.6562 12.2051C40.4414 12.2051 41.0801 12.0234 41.5723 11.6602C42.0645 11.291 42.3105 10.7344 42.3105 9.99023V2.34375H42.9434V9.99023C42.9434 10.9102 42.6328 11.6162 42.0117 12.1084C41.3965 12.5947 40.6113 12.8379 39.6562 12.8379C38.9121 12.8379 38.2734 12.6855 37.7402 12.3809C37.6523 12.5684 37.5498 12.7471 37.4326 12.917C38.0713 13.2861 38.8125 13.4707 39.6562 13.4707C40.2012 13.4707 40.708 13.3945 41.1768 13.2422C41.6514 13.0898 42.0674 12.8701 42.4248 12.583C42.7822 12.2959 43.0635 11.9297 43.2686 11.4844C43.4736 11.0391 43.5762 10.541 43.5762 9.99023V2.34375H44.209V9.99023C44.209 10.834 44.001 11.5723 43.585 12.2051C43.1748 12.8379 42.627 13.3125 41.9414 13.6289C41.2617 13.9453 40.5 14.1035 39.6562 14.1035C38.6719 14.1035 37.8047 13.8779 37.0547 13.4268C36.8906 13.6143 36.7412 13.7666 36.6064 13.8838C37.4795 14.4521 38.4961 14.7363 39.6562 14.7363C40.6113 14.7363 41.4785 14.5488 42.2578 14.1738C43.0371 13.7988 43.6611 13.248 44.1299 12.5215C44.6045 11.7891 44.8418 10.9453 44.8418 9.99023V2.34375H45.4746V9.99023C45.4746 10.7988 45.3193 11.543 45.0088 12.2227C44.7041 12.9023 44.2881 13.4707 43.7607 13.9277C43.2393 14.3848 42.624 14.7393 41.915 14.9912C41.2061 15.2432 40.4531 15.3691 39.6562 15.3691C38.2617 15.3691 37.0693 15.0117 36.0791 14.2969C35.0537 15.0117 33.8438 15.3691 32.4492 15.3691C31.6523 15.3691 30.8994 15.2432 30.1904 14.9912C29.4814 14.7393 28.8633 14.3848 28.3359 13.9277C27.8145 13.4707 27.3984 12.9023 27.0879 12.2227C26.7832 11.543 26.6309 10.7988 26.6309 9.99023V2.34375H27.2637V9.99023C27.2637 10.7109 27.3984 11.373 27.668 11.9766C27.9434 12.5801 28.3154 13.0811 28.7842 13.4795C29.2529 13.8779 29.8008 14.1885 30.4277 14.4111C31.0605 14.6279 31.7344 14.7363 32.4492 14.7363C33.3809 14.7363 34.2451 14.5254 35.042 14.1035C35.8389 13.6758 36.4688 13.0986 36.9316 12.3721C37.4004 11.6396 37.6348 10.8457 37.6348 9.99023V2.34375H38.2676V9.99023C38.2676 10.1602 38.291 10.3066 38.3379 10.4297C38.3906 10.5469 38.4551 10.6377 38.5312 10.7021C38.6074 10.7666 38.71 10.8193 38.8389 10.8604C38.9678 10.8955 39.0908 10.9189 39.208 10.9307ZM34.4707 2.34375V9.99023C34.4707 11.0449 33.7969 11.5723 32.4492 11.5723C31.1016 11.5723 30.4277 11.0449 30.4277 9.99023V2.34375H31.0605V9.99023C31.0605 10.1602 31.084 10.3066 31.1309 10.4297C31.1836 10.5469 31.248 10.6377 31.3242 10.7021C31.4004 10.7666 31.5029 10.8193 31.6318 10.8604C31.7607 10.8955 31.8838 10.9189 32.001 10.9307C32.124 10.9365 32.2734 10.9395 32.4492 10.9395C32.625 10.9395 32.7715 10.9365 32.8887 10.9307C33.0117 10.9189 33.1377 10.8955 33.2666 10.8604C33.3955 10.8193 33.498 10.7666 33.5742 10.7021C33.6504 10.6377 33.7119 10.5469 33.7588 10.4297C33.8115 10.3066 33.8379 10.1602 33.8379 9.99023V2.34375H34.4707ZM35.7363 2.34375V9.99023C35.7363 10.9102 35.4258 11.6162 34.8047 12.1084C34.1895 12.5947 33.4043 12.8379 32.4492 12.8379C31.4941 12.8379 30.7061 12.5947 30.085 12.1084C29.4697 11.6162 29.1621 10.9102 29.1621 9.99023V2.34375H29.7949V9.99023C29.7949 10.7344 30.041 11.291 30.5332 11.6602C31.0254 12.0234 31.6641 12.2051 32.4492 12.2051C33.2344 12.2051 33.873 12.0234 34.3652 11.6602C34.8574 11.291 35.1035 10.7344 35.1035 9.99023V2.34375H35.7363ZM37.002 2.34375V9.99023C37.002 10.834 36.7939 11.5723 36.3779 12.2051C35.9678 12.8379 35.4199 13.3125 34.7344 13.6289C34.0547 13.9453 33.293 14.1035 32.4492 14.1035C31.6055 14.1035 30.8408 13.9453 30.1553 13.6289C29.4756 13.3125 28.9277 12.8379 28.5117 12.2051C28.1016 11.5723 27.8965 10.834 27.8965 9.99023V2.34375H28.5293V9.99023C28.5293 10.541 28.6318 11.0391 28.8369 11.4844C29.042 11.9297 29.3232 12.2959 29.6807 12.583C30.0381 12.8701 30.4512 13.0898 30.9199 13.2422C31.3945 13.3945 31.9043 13.4707 32.4492 13.4707C32.9941 13.4707 33.501 13.3945 33.9697 13.2422C34.4443 13.0898 34.8604 12.8701 35.2178 12.583C35.5752 12.2959 35.8564 11.9297 36.0615 11.4844C36.2666 11.0391 36.3691 10.541 36.3691 9.99023V2.34375H37.002Z" fill="#FF795B"/>
</svg>
