<svg width="200" height="200" viewBox="0 0 200 200" fill="none" xmlns="http://www.w3.org/2000/svg">
<path fill-rule="evenodd" clip-rule="evenodd" d="M54.8193 179.582C99.0933 185.888 142.581 192.08 186.932 198.394C171.821 172.154 157.099 146.584 142.26 120.805L54.8193 179.582V179.582ZM199.428 34.3335C195.525 40.4473 191.615 46.556 187.717 52.6731C174.331 73.6794 160.947 94.6858 147.574 115.702C146.83 116.872 145.864 117.801 146.914 119.605C159.835 141.862 172.655 164.185 185.507 186.488C187.535 190.011 189.585 193.52 192.208 196.899C194.806 142.769 197.403 88.6359 200 34.505L199.428 34.3335V34.3335ZM23.0332 103.732C23.6377 104.329 25.1465 104.677 25.8493 104.315C38.2436 97.9612 50.7169 91.7483 62.8404 84.8712C66.7945 82.6298 69.8347 78.6111 73.2407 75.3525C84.5196 64.5626 95.7807 53.7509 107.037 42.9375C107.725 42.2733 108.541 41.631 108.952 40.7936C112.995 32.5512 116.968 24.2667 121.082 15.7434C116.177 13.8198 111.526 11.9383 106.818 10.2266C106.179 9.99453 105.174 10.4553 104.482 10.8571C93.5836 17.208 82.4805 23.2208 71.9286 30.1467C66.6495 33.6122 62.3488 38.7187 57.6741 43.1662C50.1398 50.3392 42.6152 57.5291 35.1906 64.8266C33.2208 66.7636 31.425 68.9764 29.8905 71.3069C24.8128 79.0197 19.8867 86.8435 14.7349 94.8892C17.6138 97.9949 20.2316 100.964 23.0332 103.732V103.732ZM68.3323 93.1876C62.1666 120.358 56.038 147.376 49.7046 175.281C79.4016 155.321 108.414 135.821 137.234 116.452C114.299 108.709 91.4381 100.99 68.3323 93.1876ZM191.858 34.5958C166.766 38.9693 142.274 43.2368 117.466 47.5598C125.916 69 134.197 90.0097 142.713 111.616C159.189 85.7909 175.339 60.4834 191.858 34.5958V34.5958ZM69.3672 87.6304C91.962 95.281 114.107 102.78 136.895 110.498C128.432 88.9924 120.26 68.2383 111.918 47.0453C97.7086 60.5961 83.712 73.9468 69.3672 87.6304ZM23.9665 119.576C15.9535 139.557 8.21291 158.858 0.332062 178.508C15.478 178.04 30.1597 177.588 45.3459 177.121C38.2162 157.932 31.2268 139.12 23.9665 119.576V119.576ZM45.8778 163.455L46.4356 163.328C51.8404 139.887 57.3227 116.607 62.8404 92.2494C50.5315 98.923 38.7901 105.287 26.7278 111.828C32.8839 128.518 39.4477 146.125 45.8778 163.455V163.455ZM182.776 30.7941C175.589 28.8083 168.401 26.8158 161.21 24.8434C150.874 22.0085 140.53 19.2089 130.201 16.3487C128.91 15.9906 127.976 15.7569 127.217 17.3795C123.566 25.1814 119.802 32.9245 116.093 40.6978C115.979 40.9382 116.003 41.2493 115.914 41.853C138.298 38.3152 160.531 34.7993 182.762 31.285L182.776 30.7941ZM141.077 13.048L199.66 29.9533C196.301 19.9672 193.185 10.7075 189.98 1.18374L141.162 12.4747L141.077 13.048V13.048ZM50.8443 184.083C43.5889 183.211 36.14 184.013 28.7814 184.146C22.7366 184.252 16.6918 184.492 10.647 184.689C10.0247 184.709 9.40414 184.84 8.78354 185.54C58.759 190.359 108.733 195.178 158.707 200L158.808 199.304C142.789 197.022 126.767 194.74 110.748 192.46C90.7853 189.617 70.8567 186.49 50.8443 184.083V184.083ZM1.32019 160.521C7.75995 144.934 14.1723 129.337 20.6378 113.762C21.2842 112.2 21.2343 111.139 19.9689 109.881C17.264 107.196 14.751 104.302 11.7947 101.094C7.79863 121.675 3.90093 141.746 0 161.816L0.436839 162.03C0.735051 161.53 1.09935 161.058 1.32019 160.521V160.521ZM128.245 8.93354C139.105 6.01118 150.123 3.72609 161.076 1.17702C161.785 1.01055 162.479 0.766741 163.177 0.558242L163.069 0C147.641 2.16403 132.214 4.32973 116.009 6.60473C120.427 8.61743 123.832 10.1206 128.245 8.93354Z" fill="#353535"/>
</svg>
