<svg width="161" height="845" viewBox="0 0 161 845" fill="none" xmlns="http://www.w3.org/2000/svg">
<rect x="8.0498" y="182.99" width="127.906" height="662" fill="#F8B300"/>
<path d="M136.403 182.49L157.422 196.99V799.99L135.956 844.99L136.403 182.49Z" fill="#F8B300"/>
<path d="M72.0029 66.4904L156.975 197.99L136.403 181.99L72.0029 66.4904Z" fill="#F8B300"/>
<path d="M73.3444 67.9904L136.863 181.24H9.82629L73.3444 67.9904Z" fill="#F8B300"/>
<line x1="8.0498" y1="182.49" x2="135.955" y2="182.49" stroke="black"/>
<line x1="8.0498" y1="844.49" x2="135.955" y2="844.49" stroke="black"/>
<line x1="8.5498" y1="182.99" x2="8.5498" y2="844.99" stroke="black"/>
<line y1="-0.125" x2="634.001" y2="-0.125" transform="matrix(-0.00141079 0.999999 -0.999998 -0.00176342 18.7832 190.99)" stroke="black" stroke-width="0.25"/>
<line y1="-0.125" x2="634.001" y2="-0.125" transform="matrix(-0.00141079 0.999999 -0.999998 -0.00176342 25.0444 190.99)" stroke="black" stroke-width="0.25"/>
<line y1="-0.125" x2="634.001" y2="-0.125" transform="matrix(-0.00141079 0.999999 -0.999998 -0.00176342 38.4609 190.99)" stroke="black" stroke-width="0.25"/>
<line y1="-0.125" x2="634.001" y2="-0.125" transform="matrix(-0.00141079 0.999999 -0.999998 -0.00176342 51.8779 190.99)" stroke="black" stroke-width="0.25"/>
<line y1="-0.125" x2="634.001" y2="-0.125" transform="matrix(-0.00141079 0.999999 -0.999998 -0.00176342 65.2944 190.99)" stroke="black" stroke-width="0.25"/>
<line y1="-0.125" x2="634.001" y2="-0.125" transform="matrix(-0.00141079 0.999999 -0.999998 -0.00176342 78.7109 190.99)" stroke="black" stroke-width="0.25"/>
<line y1="-0.125" x2="634.001" y2="-0.125" transform="matrix(-0.00141079 0.999999 -0.999998 -0.00176342 92.1279 190.99)" stroke="black" stroke-width="0.25"/>
<line y1="-0.125" x2="634.001" y2="-0.125" transform="matrix(-0.00141079 0.999999 -0.999998 -0.00176342 105.544 190.99)" stroke="black" stroke-width="0.25"/>
<line y1="-0.125" x2="634.001" y2="-0.125" transform="matrix(-0.00141079 0.999999 -0.999998 -0.00176342 118.961 190.99)" stroke="black" stroke-width="0.25"/>
<line y1="-0.125" x2="634.001" y2="-0.125" transform="matrix(-0.00141079 0.999999 -0.999998 -0.00176342 32.2002 190.99)" stroke="black" stroke-width="0.25"/>
<line y1="-0.125" x2="634.001" y2="-0.125" transform="matrix(-0.00141079 0.999999 -0.999998 -0.00176342 45.6167 190.99)" stroke="black" stroke-width="0.25"/>
<line y1="-0.125" x2="634.001" y2="-0.125" transform="matrix(-0.00141079 0.999999 -0.999998 -0.00176342 59.0332 190.99)" stroke="black" stroke-width="0.25"/>
<line y1="-0.125" x2="634.001" y2="-0.125" transform="matrix(-0.00141079 0.999999 -0.999998 -0.00176342 72.4502 190.99)" stroke="black" stroke-width="0.25"/>
<line y1="-0.125" x2="634.001" y2="-0.125" transform="matrix(-0.00141079 0.999999 -0.999998 -0.00176342 85.8667 190.99)" stroke="black" stroke-width="0.25"/>
<line y1="-0.125" x2="634.001" y2="-0.125" transform="matrix(-0.00141079 0.999999 -0.999998 -0.00176342 99.2832 190.99)" stroke="black" stroke-width="0.25"/>
<line y1="-0.125" x2="634.001" y2="-0.125" transform="matrix(-0.00141079 0.999999 -0.999998 -0.00176342 112.7 190.99)" stroke="black" stroke-width="0.25"/>
<line y1="-0.125" x2="634.001" y2="-0.125" transform="matrix(-0.00141079 0.999999 -0.999998 -0.00176342 125.222 190.99)" stroke="black" stroke-width="0.25"/>
<line y1="-0.5" x2="131.804" y2="-0.5" transform="matrix(-0.488603 0.872506 -0.819242 -0.573448 72.4502 67.9904)" stroke="black"/>
<line y1="-0.5" x2="131.37" y2="-0.5" transform="matrix(0.483412 0.875393 -0.822984 0.568065 72.4502 67.9904)" stroke="black"/>
<line y1="-0.5" x2="155.66" y2="-0.5" transform="matrix(0.540137 0.841577 -0.780017 0.625759 73.3442 66.9904)" stroke="black"/>
<line y1="-0.5" x2="26.9262" y2="-0.5" transform="matrix(0.83046 0.557079 -0.472873 0.88113 135.061 182.99)" stroke="black"/>
<line x1="157.922" y1="197.99" x2="157.922" y2="798.99" stroke="black"/>
<line y1="-0.5" x2="54.1408" y2="-0.5" transform="matrix(0.46258 -0.886577 0.837611 0.546268 135.956 844.99)" stroke="black"/>
<line x1="146.117" y1="803.991" x2="146.117" y2="197.99" stroke="black" stroke-width="0.25"/>
<line x1="140.76" y1="817.991" x2="140.76" y2="191.99" stroke="black" stroke-width="0.25"/>
<line x1="151.484" y1="791.991" x2="151.484" y2="202.99" stroke="black" stroke-width="0.25"/>
<line x1="135.561" y1="182.99" x2="135.561" y2="844.99" stroke="black"/>
<line x1="75.5278" y1="70" x2="75.5278" stroke="black"/>
</svg>
