<svg width="219" height="550" viewBox="0 0 219 550" fill="none" xmlns="http://www.w3.org/2000/svg">
<line y1="-0.5" x2="95.6997" y2="-0.5" transform="matrix(0.999963 0.00860902 -0.0105348 0.999945 113.101 1)" stroke="black"/>
<line x1="0.5" y1="549.704" x2="0.5" y2="187.197" stroke="black"/>
<line x1="22.8735" y1="21.097" x2="149.557" y2="21.097" stroke="black"/>
<path d="M22.8735 21.597H149.101L176.899 43.8418H52.9495L22.8735 21.597Z" fill="#B19EFF"/>
<path d="M22.8735 21.597L52.0381 43.8418V549.704H22.8735V21.597Z" fill="#B19EFF"/>
<rect x="52.0381" y="43.8418" width="135.797" height="505.863" fill="#B19EFF"/>
<rect x="158.671" y="199.555" width="57.4177" height="350.149" fill="#C4C4C4"/>
<rect x="29.2529" y="199.555" width="57.4177" height="350.149" fill="#B19EFF"/>
<line x1="81.291" y1="199.555" x2="81.291" y2="549.704" stroke="black" stroke-width="2"/>
<line x1="80.291" y1="200.555" x2="22.8733" y2="200.555" stroke="black" stroke-width="2"/>
<line x1="23.8735" y1="199.555" x2="23.8735" y2="549.704" stroke="black" stroke-width="2"/>
<rect x="158.671" y="199.555" width="57.4177" height="350.149" fill="#B19EFF"/>
<line x1="81.291" y1="199.555" x2="81.291" y2="549.704" stroke="black" stroke-width="2"/>
<line x1="80.291" y1="200.555" x2="22.8733" y2="200.555" stroke="black" stroke-width="2"/>
<line x1="23.8735" y1="199.555" x2="23.8735" y2="549.704" stroke="black" stroke-width="2"/>
<line x1="217.088" y1="199.555" x2="217.088" y2="549.704" stroke="black" stroke-width="2"/>
<line x1="216.088" y1="200.555" x2="158.671" y2="200.555" stroke="black" stroke-width="2"/>
<line x1="159.671" y1="199.555" x2="159.671" y2="549.704" stroke="black" stroke-width="2"/>
<line x1="53.0381" y1="43.8418" x2="53.0381" y2="199.555" stroke="black" stroke-width="2"/>
<line x1="188.835" y1="43.8418" x2="188.835" y2="199.555" stroke="black" stroke-width="2"/>
<line x1="52.0381" y1="42.8418" x2="187.836" y2="42.8418" stroke="black" stroke-width="2"/>
<path d="M113.009 1.41193H208.705L191.845 157.949H113.009V1.41193Z" fill="#F8B300"/>
<line y1="-1" x2="36.6797" y2="-1" transform="matrix(0.795114 0.60646 -0.682333 0.731041 22.8735 21.597)" stroke="black" stroke-width="2"/>
<line x1="23.3735" y1="21.597" x2="23.3735" y2="199.555" stroke="black"/>
<line y1="-0.5" x2="156.548" y2="-0.5" transform="matrix(0.0116436 0.999932 -0.999955 0.00951515 110.367 1)" stroke="black"/>
<line x1="112.19" y1="157.037" x2="188.747" y2="157.037" stroke="black"/>
<line y1="-0.5" x2="156.885" y2="-0.5" transform="matrix(-0.121995 0.992531 -0.994993 -0.0999394 207.886 1.82385)" stroke="black"/>
<rect x="164.139" y="122.11" width="13.6709" height="49.4328" fill="#FF795B"/>
<line y1="-0.5" x2="49.4412" y2="-0.5" transform="matrix(0.0184339 0.99983 -0.99948 0.032249 164.139 122.11)" stroke="black"/>
<line x1="165.051" y1="121.61" x2="177.81" y2="121.61" stroke="black"/>
<line x1="178.31" y1="122.11" x2="178.31" y2="171.543" stroke="black"/>
<line x1="165.051" y1="171.043" x2="177.81" y2="171.043" stroke="black"/>
<path d="M1 187.609H55.6835L80.2911 200.379H22.8734L1 187.609Z" fill="#B19EFF"/>
<path d="M137.709 187.197H192.393L217 199.967H159.582L137.709 187.197Z" fill="#B19EFF"/>
<path d="M1.4557 186.785L22.8734 200.379V549.705H1L1.4557 186.785Z" fill="#B19EFF"/>
<path d="M137.253 186.785L158.671 200.379V549.705H136.797L137.253 186.785Z" fill="#B19EFF"/>
<line y1="-0.5" x2="25.5385" y2="-0.5" transform="matrix(0.856489 0.516166 -0.593531 0.804811 1 187.197)" stroke="black"/>
<line x1="1" y1="186.697" x2="56.5949" y2="186.697" stroke="black"/>
<line y1="-0.5" x2="27.5259" y2="-0.5" transform="matrix(0.860868 0.508828 -0.586063 0.810266 56.5947 186.373)" stroke="black"/>
<line y1="-0.5" x2="26.3233" y2="-0.5" transform="matrix(0.865576 0.500777 -0.577825 0.81616 137.709 187.197)" stroke="black"/>
<line y1="-0.5" x2="55.6009" y2="-0.5" transform="matrix(0.999883 0.0153199 -0.0187462 0.999824 137.709 186.373)" stroke="black"/>
<line y1="-0.5" x2="26.7252" y2="-0.5" transform="matrix(0.886662 0.462418 -0.537979 0.842958 193.304 187.197)" stroke="black"/>
<line y1="-0.5" x2="363.332" y2="-0.5" transform="matrix(-0.00250843 0.999997 -0.999998 -0.00204984 137.709 186.373)" stroke="black"/>
<line x1="34.7217" y1="225.039" x2="69.3546" y2="225.039" stroke="#F9D0D0" stroke-width="10"/>
<line x1="30.1646" y1="212.709" x2="73.9114" y2="212.709" stroke="#F9D0D0" stroke-width="5"/>
<line x1="34.7217" y1="251.403" x2="69.3546" y2="251.403" stroke="#F9D0D0" stroke-width="10"/>
<line x1="29.2529" y1="239.897" x2="72.9998" y2="239.897" stroke="#F9D0D0" stroke-width="5"/>
<line x1="33.8101" y1="279.415" x2="68.443" y2="279.415" stroke="#F9D0D0" stroke-width="10"/>
<line x1="29.2529" y1="267.085" x2="72.9998" y2="267.085" stroke="#F9D0D0" stroke-width="5"/>
<line x1="33.8101" y1="305.779" x2="68.443" y2="305.779" stroke="#F9D0D0" stroke-width="10"/>
<line x1="28.3418" y1="294.273" x2="72.0886" y2="294.273" stroke="#F9D0D0" stroke-width="5"/>
<line x1="35.6328" y1="333.791" x2="70.2657" y2="333.791" stroke="#F9D0D0" stroke-width="10"/>
<line x1="31.0762" y1="321.461" x2="74.823" y2="321.461" stroke="#F9D0D0" stroke-width="5"/>
<line x1="35.6328" y1="360.155" x2="70.2657" y2="360.155" stroke="#F9D0D0" stroke-width="10"/>
<line x1="30.1646" y1="348.649" x2="73.9114" y2="348.649" stroke="#F9D0D0" stroke-width="5"/>
<line x1="36.5444" y1="387.343" x2="71.1773" y2="387.343" stroke="#F9D0D0" stroke-width="10"/>
<line x1="31.9873" y1="375.013" x2="75.7341" y2="375.013" stroke="#F9D0D0" stroke-width="5"/>
<line x1="36.5444" y1="413.707" x2="71.1773" y2="413.707" stroke="#F9D0D0" stroke-width="10"/>
<line x1="31.0762" y1="402.202" x2="74.823" y2="402.202" stroke="#F9D0D0" stroke-width="5"/>
<line x1="37.4556" y1="440.896" x2="72.0885" y2="440.896" stroke="#F9D0D0" stroke-width="10"/>
<line x1="32.8989" y1="428.566" x2="76.6458" y2="428.566" stroke="#F9D0D0" stroke-width="5"/>
<line x1="37.4556" y1="467.26" x2="72.0885" y2="467.26" stroke="#F9D0D0" stroke-width="10"/>
<line x1="31.9873" y1="455.754" x2="75.7341" y2="455.754" stroke="#F9D0D0" stroke-width="5"/>
<line x1="38.3672" y1="494.448" x2="73.0001" y2="494.448" stroke="#F9D0D0" stroke-width="10"/>
<line x1="33.8101" y1="482.118" x2="77.5569" y2="482.118" stroke="#F9D0D0" stroke-width="5"/>
<line x1="38.3672" y1="520.812" x2="73.0001" y2="520.812" stroke="#F9D0D0" stroke-width="10"/>
<line x1="32.8989" y1="509.306" x2="76.6458" y2="509.306" stroke="#F9D0D0" stroke-width="5"/>
<line x1="34.7217" y1="535.67" x2="78.4685" y2="535.67" stroke="#F9D0D0" stroke-width="5"/>
<line x1="173.253" y1="225.039" x2="207.886" y2="225.039" stroke="#F9D0D0" stroke-width="10"/>
<line x1="168.696" y1="212.709" x2="212.443" y2="212.709" stroke="#F9D0D0" stroke-width="5"/>
<line x1="173.253" y1="251.403" x2="207.886" y2="251.403" stroke="#F9D0D0" stroke-width="10"/>
<line x1="167.785" y1="239.897" x2="211.531" y2="239.897" stroke="#F9D0D0" stroke-width="5"/>
<line x1="172.342" y1="279.415" x2="206.975" y2="279.415" stroke="#F9D0D0" stroke-width="10"/>
<line x1="167.785" y1="267.085" x2="211.531" y2="267.085" stroke="#F9D0D0" stroke-width="5"/>
<line x1="172.342" y1="305.779" x2="206.975" y2="305.779" stroke="#F9D0D0" stroke-width="10"/>
<line x1="166.874" y1="294.273" x2="210.62" y2="294.273" stroke="#F9D0D0" stroke-width="5"/>
<line x1="174.165" y1="333.791" x2="208.797" y2="333.791" stroke="#F9D0D0" stroke-width="10"/>
<line x1="169.607" y1="321.461" x2="213.354" y2="321.461" stroke="#F9D0D0" stroke-width="5"/>
<line x1="174.165" y1="360.155" x2="208.797" y2="360.155" stroke="#F9D0D0" stroke-width="10"/>
<line x1="168.696" y1="348.649" x2="212.443" y2="348.649" stroke="#F9D0D0" stroke-width="5"/>
<line x1="175.076" y1="387.343" x2="209.709" y2="387.343" stroke="#F9D0D0" stroke-width="10"/>
<line x1="167.785" y1="375.013" x2="211.531" y2="375.013" stroke="#F9D0D0" stroke-width="5"/>
<line x1="171.43" y1="413.707" x2="206.063" y2="413.707" stroke="#F9D0D0" stroke-width="10"/>
<line x1="164.139" y1="402.202" x2="207.886" y2="402.202" stroke="#F9D0D0" stroke-width="5"/>
<line x1="172.342" y1="440.896" x2="206.975" y2="440.896" stroke="#F9D0D0" stroke-width="10"/>
<line x1="166.874" y1="428.566" x2="210.62" y2="428.566" stroke="#F9D0D0" stroke-width="5"/>
<line x1="175.987" y1="467.26" x2="210.62" y2="467.26" stroke="#F9D0D0" stroke-width="10"/>
<line x1="166.874" y1="455.754" x2="210.62" y2="455.754" stroke="#F9D0D0" stroke-width="5"/>
<line x1="176.899" y1="494.448" x2="211.532" y2="494.448" stroke="#F9D0D0" stroke-width="10"/>
<line x1="172.342" y1="482.118" x2="216.089" y2="482.118" stroke="#F9D0D0" stroke-width="5"/>
<line x1="176.899" y1="520.812" x2="211.532" y2="520.812" stroke="#F9D0D0" stroke-width="10"/>
<line x1="171.43" y1="509.306" x2="215.177" y2="509.306" stroke="#F9D0D0" stroke-width="5"/>
<line x1="168.696" y1="535.67" x2="212.443" y2="535.67" stroke="#F9D0D0" stroke-width="5"/>
<path d="M87.3047 176.531L86.4609 176.191V173.309L87.3047 172.969V176.531ZM88.9922 177.188L88.1484 176.859V172.652L88.9922 172.289V177.188ZM90.6797 177.844L89.8359 177.516V171.984L90.6797 171.633V177.844ZM93 184.699V185.613L73.5938 177.938V177.023L93 169.359V170.262L74.7305 177.48L93 184.699ZM76.7344 177.375L77.8125 176.895L93 182.895V183.797L76.7344 177.375ZM78.9609 176.438L80.1211 175.992L93 181.066V181.98L78.9609 176.438ZM81.2812 175.547L82.4648 175.102L93 179.262V180.164L81.2812 175.547ZM93 163.91V164.824L73.5938 172.488V171.586L93 163.91ZM73.5938 173.402L93 165.727V166.629L73.5938 174.305V173.402ZM73.5938 175.219L93 167.543V168.457L73.5938 176.121V175.219ZM84.4688 149.215L84.457 149.238C83.5977 148.355 82.5508 147.914 81.3164 147.914C80.1445 147.914 79.1289 148.352 78.2695 149.227C77.4023 150.094 76.9688 151.121 76.9688 152.309V161.59H93V162.434H76.125V152.309C76.125 151.387 76.3633 150.523 76.8398 149.719C77.3086 148.906 77.9453 148.262 78.75 147.785C79.5469 147.309 80.4023 147.07 81.3164 147.07C82.5664 147.07 83.6406 147.406 84.5391 148.078C85.4688 147.406 86.4922 147.07 87.6094 147.07C88.6797 147.07 89.625 147.312 90.4453 147.797C91.2578 148.281 91.8711 148.918 92.2852 149.707C92.6992 150.488 92.9062 151.355 92.9062 152.309V157.641H92.0625V152.309C92.0625 151.105 91.6367 150.074 90.7852 149.215C89.9258 148.348 88.8672 147.914 87.6094 147.914C87.0312 147.914 86.4609 148.039 85.8984 148.289C85.3359 148.539 84.8633 148.852 84.4805 149.227C84.4727 149.227 84.4688 149.223 84.4688 149.215ZM88.6875 152.309V157.641H89.5312V152.309C89.5312 151.793 89.3594 151.355 89.0156 150.996C88.6641 150.629 88.1953 150.445 87.6094 150.445C87.1016 150.445 86.6562 150.633 86.2734 151.008C85.8828 151.383 85.6875 151.816 85.6875 152.309V157.652H86.5312V152.309C86.5312 152.043 86.6406 151.809 86.8594 151.605C87.0781 151.395 87.3281 151.289 87.6094 151.289C87.9531 151.289 88.2188 151.387 88.4062 151.582C88.5938 151.777 88.6875 152.02 88.6875 152.309ZM90.375 152.309V157.641H91.2188V152.309C91.2188 151.34 90.875 150.508 90.1875 149.812C89.4922 149.109 88.6328 148.758 87.6094 148.758C86.9609 148.758 86.3516 148.934 85.7812 149.285C85.2031 149.629 84.7578 150.086 84.4453 150.656C84.1484 150.086 83.7266 149.629 83.1797 149.285C82.625 148.934 82.0039 148.758 81.3164 148.758C80.3789 148.758 79.5625 149.113 78.8672 149.824C78.1641 150.527 77.8125 151.355 77.8125 152.309V160.746H93V159.902H78.6562V152.309C78.6562 151.59 78.9258 150.961 79.4648 150.422C79.9961 149.875 80.6133 149.602 81.3164 149.602C82.0977 149.602 82.7422 149.867 83.25 150.398C83.75 150.93 84 151.566 84 152.309V154.887V157.641H84.8438V154.887V152.309C84.8438 151.59 85.1211 150.961 85.6758 150.422C86.2305 149.875 86.875 149.602 87.6094 149.602C88.4219 149.602 89.0859 149.867 89.6016 150.398C90.1172 150.93 90.375 151.566 90.375 152.309ZM82.3125 152.309V157.641H83.1562V152.309C83.1562 151.785 82.9922 151.344 82.6641 150.984C82.3281 150.625 81.8789 150.445 81.3164 150.445C80.8398 150.445 80.418 150.633 80.0508 151.008C79.6836 151.383 79.5 151.816 79.5 152.309V159.059H93V158.215H80.3438V152.309C80.3438 152.043 80.4453 151.809 80.6484 151.605C80.8438 151.395 81.0664 151.289 81.3164 151.289C81.6367 151.289 81.8828 151.387 82.0547 151.582C82.2266 151.777 82.3125 152.02 82.3125 152.309ZM82.1836 138.691C82.8398 139.348 83.6328 139.676 84.5625 139.676C85.4922 139.676 86.2891 139.348 86.9531 138.691C87.6094 138.027 87.9375 137.23 87.9375 136.301C87.9375 135.371 87.6094 134.578 86.9531 133.922C86.2891 133.258 85.4922 132.926 84.5625 132.926C83.6328 132.926 82.8398 133.258 82.1836 133.922C81.5195 134.578 81.1875 135.371 81.1875 136.301C81.1875 137.23 81.5195 138.027 82.1836 138.691ZM87.5508 139.289C86.7227 140.109 85.7266 140.52 84.5625 140.52C83.3984 140.52 82.4062 140.109 81.5859 139.289C80.7578 138.461 80.3438 137.465 80.3438 136.301C80.3438 135.137 80.7578 134.145 81.5859 133.324C82.4062 132.496 83.3984 132.082 84.5625 132.082C85.7266 132.082 86.7227 132.496 87.5508 133.324C88.3711 134.145 88.7812 135.137 88.7812 136.301C88.7812 137.465 88.3711 138.461 87.5508 139.289ZM80.9883 139.887C81.9805 140.871 83.1719 141.363 84.5625 141.363C85.9531 141.363 87.1445 140.871 88.1367 139.887C89.1289 138.895 89.625 137.699 89.625 136.301C89.625 134.902 89.1289 133.711 88.1367 132.727C87.1445 131.734 85.9531 131.238 84.5625 131.238C83.1719 131.238 81.9805 131.734 80.9883 132.727C79.9961 133.711 79.5 134.902 79.5 136.301C79.5 137.699 79.9961 138.895 80.9883 139.887ZM87.5273 141.422C86.6211 141.945 85.6328 142.207 84.5625 142.207C83.4922 142.207 82.5039 141.945 81.5977 141.422C80.6914 140.891 79.9766 140.172 79.4531 139.266C78.9219 138.359 78.6562 137.371 78.6562 136.301C78.6562 135.23 78.9219 134.242 79.4531 133.336C79.9766 132.43 80.6914 131.715 81.5977 131.191C82.5039 130.66 83.4922 130.395 84.5625 130.395C85.6328 130.395 86.6211 130.66 87.5273 131.191C88.4336 131.715 89.1523 132.43 89.6836 133.336C90.207 134.242 90.4688 135.23 90.4688 136.301C90.4688 137.371 90.207 138.359 89.6836 139.266C89.1523 140.172 88.4336 140.891 87.5273 141.422ZM81.9492 142.523C82.7773 142.875 83.6484 143.051 84.5625 143.051C85.4766 143.051 86.3516 142.875 87.1875 142.523C88.0156 142.164 88.7344 141.684 89.3438 141.082C89.9453 140.473 90.4258 139.754 90.7852 138.926C91.1367 138.09 91.3125 137.215 91.3125 136.301C91.3125 135.387 91.1367 134.516 90.7852 133.688C90.4258 132.852 89.9453 132.133 89.3438 131.531C88.7344 130.922 88.0156 130.441 87.1875 130.09C86.3516 129.73 85.4766 129.551 84.5625 129.551C83.6484 129.551 82.7773 129.73 81.9492 130.09C81.1133 130.441 80.3945 130.922 79.793 131.531C79.1836 132.133 78.7031 132.852 78.3516 133.688C77.9922 134.516 77.8125 135.387 77.8125 136.301C77.8125 137.215 77.9922 138.09 78.3516 138.926C78.7031 139.754 79.1836 140.473 79.793 141.082C80.3945 141.684 81.1133 142.164 81.9492 142.523ZM87.5156 143.297C86.5781 143.695 85.5938 143.895 84.5625 143.895C83.5312 143.895 82.5469 143.695 81.6094 143.297C80.6719 142.891 79.8672 142.352 79.1953 141.68C78.5156 141 77.9766 140.191 77.5781 139.254C77.1719 138.316 76.9688 137.332 76.9688 136.301C76.9688 135.27 77.1719 134.285 77.5781 133.348C77.9766 132.41 78.5156 131.605 79.1953 130.934C79.8672 130.254 80.6719 129.715 81.6094 129.316C82.5469 128.91 83.5312 128.707 84.5625 128.707C85.5938 128.707 86.5781 128.91 87.5156 129.316C88.4531 129.715 89.2617 130.254 89.9414 130.934C90.6133 131.605 91.1523 132.41 91.5586 133.348C91.957 134.285 92.1562 135.27 92.1562 136.301C92.1562 137.332 91.957 138.316 91.5586 139.254C91.1523 140.191 90.6133 141 89.9414 141.68C89.2617 142.352 88.4531 142.891 87.5156 143.297ZM81.293 144.07C82.332 144.516 83.4219 144.738 84.5625 144.738C85.7031 144.738 86.7969 144.516 87.8438 144.07C88.8828 143.625 89.7812 143.027 90.5391 142.277C91.2891 141.52 91.8867 140.621 92.332 139.582C92.7773 138.535 93 137.441 93 136.301C93 135.16 92.7773 134.07 92.332 133.031C91.8867 131.984 91.2891 131.086 90.5391 130.336C89.7812 129.578 88.8828 128.977 87.8438 128.531C86.7969 128.086 85.7031 127.863 84.5625 127.863C83.4219 127.863 82.332 128.086 81.293 128.531C80.2461 128.977 79.3477 129.578 78.5977 130.336C77.8398 131.086 77.2383 131.984 76.793 133.031C76.3477 134.07 76.125 135.16 76.125 136.301C76.125 137.441 76.3477 138.535 76.793 139.582C77.2383 140.621 77.8398 141.52 78.5977 142.277C79.3477 143.027 80.2461 143.625 81.293 144.07ZM88.1719 144.844C87.0234 145.336 85.8203 145.582 84.5625 145.582C83.3047 145.582 82.1055 145.336 80.9648 144.844C79.8164 144.352 78.8281 143.691 78 142.863C77.1719 142.035 76.5117 141.051 76.0195 139.91C75.5273 138.762 75.2812 137.559 75.2812 136.301C75.2812 135.043 75.5273 133.844 76.0195 132.703C76.5117 131.555 77.1719 130.566 78 129.738C78.8281 128.91 79.8164 128.25 80.9648 127.758C82.1055 127.266 83.3047 127.02 84.5625 127.02C85.8203 127.02 87.0234 127.266 88.1719 127.758C89.3125 128.25 90.2969 128.91 91.125 129.738C91.9531 130.566 92.6133 131.555 93.1055 132.703C93.5977 133.844 93.8438 135.043 93.8438 136.301C93.8438 137.559 93.5977 138.762 93.1055 139.91C92.6133 141.051 91.9531 142.035 91.125 142.863C90.2969 143.691 89.3125 144.352 88.1719 144.844ZM85.5234 114.047H76.125V113.203H85.5234C86.4141 113.203 87.1797 113.547 87.8203 114.234C88.4609 114.914 88.7812 115.734 88.7812 116.695C88.7812 117.656 88.4609 118.48 87.8203 119.168C87.1797 119.848 86.4141 120.188 85.5234 120.188H76.125V119.344H85.5234C86.1875 119.344 86.7578 119.086 87.2344 118.57C87.7031 118.047 87.9375 117.422 87.9375 116.695C87.9375 115.969 87.7031 115.348 87.2344 114.832C86.7578 114.309 86.1875 114.047 85.5234 114.047ZM85.5234 112.359H76.125V111.516H85.5234C86.8906 111.516 88.0586 112.023 89.0273 113.039C89.9883 114.055 90.4688 115.273 90.4688 116.695C90.4688 118.117 89.9883 119.336 89.0273 120.352C88.0586 121.367 86.8906 121.875 85.5234 121.875H76.125V121.031H85.5234C86.6562 121.031 87.625 120.609 88.4297 119.766C89.2266 118.914 89.625 117.891 89.625 116.695C89.625 115.508 89.2266 114.488 88.4297 113.637C87.625 112.785 86.6562 112.359 85.5234 112.359ZM85.5234 110.672H76.125V109.828H85.5234C86.7188 109.828 87.8281 110.137 88.8516 110.754C89.8672 111.371 90.6719 112.207 91.2656 113.262C91.8594 114.316 92.1562 115.461 92.1562 116.695C92.1562 117.93 91.8594 119.074 91.2656 120.129C90.6719 121.184 89.8672 122.02 88.8516 122.637C87.8281 123.254 86.7188 123.562 85.5234 123.562H76.125V122.719H85.5234C86.5625 122.719 87.5273 122.449 88.418 121.91C89.3086 121.371 90.0156 120.641 90.5391 119.719C91.0547 118.789 91.3125 117.781 91.3125 116.695C91.3125 115.609 91.0547 114.605 90.5391 113.684C90.0156 112.754 89.3086 112.02 88.418 111.48C87.5273 110.941 86.5625 110.672 85.5234 110.672ZM85.5234 108.984H76.125V108.141H85.5234C86.6484 108.141 87.7266 108.367 88.7578 108.82C89.7812 109.273 90.6641 109.883 91.4062 110.648C92.1484 111.414 92.7383 112.324 93.1758 113.379C93.6211 114.434 93.8438 115.539 93.8438 116.695C93.8438 117.852 93.6211 118.957 93.1758 120.012C92.7383 121.066 92.1484 121.977 91.4062 122.742C90.6641 123.508 89.7812 124.117 88.7578 124.57C87.7266 125.023 86.6484 125.25 85.5234 125.25H76.125V124.406H85.5234C86.8672 124.406 88.1133 124.062 89.2617 123.375C90.4102 122.68 91.3203 121.742 91.9922 120.562C92.6641 119.375 93 118.086 93 116.695C93 115.305 92.6641 114.02 91.9922 112.84C91.3203 111.652 90.4102 110.715 89.2617 110.027C88.1133 109.332 86.8672 108.984 85.5234 108.984ZM80.8008 103.031V102.188H93V103.031H80.8008ZM76.9688 106.406H76.125V93.75H76.9688V106.406ZM78.6562 106.406H77.8125V93.75H78.6562V106.406ZM80.3438 106.406H79.5V93.75H80.3438V106.406ZM80.8008 97.9688V97.125H93V97.9688H80.8008ZM80.8008 99.6562V98.8125H93V99.6562H80.8008ZM80.8008 101.344V100.5H93V101.344H80.8008ZM85.9219 75.3164L84.3281 74.4727H93V75.3164H85.9219ZM82.6875 73.6289L81.0938 72.7852H93V73.6289H82.6875ZM79.5 71.9414L77.8945 71.0977H93V71.9414H79.5ZM85.5234 77.6016L84.6445 78.082L73.5938 72.2695V71.3203L85.5234 77.6016ZM83.6836 78.5742L82.793 79.0664L73.5938 74.1914V73.2305L83.6836 78.5742ZM84.4219 84.2227L86.0156 83.3789H93V84.2227H84.4219ZM81.2109 85.9102L82.8047 85.0664H93V85.9102H81.2109ZM78 87.5977L79.6055 86.7539H93V87.5977H78ZM87.9375 80.7773V81.7266L75.1992 88.4414H93V89.2852H73.5938V88.3359L87.9375 80.7773ZM87.9375 78.8672V79.8281L73.5938 87.375V86.4141L87.9375 78.8672ZM75.1992 70.2539L87.9375 76.9688V77.9297L73.5938 85.4648V84.5156L87.0469 77.4375L73.5938 70.3711V69.4102H93V70.2539H75.1992ZM93 62.9648V63.8086H76.125V62.9648H93ZM93 64.6523V65.4961H76.125V64.6523H93ZM93 66.3398V67.1836H76.125V66.3398H93ZM88.7812 61.2773V53.2031H89.625V61.2773H90.4688V53.2031H91.3125V61.2773H92.1562V53.2031H93V62.1211H76.125V53.2031H76.9688V61.2773H77.8125V53.2031H78.6562V61.2773H79.5V53.2031H80.3438V61.2773H82.4414V53.6719H83.2852V61.2773H84.1289V53.6719H84.9727V61.2773H85.8164V53.6719H86.6602V61.2773H88.7812Z" fill="black"/>
</svg>
