<svg width="203" height="268" viewBox="0 0 203 268" fill="none" xmlns="http://www.w3.org/2000/svg">
<rect x="1.6543" y="9.78104" width="153.485" height="255.611" fill="#A7C9D3"/>
<rect x="21.459" y="59.3382" width="14.8534" height="20.8662" fill="#FF795B"/>
<rect x="21.459" y="59.3382" width="14.8534" height="20.8662" fill="#FF795B"/>
<rect x="21.459" y="59.3382" width="14.8534" height="20.8662" fill="#FF795B"/>
<rect x="120.481" y="59.3382" width="14.8534" height="20.8662" fill="#FF795B"/>
<rect x="120.481" y="59.3382" width="14.8534" height="20.8662" fill="#FF795B"/>
<rect x="120.481" y="59.3382" width="14.8534" height="20.8662" fill="#FF795B"/>
<rect x="21.459" y="90.6375" width="14.8534" height="20.8662" fill="#FF795B"/>
<rect x="21.459" y="90.6375" width="14.8534" height="20.8662" fill="#FF795B"/>
<rect x="21.459" y="90.6375" width="14.8534" height="20.8662" fill="#FF795B"/>
<rect x="46.2144" y="90.6375" width="14.8534" height="20.8662" fill="#FF795B"/>
<rect x="46.2144" y="90.6375" width="14.8534" height="20.8662" fill="#FF795B"/>
<rect x="46.2144" y="90.6375" width="14.8534" height="20.8662" fill="#FF795B"/>
<rect x="46.2144" y="90.6375" width="14.8534" height="20.8662" fill="#FF795B"/>
<rect x="46.2144" y="90.6375" width="14.8534" height="20.8662" fill="#FF795B"/>
<rect x="46.2144" y="90.6375" width="14.8534" height="20.8662" fill="#FF795B"/>
<rect x="71.9727" y="59.7769" width="14.8534" height="20.8662" fill="#FF795B"/>
<rect x="71.9727" y="59.7769" width="14.8534" height="20.8662" fill="#FF795B"/>
<rect x="71.9727" y="59.7769" width="14.8534" height="20.8662" fill="#FF795B"/>
<rect x="95.9639" y="59.7769" width="14.8534" height="20.8662" fill="#FF795B"/>
<rect x="95.9639" y="59.7769" width="14.8534" height="20.8662" fill="#FF795B"/>
<rect x="95.9639" y="59.7769" width="14.8534" height="20.8662" fill="#FF795B"/>
<rect x="47.0591" y="59.7769" width="14.8534" height="20.8662" fill="#FF795B"/>
<rect x="47.0591" y="59.7769" width="14.8534" height="20.8662" fill="#FF795B"/>
<rect x="47.0591" y="59.7769" width="14.8534" height="20.8662" fill="#FF795B"/>
<rect x="70.9702" y="90.6375" width="14.8534" height="20.8662" fill="#FF795B"/>
<rect x="70.9702" y="90.6375" width="14.8534" height="20.8662" fill="#FF795B"/>
<rect x="70.9702" y="90.6375" width="14.8534" height="20.8662" fill="#FF795B"/>
<rect x="95.7261" y="90.6375" width="14.8534" height="20.8662" fill="#FF795B"/>
<rect x="95.7261" y="90.6375" width="14.8534" height="20.8662" fill="#FF795B"/>
<rect x="95.7261" y="90.6375" width="14.8534" height="20.8662" fill="#FF795B"/>
<rect x="120.481" y="90.6375" width="14.8534" height="20.8662" fill="#FF795B"/>
<rect x="120.481" y="90.6375" width="14.8534" height="20.8662" fill="#FF795B"/>
<rect x="120.481" y="90.6375" width="14.8534" height="20.8662" fill="#FF795B"/>
<rect x="21.459" y="121.937" width="14.8534" height="20.8662" fill="#FF795B"/>
<rect x="21.459" y="121.937" width="14.8534" height="20.8662" fill="#FF795B"/>
<rect x="21.459" y="121.937" width="14.8534" height="20.8662" fill="#FF795B"/>
<rect x="46.2144" y="121.937" width="14.8534" height="20.8662" fill="#FF795B"/>
<rect x="46.2144" y="121.937" width="14.8534" height="20.8662" fill="#FF795B"/>
<rect x="46.2144" y="121.937" width="14.8534" height="20.8662" fill="#FF795B"/>
<rect x="70.9702" y="121.937" width="14.8534" height="20.8662" fill="#FF795B"/>
<rect x="70.9702" y="121.937" width="14.8534" height="20.8662" fill="#FF795B"/>
<rect x="70.9702" y="121.937" width="14.8534" height="20.8662" fill="#FF795B"/>
<rect x="95.7261" y="121.937" width="14.8534" height="20.8662" fill="#FF795B"/>
<rect x="95.7261" y="121.937" width="14.8534" height="20.8662" fill="#FF795B"/>
<rect x="95.7261" y="121.937" width="14.8534" height="20.8662" fill="#FF795B"/>
<rect x="120.481" y="121.937" width="14.8534" height="20.8662" fill="#FF795B"/>
<rect x="120.481" y="121.937" width="14.8534" height="20.8662" fill="#FF795B"/>
<rect x="120.481" y="121.937" width="14.8534" height="20.8662" fill="#FF795B"/>
<rect x="21.459" y="153.236" width="14.8534" height="20.8662" fill="#FF795B"/>
<rect x="21.459" y="153.236" width="14.8534" height="20.8662" fill="#FF795B"/>
<rect x="21.459" y="153.236" width="14.8534" height="20.8662" fill="#FF795B"/>
<rect x="46.2144" y="153.236" width="14.8534" height="20.8662" fill="#FF795B"/>
<rect x="46.2144" y="153.236" width="14.8534" height="20.8662" fill="#FF795B"/>
<rect x="46.2144" y="153.236" width="14.8534" height="20.8662" fill="#FF795B"/>
<rect x="70.9702" y="153.236" width="14.8534" height="20.8662" fill="#FF795B"/>
<rect x="70.9702" y="153.236" width="14.8534" height="20.8662" fill="#FF795B"/>
<rect x="70.9702" y="153.236" width="14.8534" height="20.8662" fill="#FF795B"/>
<rect x="95.7261" y="153.236" width="14.8534" height="20.8662" fill="#FF795B"/>
<rect x="95.7261" y="153.236" width="14.8534" height="20.8662" fill="#FF795B"/>
<rect x="95.7261" y="153.236" width="14.8534" height="20.8662" fill="#FF795B"/>
<rect x="120.481" y="153.236" width="14.8534" height="20.8662" fill="#FF795B"/>
<rect x="120.481" y="153.236" width="14.8534" height="20.8662" fill="#FF795B"/>
<rect x="120.481" y="153.236" width="14.8534" height="20.8662" fill="#FF795B"/>
<rect x="21.459" y="184.535" width="14.8534" height="20.8662" fill="#FF795B"/>
<rect x="21.459" y="184.535" width="14.8534" height="20.8662" fill="#FF795B"/>
<rect x="21.459" y="184.535" width="14.8534" height="20.8662" fill="#FF795B"/>
<rect x="46.2144" y="184.535" width="14.8534" height="20.8662" fill="#FF795B"/>
<rect x="46.2144" y="184.535" width="14.8534" height="20.8662" fill="#FF795B"/>
<rect x="46.2144" y="184.535" width="14.8534" height="20.8662" fill="#FF795B"/>
<rect x="70.9702" y="184.535" width="14.8534" height="20.8662" fill="#FF795B"/>
<rect x="70.9702" y="184.535" width="14.8534" height="20.8662" fill="#FF795B"/>
<rect x="70.9702" y="184.535" width="14.8534" height="20.8662" fill="#FF795B"/>
<rect x="95.7261" y="184.535" width="14.8534" height="20.8662" fill="#FF795B"/>
<rect x="95.7261" y="184.535" width="14.8534" height="20.8662" fill="#FF795B"/>
<rect x="95.7261" y="184.535" width="14.8534" height="20.8662" fill="#FF795B"/>
<rect x="120.481" y="184.535" width="14.8534" height="20.8662" fill="#FF795B"/>
<rect x="120.481" y="184.535" width="14.8534" height="20.8662" fill="#FF795B"/>
<rect x="120.481" y="184.535" width="14.8534" height="20.8662" fill="#FF795B"/>
<rect x="21.459" y="215.835" width="14.8534" height="20.8662" fill="#FF795B"/>
<rect x="21.459" y="215.835" width="14.8534" height="20.8662" fill="#FF795B"/>
<rect x="21.459" y="215.835" width="14.8534" height="20.8662" fill="#FF795B"/>
<rect x="46.2144" y="215.835" width="14.8534" height="20.8662" fill="#FF795B"/>
<rect x="46.2144" y="215.835" width="14.8534" height="20.8662" fill="#FF795B"/>
<rect x="46.2144" y="215.835" width="14.8534" height="20.8662" fill="#FF795B"/>
<rect x="70.9702" y="215.835" width="14.8534" height="20.8662" fill="#FF795B"/>
<rect x="70.9702" y="215.835" width="14.8534" height="20.8662" fill="#FF795B"/>
<rect x="70.9702" y="215.835" width="14.8534" height="20.8662" fill="#FF795B"/>
<rect x="95.7261" y="215.835" width="14.8534" height="20.8662" fill="#FF795B"/>
<rect x="95.7261" y="215.835" width="14.8534" height="20.8662" fill="#FF795B"/>
<rect x="95.7261" y="215.835" width="14.8534" height="20.8662" fill="#FF795B"/>
<rect x="120.481" y="215.835" width="14.8534" height="20.8662" fill="#FF795B"/>
<rect x="120.481" y="215.835" width="14.8534" height="20.8662" fill="#FF795B"/>
<rect x="120.481" y="215.835" width="14.8534" height="20.8662" fill="#FF795B"/>
<rect x="21.459" y="247.134" width="14.8534" height="20.8662" fill="#FF795B"/>
<rect x="21.459" y="247.134" width="14.8534" height="20.8662" fill="#FF795B"/>
<rect x="21.459" y="247.134" width="14.8534" height="20.8662" fill="#FF795B"/>
<rect x="46.2144" y="247.134" width="14.8534" height="20.8662" fill="#FF795B"/>
<rect x="46.2144" y="247.134" width="14.8534" height="20.8662" fill="#FF795B"/>
<rect x="46.2144" y="247.134" width="14.8534" height="20.8662" fill="#FF795B"/>
<rect x="70.9702" y="247.134" width="14.8534" height="20.8662" fill="#FF795B"/>
<rect x="70.9702" y="247.134" width="14.8534" height="20.8662" fill="#FF795B"/>
<rect x="70.9702" y="247.134" width="14.8534" height="20.8662" fill="#FF795B"/>
<rect x="95.7261" y="247.134" width="14.8534" height="20.8662" fill="#FF795B"/>
<rect x="95.7261" y="247.134" width="14.8534" height="20.8662" fill="#FF795B"/>
<rect x="95.7261" y="247.134" width="14.8534" height="20.8662" fill="#FF795B"/>
<path d="M153.489 10.4331L201.35 3.91245V265.392H155.14L153.489 10.4331Z" fill="#A7C9D3"/>
<path d="M163.392 26.0828L169.993 24.7786V45.6448L163.392 46.9489V26.0828Z" fill="#FF795B"/>
<path d="M163.392 26.0828L169.993 24.7786V45.6448L163.392 46.9489V26.0828Z" fill="#FF795B"/>
<path d="M163.392 26.0828L169.993 24.7786V45.6448L163.392 46.9489V26.0828Z" fill="#FF795B"/>
<path d="M174.944 22.1703L181.546 20.8662V41.7324L174.944 43.0365V22.1703Z" fill="#FF795B"/>
<path d="M174.944 22.1703L181.546 20.8662V41.7324L174.944 43.0365V22.1703Z" fill="#FF795B"/>
<path d="M174.944 22.1703L181.546 20.8662V41.7324L174.944 43.0365V22.1703Z" fill="#FF795B"/>
<path d="M187.322 18.91L193.924 17.6059V38.472L187.322 39.7762V18.91Z" fill="#FF795B"/>
<path d="M187.322 18.91L193.924 17.6059V38.472L187.322 39.7762V18.91Z" fill="#FF795B"/>
<path d="M187.322 18.91L193.924 17.6059V38.472L187.322 39.7762V18.91Z" fill="#FF795B"/>
<path d="M161.741 57.382L168.343 56.0779V76.9441L161.741 78.2482V57.382Z" fill="#FF795B"/>
<path d="M161.741 57.382L168.343 56.0779V76.9441L161.741 78.2482V57.382Z" fill="#FF795B"/>
<path d="M161.741 57.382L168.343 56.0779V76.9441L161.741 78.2482V57.382Z" fill="#FF795B"/>
<path d="M173.294 53.4696L179.895 52.1655V73.0316L173.294 74.3358V53.4696Z" fill="#FF795B"/>
<path d="M173.294 53.4696L179.895 52.1655V73.0316L173.294 74.3358V53.4696Z" fill="#FF795B"/>
<path d="M173.294 53.4696L179.895 52.1655V73.0316L173.294 74.3358V53.4696Z" fill="#FF795B"/>
<path d="M185.672 50.2093L192.273 48.9051V69.7713L185.672 71.0754V50.2093Z" fill="#FF795B"/>
<path d="M185.672 50.2093L192.273 48.9051V69.7713L185.672 71.0754V50.2093Z" fill="#FF795B"/>
<path d="M185.672 50.2093L192.273 48.9051V69.7713L185.672 71.0754V50.2093Z" fill="#FF795B"/>
<path d="M163.392 88.6813L169.993 87.3772V108.243L163.392 109.547V88.6813Z" fill="#FF795B"/>
<path d="M163.392 88.6813L169.993 87.3772V108.243L163.392 109.547V88.6813Z" fill="#FF795B"/>
<path d="M163.392 88.6813L169.993 87.3772V108.243L163.392 109.547V88.6813Z" fill="#FF795B"/>
<path d="M174.944 84.7689L181.546 83.4647V104.331L174.944 105.635V84.7689Z" fill="#FF795B"/>
<path d="M174.944 84.7689L181.546 83.4647V104.331L174.944 105.635V84.7689Z" fill="#FF795B"/>
<path d="M174.944 84.7689L181.546 83.4647V104.331L174.944 105.635V84.7689Z" fill="#FF795B"/>
<path d="M187.322 81.5085L193.924 80.2044V101.071L187.322 102.375V81.5085Z" fill="#FF795B"/>
<path d="M187.322 81.5085L193.924 80.2044V101.071L187.322 102.375V81.5085Z" fill="#FF795B"/>
<path d="M187.322 81.5085L193.924 80.2044V101.071L187.322 102.375V81.5085Z" fill="#FF795B"/>
<path d="M163.392 119.981L169.993 118.676V139.543L163.392 140.847V119.981Z" fill="#FF795B"/>
<path d="M163.392 119.981L169.993 118.676V139.543L163.392 140.847V119.981Z" fill="#FF795B"/>
<path d="M163.392 119.981L169.993 118.676V139.543L163.392 140.847V119.981Z" fill="#FF795B"/>
<path d="M174.944 116.068L181.546 114.764V135.63L174.944 136.934V116.068Z" fill="#FF795B"/>
<path d="M174.944 116.068L181.546 114.764V135.63L174.944 136.934V116.068Z" fill="#FF795B"/>
<path d="M174.944 116.068L181.546 114.764V135.63L174.944 136.934V116.068Z" fill="#FF795B"/>
<path d="M187.322 112.808L193.924 111.504V132.37L187.322 133.674V112.808Z" fill="#FF795B"/>
<path d="M187.322 112.808L193.924 111.504V132.37L187.322 133.674V112.808Z" fill="#FF795B"/>
<path d="M187.322 112.808L193.924 111.504V132.37L187.322 133.674V112.808Z" fill="#FF795B"/>
<path d="M161.741 151.28L168.343 149.976V170.842L161.741 172.146V151.28Z" fill="#FF795B"/>
<path d="M161.741 151.28L168.343 149.976V170.842L161.741 172.146V151.28Z" fill="#FF795B"/>
<path d="M161.741 151.28L168.343 149.976V170.842L161.741 172.146V151.28Z" fill="#FF795B"/>
<path d="M173.294 147.367L179.895 146.063V166.929L173.294 168.234V147.367Z" fill="#FF795B"/>
<path d="M173.294 147.367L179.895 146.063V166.929L173.294 168.234V147.367Z" fill="#FF795B"/>
<path d="M173.294 147.367L179.895 146.063V166.929L173.294 168.234V147.367Z" fill="#FF795B"/>
<path d="M185.672 144.107L192.273 142.803V163.669L185.672 164.973V144.107Z" fill="#FF795B"/>
<path d="M185.672 144.107L192.273 142.803V163.669L185.672 164.973V144.107Z" fill="#FF795B"/>
<path d="M185.672 144.107L192.273 142.803V163.669L185.672 164.973V144.107Z" fill="#FF795B"/>
<path d="M163.392 182.579L169.993 181.275V202.141L163.392 203.445V182.579Z" fill="#FF795B"/>
<path d="M163.392 182.579L169.993 181.275V202.141L163.392 203.445V182.579Z" fill="#FF795B"/>
<path d="M163.392 182.579L169.993 181.275V202.141L163.392 203.445V182.579Z" fill="#FF795B"/>
<path d="M174.944 178.667L181.546 177.363V198.229L174.944 199.533V178.667Z" fill="#FF795B"/>
<path d="M174.944 178.667L181.546 177.363V198.229L174.944 199.533V178.667Z" fill="#FF795B"/>
<path d="M174.944 178.667L181.546 177.363V198.229L174.944 199.533V178.667Z" fill="#FF795B"/>
<path d="M187.322 175.406L193.924 174.102V194.968L187.322 196.273V175.406Z" fill="#FF795B"/>
<path d="M187.322 175.406L193.924 174.102V194.968L187.322 196.273V175.406Z" fill="#FF795B"/>
<path d="M187.322 175.406L193.924 174.102V194.968L187.322 196.273V175.406Z" fill="#FF795B"/>
<path d="M161.741 213.878L168.343 212.574V233.44L161.741 234.745V213.878Z" fill="#FF795B"/>
<path d="M161.741 213.878L168.343 212.574V233.44L161.741 234.745V213.878Z" fill="#FF795B"/>
<path d="M161.741 213.878L168.343 212.574V233.44L161.741 234.745V213.878Z" fill="#FF795B"/>
<path d="M173.294 209.966L179.895 208.662V229.528L173.294 230.832V209.966Z" fill="#FF795B"/>
<path d="M173.294 209.966L179.895 208.662V229.528L173.294 230.832V209.966Z" fill="#FF795B"/>
<path d="M173.294 209.966L179.895 208.662V229.528L173.294 230.832V209.966Z" fill="#FF795B"/>
<path d="M185.672 206.706L192.273 205.401V226.268L185.672 227.572V206.706Z" fill="#FF795B"/>
<path d="M185.672 206.706L192.273 205.401V226.268L185.672 227.572V206.706Z" fill="#FF795B"/>
<path d="M185.672 206.706L192.273 205.401V226.268L185.672 227.572V206.706Z" fill="#FF795B"/>
<path d="M160.091 245.178L166.692 243.873V264.74L160.091 266.044V245.178Z" fill="#FF795B"/>
<path d="M160.091 245.178L166.692 243.873V264.74L160.091 266.044V245.178Z" fill="#FF795B"/>
<path d="M160.091 245.178L166.692 243.873V264.74L160.091 266.044V245.178Z" fill="#FF795B"/>
<path d="M171.643 241.265L178.245 239.961V260.827L171.643 262.131V241.265Z" fill="#FF795B"/>
<path d="M171.643 241.265L178.245 239.961V260.827L171.643 262.131V241.265Z" fill="#FF795B"/>
<path d="M171.643 241.265L178.245 239.961V260.827L171.643 262.131V241.265Z" fill="#FF795B"/>
<path d="M184.021 238.005L190.623 236.701V257.567L184.021 258.871V238.005Z" fill="#FF795B"/>
<path d="M184.021 238.005L190.623 236.701V257.567L184.021 258.871V238.005Z" fill="#FF795B"/>
<path d="M184.021 238.005L190.623 236.701V257.567L184.021 258.871V238.005Z" fill="#FF795B"/>
<rect x="120.481" y="247.134" width="14.8534" height="20.8662" fill="#FF795B"/>
<rect x="120.481" y="247.134" width="14.8534" height="20.8662" fill="#FF795B"/>
<rect x="120.481" y="247.134" width="14.8534" height="20.8662" fill="#FF795B"/>
<path d="M48.69 3.91245H125.432H202.175L154.314 8.47692H0.00390625L48.69 3.91245Z" fill="#A7C9D3"/>
<path d="M45.5889 2.62711L1.65406 8.51518" stroke="black"/>
<line y1="9.27414" x2="151.844" y2="9.27414" stroke="black"/>
<path d="M49.5151 3.91244L200.525 2.60831" stroke="black"/>
<line y1="-0.5" x2="48.1443" y2="-0.5" transform="matrix(0.994113 -0.108352 0.171951 0.985106 155.139 9.12897)" stroke="black"/>
<line x1="152.338" y1="10.4331" x2="152.338" y2="266.044" stroke="black"/>
<line x1="2.1543" y1="11.7372" x2="2.1543" y2="267.348" stroke="black"/>
<line x1="201.85" y1="5.21655" x2="201.85" y2="264.74" stroke="black"/>
<path d="M30.7749 37.2265L30.0822 37.6835C29.6621 37.0585 29.1128 36.5663 28.4341 36.207C27.7633 35.8398 27.0333 35.6562 26.2443 35.6562C24.963 35.6562 23.868 36.1093 22.9591 37.0156C22.0502 37.9218 21.594 39.0156 21.5903 40.2968C21.5866 41.578 22.0365 42.6718 22.9402 43.578C23.8438 44.4843 24.9363 44.9374 26.2175 44.9374C27.0066 44.9374 27.7376 44.7538 28.4105 44.3866C29.0912 44.0194 29.6435 43.5233 30.0671 42.8984L30.7454 43.3905C30.2433 44.1249 29.5932 44.7069 28.7951 45.1366C27.9969 45.5663 27.1369 45.7812 26.2151 45.7812C25.4729 45.7812 24.7624 45.6366 24.0835 45.3476C23.4125 45.0585 22.8316 44.6679 22.3408 44.1757C21.85 43.6835 21.4611 43.1015 21.174 42.4296C20.8869 41.7499 20.7444 41.039 20.7465 40.2968C20.7487 39.5546 20.8952 38.8476 21.1862 38.1757C21.4773 37.496 21.8696 36.9101 22.3632 36.4179C22.8568 35.9257 23.4399 35.5351 24.1127 35.246C24.7932 34.957 25.5045 34.8124 26.2467 34.8124C27.1764 34.8124 28.0391 35.0312 28.8347 35.4687C29.6303 35.8984 30.2771 36.4843 30.7749 37.2265ZM32.1722 36.2656L31.4678 36.7226C30.8921 35.8788 30.144 35.2109 29.2236 34.7187C28.3109 34.2187 27.3195 33.9687 26.2492 33.9687C25.1007 33.9687 24.0413 34.2539 23.0709 34.8242C22.1005 35.3867 21.3288 36.1523 20.7557 37.121C20.1904 38.0898 19.9061 39.1484 19.9028 40.2968C19.8995 41.4452 20.1776 42.5038 20.7374 43.4726C21.3049 44.4413 22.0722 45.2108 23.0393 45.7812C24.0064 46.3436 25.0642 46.6249 26.2126 46.6249C27.2829 46.6249 28.2798 46.3749 29.2031 45.8749C30.1264 45.3749 30.8783 44.6991 31.4589 43.8476L32.1489 44.328C31.4899 45.2968 30.6361 46.0624 29.5876 46.6249C28.5469 47.1874 27.4211 47.4686 26.2102 47.4686C24.9133 47.4686 23.715 47.1483 22.6153 46.5077C21.5156 45.8671 20.647 44.996 20.0096 43.8944C19.3721 42.7929 19.0553 41.5937 19.059 40.2968C19.0628 38.9999 19.3865 37.8007 20.0303 36.6992C20.6741 35.5976 21.5477 34.7265 22.6512 34.0859C23.7546 33.4453 24.9547 33.125 26.2516 33.125C27.4625 33.125 28.5867 33.4062 29.6242 33.9687C30.6694 34.5312 31.5188 35.2968 32.1722 36.2656ZM33.5812 35.3281L32.8767 35.7851C32.1455 34.707 31.1948 33.8554 30.0247 33.2304C28.8625 32.5976 27.6056 32.2812 26.254 32.2812C25.1681 32.2812 24.1284 32.4921 23.135 32.914C22.1416 33.3359 21.2845 33.9062 20.5637 34.6249C19.8507 35.3359 19.2818 36.1874 18.8571 37.1796C18.4323 38.1718 18.2184 39.2109 18.2153 40.2968C18.2121 41.3827 18.4201 42.4218 18.8391 43.414C19.2581 44.4062 19.822 45.2616 20.5309 45.9804C21.2476 46.6913 22.1014 47.2577 23.0924 47.6796C24.0834 48.1015 25.1218 48.3124 26.2078 48.3124C27.5671 48.3124 28.8298 47.996 29.9957 47.3632C31.1615 46.7304 32.1132 45.8749 32.8507 44.7968L33.529 45.3007C32.713 46.4882 31.6595 47.4296 30.3685 48.1249C29.0852 48.8124 27.6975 49.1561 26.2053 49.1561C24.6038 49.1561 23.1244 48.7616 21.7673 47.9725C20.4103 47.1757 19.3352 46.0976 18.5423 44.7382C17.7572 43.3788 17.3669 41.8984 17.3715 40.2968C17.3761 38.6952 17.7749 37.2148 18.5679 35.8554C19.3687 34.496 20.45 33.4218 21.8116 32.6328C23.1733 31.8359 24.6549 31.4375 26.2565 31.4375C27.7565 31.4375 29.15 31.789 30.437 32.4921C31.7241 33.1875 32.7721 34.1328 33.5812 35.3281ZM34.9668 34.3671L34.2623 34.8242C33.3754 33.5195 32.2261 32.4882 30.8142 31.7304C29.4101 30.9726 27.8917 30.5937 26.2589 30.5937C24.9464 30.5937 23.6878 30.8515 22.4832 31.3671C21.2864 31.875 20.2532 32.5625 19.3835 33.4296C18.5138 34.2968 17.8194 35.332 17.3003 36.5351C16.7891 37.7304 16.5316 38.9843 16.5278 40.2968C16.524 41.6093 16.7743 42.8671 17.2786 44.0702C17.7908 45.2655 18.4792 46.2968 19.3439 47.164C20.2086 48.0311 21.2378 48.7225 22.4317 49.2382C23.6333 49.746 24.8904 49.9999 26.2029 49.9999C27.8357 49.9999 29.3602 49.6171 30.7765 48.8515C32.1928 48.0858 33.3481 47.0507 34.2425 45.746L34.9207 46.2616C33.9479 47.6679 32.6947 48.785 31.161 49.6132C29.6274 50.4335 27.9739 50.8436 26.2005 50.8436C24.7708 50.8436 23.4044 50.5624 22.1013 49.9999C20.8061 49.4452 19.6871 48.6991 18.7445 47.7616C17.8097 46.8163 17.063 45.6952 16.5042 44.3983C15.9533 43.0937 15.6799 41.7265 15.684 40.2968C15.6881 38.8671 15.9694 37.5038 16.5279 36.207C17.0941 34.9023 17.8474 33.7812 18.7876 32.8437C19.7356 31.8984 20.8589 31.1484 22.1573 30.5937C23.4636 30.0312 24.8316 29.75 26.2613 29.75C28.0426 29.75 29.6976 30.164 31.2265 30.9921C32.7554 31.8203 34.0021 32.9453 34.9668 34.3671ZM43.0271 39.1835C42.3689 39.8398 42.0385 40.6327 42.0358 41.5624C42.0332 42.4921 42.359 43.289 43.0133 43.953C43.6755 44.6093 44.4714 44.9374 45.4011 44.9374C46.3308 44.9374 47.1247 44.6093 47.7828 43.953C48.4488 43.289 48.7832 42.4921 48.7858 41.5624C48.7885 40.6327 48.4588 39.8398 47.7966 39.1835C47.1423 38.5195 46.3503 38.1874 45.4206 38.1874C44.4909 38.1874 43.6931 38.5195 43.0271 39.1835ZM42.4139 44.5507C41.596 43.7226 41.1887 42.7265 41.1921 41.5624C41.1954 40.3984 41.6085 39.4062 42.4311 38.5859C43.2617 37.7577 44.2589 37.3437 45.423 37.3437C46.5871 37.3437 47.5781 37.7577 48.396 38.5859C49.2217 39.4062 49.6329 40.3984 49.6296 41.5624C49.6262 42.7265 49.2093 43.7226 48.3788 44.5507C47.5561 45.371 46.5627 45.7812 45.3987 45.7812C44.2346 45.7812 43.2397 45.371 42.4139 44.5507ZM41.8352 37.9882C40.848 38.9804 40.3523 40.1718 40.3483 41.5624C40.3443 42.953 40.8331 44.1444 41.8146 45.1366C42.8039 46.1288 43.9978 46.6249 45.3962 46.6249C46.7947 46.6249 47.9875 46.1288 48.9747 45.1366C49.9698 44.1444 50.4693 42.953 50.4733 41.5624C50.4773 40.1718 49.9847 38.9804 48.9954 37.9882C48.0139 36.996 46.8239 36.4999 45.4254 36.4999C44.027 36.4999 42.8303 36.996 41.8352 37.9882ZM40.2812 44.5272C39.7604 43.621 39.5015 42.6327 39.5046 41.5624C39.5077 40.4921 39.7722 39.5038 40.2983 38.5976C40.8322 37.6913 41.553 36.9765 42.4607 36.4531C43.3685 35.9218 44.3576 35.6562 45.4279 35.6562C46.4982 35.6562 47.4857 35.9218 48.3904 36.4531C49.2952 36.9765 50.0079 37.6913 50.5288 38.5976C51.0574 39.5038 51.3202 40.4921 51.3171 41.5624C51.314 42.6327 51.0455 43.621 50.5117 44.5272C49.9856 45.4335 49.2687 46.1522 48.3609 46.6835C47.4531 47.2069 46.4641 47.4686 45.3938 47.4686C44.3235 47.4686 43.336 47.2069 42.4312 46.6835C41.5265 46.1522 40.8098 45.4335 40.2812 44.5272ZM39.1957 38.9491C38.8418 39.7773 38.6635 40.6484 38.6608 41.5624C38.6582 42.4765 38.8315 43.3515 39.1806 44.1874C39.5376 45.0155 40.016 45.7343 40.6158 46.3436C41.2234 46.9452 41.9408 47.4257 42.7679 47.785C43.6028 48.1366 44.4773 48.3124 45.3914 48.3124C46.3054 48.3124 47.177 48.1366 48.0062 47.785C48.8431 47.4257 49.5633 46.9452 50.1666 46.3436C50.7777 45.7343 51.2602 45.0155 51.6142 44.1874C51.976 43.3515 52.1582 42.4765 52.1608 41.5624C52.1635 40.6484 51.9863 39.7773 51.6293 38.9491C51.2802 38.1132 50.8018 37.3945 50.1941 36.7929C49.5943 36.1835 48.877 35.7031 48.042 35.3515C47.215 34.9921 46.3444 34.8124 45.4303 34.8124C44.5162 34.8124 43.6407 34.9921 42.8038 35.3515C41.9746 35.7031 41.2545 36.1835 40.6433 36.7929C40.04 37.3945 39.5575 38.1132 39.1957 38.9491ZM38.4062 44.5155C38.0105 43.578 37.8141 42.5937 37.8171 41.5624C37.8201 40.5312 38.0221 39.5468 38.4233 38.6093C38.8322 37.6718 39.3736 36.8671 40.0474 36.1953C40.7291 35.5156 41.5392 34.9765 42.4779 34.5781C43.4165 34.1718 44.4015 33.9687 45.4327 33.9687C46.464 33.9687 47.4478 34.1718 48.3841 34.5781C49.3205 34.9765 50.1236 35.5156 50.7935 36.1953C51.4713 36.8671 52.008 37.6718 52.4037 38.6093C52.8073 39.5468 53.0076 40.5312 53.0046 41.5624C53.0016 42.5937 52.7956 43.578 52.3867 44.5155C51.9855 45.453 51.4441 46.2616 50.7625 46.9413C50.0887 47.6132 49.2824 48.1522 48.3438 48.5585C47.4051 48.9569 46.4202 49.1561 45.3889 49.1561C44.3577 49.1561 43.3739 48.9569 42.4375 48.5585C41.5012 48.1522 40.6942 47.6132 40.0164 46.9413C39.3465 46.2616 38.8098 45.453 38.4062 44.5155ZM37.6507 38.2929C37.2024 39.332 36.9766 40.4218 36.9733 41.5624C36.97 42.703 37.1895 43.7968 37.6318 44.8437C38.0741 45.8827 38.6692 46.7811 39.417 47.539C40.1727 48.289 41.0694 48.8866 42.1072 49.3319C43.1528 49.7772 44.2459 49.9999 45.3865 49.9999C46.5271 49.9999 47.6176 49.7772 48.6579 49.3319C49.7061 48.8866 50.6063 48.289 51.3584 47.539C52.1184 46.7811 52.7226 45.8827 53.1709 44.8437C53.6192 43.7968 53.845 42.703 53.8483 41.5624C53.8516 40.4218 53.6321 39.332 53.1898 38.2929C52.7475 37.246 52.1485 36.3476 51.3929 35.5976C50.6451 34.8398 49.7484 34.2382 48.7028 33.7929C47.665 33.3476 46.5758 33.125 45.4352 33.125C44.2946 33.125 43.2002 33.3476 42.152 33.7929C41.1117 34.2382 40.2115 34.8398 39.4515 35.5976C38.6993 36.3476 38.0991 37.246 37.6507 38.2929ZM36.8574 45.1718C36.3686 44.0233 36.126 42.8202 36.1296 41.5624C36.1332 40.3046 36.3828 39.1054 36.8782 37.9648C37.3737 36.8163 38.0368 35.8281 38.8673 34.9999C39.6978 34.1718 40.6841 33.5117 41.8261 33.0195C42.976 32.5273 44.1798 32.2812 45.4376 32.2812C46.6954 32.2812 47.8939 32.5273 49.0331 33.0195C50.1802 33.5117 51.1665 34.1718 51.9923 34.9999C52.818 35.8281 53.4753 36.8163 53.9642 37.9648C54.4531 39.1054 54.6957 40.3046 54.6921 41.5624C54.6885 42.8202 54.4389 44.0233 53.9434 45.1718C53.4479 46.3124 52.7849 47.2968 51.9544 48.1249C51.1239 48.953 50.1337 49.6132 48.9838 50.1054C47.8418 50.5975 46.6419 50.8436 45.3841 50.8436C44.1262 50.8436 42.9238 50.5975 41.7768 50.1054C40.6376 49.6132 39.6551 48.953 38.8294 48.1249C38.0037 47.2968 37.3463 46.3124 36.8574 45.1718ZM69.8983 43.1913L69.059 41.6562L69.0836 33.125H69.9274L69.8983 43.1913ZM71.5774 46.1093L70.7378 44.6796L70.7711 33.125H71.6149L71.5774 46.1093ZM59.9702 39.9335L60.8095 41.4687L60.7849 49.9999H59.9412L59.9702 39.9335ZM58.2915 36.8984L59.1308 38.4452L59.0974 49.9999H58.2537L58.2915 36.8984ZM58.5953 33.125H59.5797L69.3045 49.9999H68.3201L58.5953 33.125ZM60.5875 33.125H61.5836L71.2966 49.9999H70.2888L60.5875 33.125ZM62.568 33.125H63.5524L72.4142 48.535L72.4586 33.125H73.3024L73.2537 49.9999L72.2576 49.9999L62.568 33.125ZM57.4544 34.5781L57.4099 49.9999H56.5662L56.6149 33.125H57.6227L67.3123 49.9999H66.3396L57.4544 34.5781ZM78.4803 37.8007L79.324 37.8007L79.2888 49.9999H78.4451L78.4803 37.8007ZM75.1163 33.9687L75.1188 33.125L87.775 33.125L87.7726 33.9687L75.1163 33.9687ZM75.1115 35.6562L75.1139 34.8124L87.7702 34.8124L87.7677 35.6562L75.1115 35.6562ZM75.1066 37.3437L75.109 36.4999L87.7653 36.4999L87.7629 37.3437L75.1066 37.3437ZM83.5428 37.8007H84.3865L84.3513 49.9999H83.5076L83.5428 37.8007ZM81.8553 37.8007H82.699L82.6638 49.9999H81.8201L81.8553 37.8007ZM80.1678 37.8007H81.0115L80.9763 49.9999H80.1326L80.1678 37.8007ZM101.59 41.6796C101.593 40.6796 101.287 39.9062 100.671 39.3593C100.055 38.8124 99.2399 38.539 98.2242 38.539C97.3649 38.539 96.6257 38.8359 96.0068 39.4296C95.3879 40.0234 95.0773 40.7343 95.0749 41.5624C95.0735 42.0312 95.1348 42.453 95.2587 42.828C95.3827 43.1952 95.5498 43.5038 95.76 43.7538C95.978 43.996 96.2353 44.1991 96.5317 44.3632C96.8281 44.5194 97.1363 44.6327 97.4565 44.703C97.7844 44.7733 98.1319 44.8085 98.4991 44.8085C99.3897 44.8085 100.203 44.5897 100.939 44.1523L100.936 44.996C100.177 45.3944 99.3601 45.5937 98.4851 45.5937C97.9226 45.5937 97.3916 45.5194 96.892 45.371C96.4003 45.2147 95.9517 44.9843 95.5464 44.6796C95.141 44.3671 94.818 43.9452 94.5774 43.414C94.3445 42.8749 94.2291 42.2577 94.2311 41.5624C94.2343 40.4843 94.6158 39.5702 95.3758 38.8202C96.1358 38.0702 97.0861 37.6952 98.2267 37.6952C99.4845 37.6952 100.499 38.0507 101.27 38.7616C102.05 39.4648 102.438 40.4374 102.434 41.6796L102.41 49.9999H101.566L101.59 41.6796ZM104.121 41.6796L104.097 49.9999H103.254L103.278 41.6796C103.282 40.203 102.813 39.0312 101.87 38.164C100.927 37.289 99.7135 36.8515 98.2291 36.8515C96.8541 36.8515 95.7044 37.3085 94.7798 38.2226C93.8553 39.1366 93.3912 40.2499 93.3874 41.5624C93.3851 42.3593 93.5198 43.0741 93.7914 43.7069C94.0708 44.3398 94.4482 44.8476 94.9237 45.2304C95.3991 45.6132 95.9295 45.9062 96.5149 46.1093C97.1081 46.3046 97.7328 46.4022 98.3891 46.4022C99.2797 46.4022 100.128 46.1952 100.934 45.7812L100.931 46.6718C100.086 47.0233 99.2344 47.1991 98.375 47.1991C97.6016 47.1991 96.8676 47.0819 96.1729 46.8476C95.4783 46.6054 94.8582 46.2577 94.3127 45.8046C93.7671 45.3437 93.3352 44.7499 93.017 44.0233C92.6988 43.289 92.541 42.4687 92.5436 41.5624C92.5481 40.0234 93.0948 38.7148 94.1839 37.6367C95.2808 36.5507 96.63 36.0078 98.2316 36.0078C99.3566 36.0078 100.364 36.2382 101.253 36.6992C102.142 37.1523 102.844 37.8124 103.357 38.6796C103.87 39.5468 104.125 40.5468 104.121 41.6796ZM105.809 41.6796L105.785 49.9999H104.941L104.965 41.6796C104.969 40.3905 104.675 39.2499 104.084 38.2577C103.501 37.2577 102.699 36.4921 101.677 35.9609C100.655 35.4296 99.5074 35.164 98.234 35.164C97.023 35.164 95.9167 35.4531 94.9151 36.0312C93.9134 36.6015 93.126 37.3749 92.5529 38.3515C91.9876 39.3281 91.7033 40.3984 91.6999 41.5624C91.697 42.5624 91.878 43.4765 92.2428 44.3046C92.6076 45.1249 93.0978 45.8007 93.7135 46.3319C94.3369 46.8632 95.0428 47.2772 95.831 47.5741C96.627 47.8632 97.4586 48.0077 98.3258 48.0077C99.2086 48.0077 100.076 47.8241 100.929 47.4569L100.927 48.3124C100.035 48.6483 99.1594 48.8163 98.3001 48.8163C96.9485 48.8163 95.7072 48.5116 94.5761 47.9022C93.4451 47.2929 92.5413 46.4296 91.8649 45.3124C91.1884 44.1952 90.8522 42.9452 90.8561 41.5624C90.859 40.578 91.0492 39.6406 91.4268 38.7499C91.8121 37.8593 92.33 37.0898 92.9803 36.4413C93.6306 35.7929 94.4133 35.2773 95.3285 34.8945C96.2437 34.5117 97.213 34.3203 98.2364 34.3203C99.6661 34.3203 100.954 34.6249 102.101 35.2343C103.255 35.8437 104.163 36.7109 104.824 37.8359C105.485 38.9609 105.813 40.2421 105.809 41.6796ZM107.496 41.6796L107.472 49.9999H106.629L106.653 41.6796C106.657 40.0859 106.29 38.664 105.552 37.414C104.813 36.1562 103.804 35.1874 102.525 34.5078C101.246 33.8203 99.817 33.4765 98.2389 33.4765C96.7232 33.4765 95.3355 33.8398 94.0756 34.5664C92.8156 35.2929 91.8245 36.2773 91.1022 37.5195C90.3799 38.7538 90.0166 40.1015 90.0124 41.5624C90.0096 42.5234 90.1593 43.4374 90.4615 44.3046C90.7715 45.164 91.1912 45.9179 91.7206 46.5663C92.2578 47.2069 92.8734 47.7616 93.5674 48.2304C94.2691 48.6991 95.022 49.0546 95.826 49.2968C96.6378 49.5389 97.4617 49.66 98.2976 49.66C99.2195 49.66 100.095 49.4843 100.924 49.1327L100.922 49.9999C100.054 50.3046 99.1625 50.4569 98.2484 50.4569C97.3031 50.4569 96.3816 50.3241 95.484 50.0585C94.5941 49.7929 93.7671 49.4022 93.003 48.8866C92.2467 48.3632 91.5805 47.7499 91.0044 47.0468C90.4283 46.3358 89.9776 45.5077 89.6522 44.5624C89.3268 43.6171 89.1656 42.6171 89.1686 41.5624C89.1721 40.3515 89.402 39.1991 89.8583 38.1054C90.3224 37.0038 90.9502 36.0546 91.7415 35.2578C92.5407 34.4531 93.5035 33.8164 94.6299 33.3476C95.764 32.871 96.9679 32.6328 98.2413 32.6328C99.5382 32.6328 100.756 32.8515 101.896 33.289C103.035 33.7265 104.018 34.3359 104.843 35.1171C105.669 35.8906 106.319 36.8437 106.792 37.9765C107.266 39.1093 107.5 40.3437 107.496 41.6796ZM121.731 38.9374L121.05 39.4531C120.372 38.6093 119.499 38.1874 118.428 38.1874C117.499 38.1874 116.701 38.5195 116.035 39.1835C115.377 39.8398 115.046 40.6327 115.044 41.5624C115.041 42.4921 115.367 43.289 116.021 43.953C116.683 44.6093 117.479 44.9374 118.409 44.9374C118.932 44.9374 119.421 44.8241 119.875 44.5976C120.336 44.371 120.728 44.0585 121.049 43.6601L121.704 44.2108C121.312 44.703 120.826 45.0897 120.247 45.371C119.669 45.6444 119.055 45.7812 118.406 45.7812C117.242 45.7812 116.247 45.371 115.422 44.5507C114.604 43.7226 114.197 42.7265 114.2 41.5624C114.203 40.3984 114.616 39.4062 115.439 38.5859C116.269 37.7577 117.267 37.3437 118.431 37.3437C119.087 37.3437 119.704 37.4882 120.281 37.7773C120.858 38.0585 121.342 38.4452 121.731 38.9374ZM123.046 37.8827L122.377 38.3984C121.91 37.8046 121.329 37.3398 120.635 37.0038C119.948 36.6679 119.215 36.4999 118.433 36.4999C117.035 36.4999 115.838 36.996 114.843 37.9882C113.856 38.9804 113.36 40.1718 113.356 41.5624C113.352 42.953 113.841 44.1444 114.822 45.1366C115.812 46.1288 117.006 46.6249 118.404 46.6249C119.185 46.6249 119.924 46.4569 120.62 46.121C121.317 45.7772 121.9 45.3085 122.37 44.7147L123.013 45.2538C122.465 45.9413 121.787 46.4843 120.981 46.8827C120.176 47.2733 119.316 47.4686 118.402 47.4686C117.331 47.4686 116.344 47.2069 115.439 46.6835C114.534 46.1522 113.818 45.4335 113.289 44.5272C112.768 43.621 112.509 42.6327 112.512 41.5624C112.515 40.4921 112.78 39.5038 113.306 38.5976C113.84 37.6913 114.561 36.9765 115.469 36.4531C116.376 35.9218 117.365 35.6562 118.436 35.6562C119.35 35.6562 120.209 35.8554 121.012 36.2538C121.823 36.6445 122.502 37.1874 123.046 37.8827ZM124.374 36.8281L123.716 37.3554C123.085 36.5663 122.31 35.9453 121.389 35.4921C120.469 35.039 119.485 34.8124 118.438 34.8124C117.524 34.8124 116.649 34.9921 115.812 35.3515C114.982 35.7031 114.262 36.1835 113.651 36.7929C113.048 37.3945 112.565 38.1132 112.204 38.9491C111.85 39.7773 111.671 40.6484 111.669 41.5624C111.666 42.4765 111.839 43.3515 112.188 44.1874C112.545 45.0155 113.024 45.7343 113.624 46.3436C114.231 46.9452 114.949 47.4257 115.776 47.785C116.611 48.1366 117.485 48.3124 118.399 48.3124C119.446 48.3124 120.431 48.0858 121.354 47.6327C122.277 47.1796 123.057 46.5585 123.692 45.7694L124.323 46.3202C123.609 47.203 122.736 47.8983 121.704 48.4061C120.671 48.9061 119.569 49.1561 118.397 49.1561C117.365 49.1561 116.382 48.9569 115.445 48.5585C114.509 48.1522 113.702 47.6132 113.024 46.9413C112.354 46.2616 111.818 45.453 111.414 44.5155C111.018 43.578 110.822 42.5937 110.825 41.5624C110.828 40.5312 111.03 39.5468 111.431 38.6093C111.84 37.6718 112.381 36.8671 113.055 36.1953C113.737 35.5156 114.547 34.9765 115.486 34.5781C116.424 34.1718 117.409 33.9687 118.441 33.9687C119.62 33.9687 120.725 34.2226 121.755 34.7304C122.792 35.2382 123.665 35.9374 124.374 36.8281ZM125.689 35.7734L125.008 36.2773C124.222 35.3007 123.255 34.5312 122.109 33.9687C120.97 33.4062 119.748 33.125 118.443 33.125C117.302 33.125 116.208 33.3476 115.16 33.7929C114.119 34.2382 113.219 34.8398 112.459 35.5976C111.707 36.3476 111.107 37.246 110.659 38.2929C110.21 39.332 109.984 40.4218 109.981 41.5624C109.978 42.703 110.197 43.7968 110.64 44.8437C111.082 45.8827 111.677 46.7811 112.425 47.539C113.18 48.289 114.077 48.8866 115.115 49.3319C116.161 49.7772 117.254 49.9999 118.394 49.9999C119.699 49.9999 120.922 49.7186 122.065 49.1561C123.215 48.5936 124.186 47.8241 124.978 46.8476L125.644 47.3632C124.774 48.4413 123.705 49.2929 122.438 49.9179C121.178 50.535 119.829 50.8436 118.392 50.8436C117.134 50.8436 115.932 50.5975 114.785 50.1054C113.645 49.6132 112.663 48.953 111.837 48.1249C111.011 47.2968 110.354 46.3124 109.865 45.1718C109.376 44.0233 109.134 42.8202 109.137 41.5624C109.141 40.3046 109.391 39.1054 109.886 37.9648C110.382 36.8163 111.045 35.8281 111.875 34.9999C112.706 34.1718 113.692 33.5117 114.834 33.0195C115.984 32.5273 117.188 32.2812 118.445 32.2812C119.883 32.2812 121.234 32.5937 122.497 33.2187C123.761 33.8359 124.825 34.6874 125.689 35.7734ZM130.277 37.8007H131.121L131.086 49.9999H130.242L130.277 37.8007ZM126.913 33.9687L126.916 33.125L139.572 33.125L139.569 33.9687L126.913 33.9687ZM126.908 35.6562L126.911 34.8124L139.567 34.8124L139.565 35.6562L126.908 35.6562ZM126.903 37.3437L126.906 36.4999L139.562 36.4999L139.56 37.3437L126.903 37.3437ZM135.34 37.8007H136.183L136.148 49.9999H135.304L135.34 37.8007ZM133.652 37.8007H134.496L134.461 49.9999H133.617L133.652 37.8007ZM131.965 37.8007H132.808L132.773 49.9999H131.929L131.965 37.8007Z" fill="black"/>
</svg>
