<svg width="131" height="489" viewBox="0 0 131 489" fill="none" xmlns="http://www.w3.org/2000/svg">
<rect y="29" width="131" height="460" fill="#353535"/>
<rect x="11" y="21.6667" width="109" height="7.33333" fill="#353535"/>
<rect x="21" y="14.3333" width="90" height="7.33333" fill="#353535"/>
<rect x="31" y="7" width="69" height="7.33333" fill="#353535"/>
<rect x="40" width="52" height="7" fill="#353535"/>
<line x1="40" y1="6.5" x2="92" y2="6.5" stroke="#F8B300"/>
<line x1="31" y1="13.5" x2="100" y2="13.5" stroke="#F8B300"/>
<line x1="21" y1="21.5" x2="111" y2="21.5" stroke="#F8B300"/>
<line x1="11" y1="28.5" x2="120" y2="28.5" stroke="#F8B300"/>
<line x1="9.5" y1="476.998" x2="10.178" y2="269.997" stroke="#F8B300"/>
<line x1="19.8389" y1="476.002" x2="19.8389" y2="268.999" stroke="#F8B300"/>
<line opacity="0.9" x1="29.5" y1="475.001" x2="30.178" y2="268" stroke="#F8B300"/>
<line x1="40.5" y1="477.001" x2="40.5" y2="39" stroke="#F8B300"/>
<line x1="50.5" y1="477.001" x2="50.5" y2="39" stroke="#F8B300"/>
<line x1="60.5" y1="477.001" x2="60.5" y2="39" stroke="#F8B300"/>
<line x1="70.5" y1="477.001" x2="70.5" y2="39" stroke="#F8B300"/>
<line x1="80.5" y1="477.001" x2="80.5" y2="39" stroke="#F8B300"/>
<line x1="90.5" y1="477.001" x2="90.5" y2="39" stroke="#F8B300"/>
<line x1="100.5" y1="477.001" x2="100.5" y2="39" stroke="#F8B300"/>
<line x1="110.5" y1="477.001" x2="110.5" y2="39" stroke="#F8B300"/>
<line x1="120.5" y1="477.001" x2="120.5" y2="39" stroke="#F8B300"/>
<line x1="46" y1="50.875" x2="126" y2="50.875" stroke="#F8B300" stroke-width="0.25"/>
<line x1="46" y1="70.875" x2="126" y2="70.875" stroke="#F8B300" stroke-width="0.25"/>
<line x1="46" y1="90.875" x2="126" y2="90.875" stroke="#F8B300" stroke-width="0.25"/>
<line x1="46" y1="110.875" x2="126" y2="110.875" stroke="#F8B300" stroke-width="0.25"/>
<line x1="46" y1="130.875" x2="126" y2="130.875" stroke="#F8B300" stroke-width="0.25"/>
<line x1="46" y1="150.875" x2="126" y2="150.875" stroke="#F8B300" stroke-width="0.25"/>
<line x1="46" y1="170.875" x2="126" y2="170.875" stroke="#F8B300" stroke-width="0.25"/>
<line x1="46" y1="190.875" x2="126" y2="190.875" stroke="#F8B300" stroke-width="0.25"/>
<line x1="46" y1="210.875" x2="126" y2="210.875" stroke="#F8B300" stroke-width="0.25"/>
<line x1="46" y1="236.875" x2="126" y2="236.875" stroke="#F8B300" stroke-width="0.25"/>
<line x1="46" y1="257.875" x2="126" y2="257.875" stroke="#F8B300" stroke-width="0.25"/>
<line x1="5.66797" y1="280.875" x2="126.817" y2="280.875" stroke="#F8B300" stroke-width="0.25"/>
<line x1="5.74219" y1="303.875" x2="126.891" y2="303.875" stroke="#F8B300" stroke-width="0.25"/>
<line x1="5.81641" y1="326.875" x2="126.965" y2="326.875" stroke="#F8B300" stroke-width="0.25"/>
<line x1="5.89062" y1="349.875" x2="127.039" y2="349.875" stroke="#F8B300" stroke-width="0.25"/>
<line x1="5.96484" y1="372.875" x2="127.114" y2="372.875" stroke="#F8B300" stroke-width="0.25"/>
<line x1="6.03906" y1="395.875" x2="127.188" y2="395.875" stroke="#F8B300" stroke-width="0.25"/>
<line x1="6.11328" y1="418.875" x2="127.262" y2="418.875" stroke="#F8B300" stroke-width="0.25"/>
<line x1="6.1875" y1="441.875" x2="127.336" y2="441.875" stroke="#F8B300" stroke-width="0.25"/>
<line x1="6.26172" y1="464.875" x2="127.41" y2="464.875" stroke="#F8B300" stroke-width="0.25"/>
<path d="M15.4648 58.3438H20.5508C21.3242 58.3438 21.9766 58.0938 22.5078 57.5938C23.0469 57.0938 23.3164 56.3828 23.3164 55.4609C23.3164 54.7812 23.0352 54.1719 22.4727 53.6328C21.9102 53.0859 21.2695 52.8125 20.5508 52.8125H13.3086V68H12.4648V51.9688H20.5508C21.5039 51.9688 22.3438 52.3242 23.0703 53.0352C23.7969 53.7383 24.1602 54.5469 24.1602 55.4609C24.1602 56.5859 23.8086 57.4883 23.1055 58.168C22.4023 58.8477 21.5508 59.1875 20.5508 59.1875H15.4648V58.3438ZM15.4648 60.0312H20.5508C21.7695 60.0312 22.8164 59.6055 23.6914 58.7539C24.5664 57.8945 25.0039 56.7969 25.0039 55.4609C25.0039 54.3125 24.5547 53.3047 23.6562 52.4375C22.7656 51.5625 21.7305 51.125 20.5508 51.125H11.6211V68H10.7773V50.2812H20.5508C21.4805 50.2812 22.3516 50.5195 23.1641 50.9961C23.9844 51.4727 24.6367 52.1133 25.1211 52.918C25.6055 53.7148 25.8477 54.5625 25.8477 55.4609C25.8477 57 25.3242 58.2891 24.2773 59.3281C23.2383 60.3594 21.9961 60.875 20.5508 60.875H15.4648V60.0312ZM15.4648 61.7188H20.5508C21.6445 61.7188 22.6602 61.4492 23.5977 60.9102C24.5352 60.3711 25.2852 59.6211 25.8477 58.6602C26.4102 57.6914 26.6914 56.625 26.6914 55.4609C26.6914 54.4062 26.4102 53.418 25.8477 52.4961C25.293 51.5664 24.543 50.8242 23.5977 50.2695C22.6523 49.7148 21.6367 49.4375 20.5508 49.4375H9.93359V68H9.08984V48.5938H20.5508C21.7773 48.5938 22.9297 48.9102 24.0078 49.543C25.0859 50.168 25.9414 51.0117 26.5742 52.0742C27.2148 53.1289 27.5352 54.2578 27.5352 55.4609C27.5352 56.8516 27.2344 58.0742 26.6328 59.1289C26.0391 60.1836 25.2305 61.0078 24.207 61.6016L26.3867 68H25.4961L23.4102 62C23.0977 62.125 22.8594 62.2109 22.6953 62.2578L24.6523 68H23.7617L21.8516 62.457C21.7812 62.4727 21.5312 62.5 21.1016 62.5391L22.918 68H22.0273L20.2344 62.5625H19.4727L21.1836 68H20.293L18.5703 62.5625H15.4648V61.7188ZM14.9961 68H14.1523V53.6562H20.5508C21.0742 53.6562 21.5234 53.8359 21.8984 54.1953C22.2812 54.5469 22.4727 54.9688 22.4727 55.4609C22.4727 56.8203 21.832 57.5 20.5508 57.5H15.4648V56.6562H20.5508C20.8867 56.6562 21.1484 56.5703 21.3359 56.3984C21.5312 56.2188 21.6289 55.9062 21.6289 55.4609C21.6289 55.1875 21.5234 54.9609 21.3125 54.7812C21.1094 54.5938 20.8555 54.5 20.5508 54.5H14.9961V68ZM13.3086 105H12.4648V85.5938H13.3086V105ZM11.6211 105H10.7773V85.5938H11.6211V105ZM9.93359 105H9.08984V85.5938H9.93359V105ZM14.9961 100.781H23.9727V101.625H14.9961V102.469H23.9727V103.312H14.9961V104.156H23.9727V105H14.1523V85.5938H23.9727V86.4375H14.9961V87.2812H23.9727V88.125H14.9961V88.9688H23.9727V89.8125H14.9961V93.1875H19.6016V94.0312H14.9961V94.875H19.6016V95.7188H14.9961V96.5625H19.6016V97.4062H14.9961V100.781ZM16.9297 130.188H15.5117C14.9102 130.188 14.4766 130.035 14.2109 129.73C13.9453 129.418 13.8125 129.008 13.8125 128.5C13.8125 127.375 14.6523 126.812 16.332 126.812C17.9102 126.812 19.0977 127.047 19.8945 127.516L19.2148 128.031C18.668 127.781 17.707 127.656 16.332 127.656C15.6602 127.656 15.207 127.73 14.9727 127.879C14.7461 128.027 14.6328 128.234 14.6328 128.5C14.6328 128.766 14.6953 128.973 14.8203 129.121C14.9453 129.27 15.1758 129.344 15.5117 129.344H16.9648C18.0195 129.344 18.9688 129.523 19.8125 129.883C20.6641 130.242 21.3633 130.734 21.9102 131.359C22.457 131.977 22.875 132.691 23.1641 133.504C23.4531 134.309 23.5977 135.172 23.5977 136.094C23.5977 136.844 23.4922 137.555 23.2812 138.227C23.0703 138.898 22.75 139.516 22.3203 140.078C21.8984 140.641 21.3867 141.129 20.7852 141.543C20.1914 141.949 19.4805 142.266 18.6523 142.492C17.832 142.727 16.9414 142.844 15.9805 142.844C14.4727 142.844 13.0586 142.613 11.7383 142.152C10.4258 141.699 9.33203 141.062 8.45703 140.242L9.13672 139.738C9.93359 140.457 10.9297 141.016 12.125 141.414C13.3281 141.805 14.6133 142 15.9805 142C17.0508 142 18.0156 141.848 18.875 141.543C19.7422 141.23 20.4531 140.805 21.0078 140.266C21.5703 139.727 22 139.102 22.2969 138.391C22.6016 137.68 22.7539 136.914 22.7539 136.094C22.7539 135.008 22.5352 134.027 22.0977 133.152C21.6602 132.27 20.9922 131.555 20.0938 131.008C19.2031 130.461 18.1484 130.188 16.9297 130.188ZM15.5117 131.031H16.8477C18.4336 131.031 19.6719 131.516 20.5625 132.484C21.4609 133.453 21.9102 134.656 21.9102 136.094C21.9102 137.555 21.3906 138.766 20.3516 139.727C19.3125 140.68 17.8555 141.156 15.9805 141.156C14.7305 141.156 13.5625 140.984 12.4766 140.641C11.3906 140.297 10.4883 139.812 9.76953 139.188L10.4258 138.66C11.0664 139.184 11.8711 139.59 12.8398 139.879C13.8164 140.168 14.8633 140.312 15.9805 140.312C17.6289 140.312 18.8867 139.918 19.7539 139.129C20.6289 138.34 21.0664 137.328 21.0664 136.094C21.0664 134.875 20.6992 133.867 19.9648 133.07C19.2383 132.273 18.1953 131.875 16.8359 131.875H15.5117C14.3711 131.875 13.5156 131.562 12.9453 130.938C12.375 130.312 12.0898 129.5 12.0898 128.5C12.0898 127.5 12.4414 126.688 13.1445 126.062C13.8555 125.438 14.918 125.125 16.332 125.125C17.3242 125.125 18.2461 125.242 19.0977 125.477C19.9492 125.703 20.6523 126.031 21.207 126.461L20.5391 126.977C19.5625 126.305 18.1602 125.969 16.332 125.969C15.1523 125.969 14.2891 126.203 13.7422 126.672C13.2031 127.133 12.9336 127.742 12.9336 128.5C12.9336 129.266 13.1328 129.879 13.5312 130.34C13.9375 130.801 14.5977 131.031 15.5117 131.031ZM15.5117 132.719H16.8008C17.9414 132.719 18.7969 133.035 19.3672 133.668C19.9375 134.301 20.2227 135.109 20.2227 136.094C20.2227 137.094 19.8672 137.906 19.1562 138.531C18.4531 139.156 17.3945 139.469 15.9805 139.469C14.9883 139.469 14.0625 139.355 13.2031 139.129C12.3516 138.895 11.6484 138.562 11.0938 138.133L11.7617 137.617C12.7383 138.289 14.1445 138.625 15.9805 138.625C17.1602 138.625 18.0195 138.395 18.5586 137.934C19.1055 137.465 19.3789 136.852 19.3789 136.094C19.3789 135.336 19.1758 134.727 18.7695 134.266C18.3633 133.797 17.7031 133.562 16.7891 133.562H15.5117C13.9102 133.562 12.6562 133.086 11.75 132.133C10.8516 131.172 10.4023 129.961 10.4023 128.5C10.4023 127.039 10.9219 125.832 11.9609 124.879C13 123.918 14.457 123.438 16.332 123.438C17.582 123.438 18.7461 123.609 19.8242 123.953C20.9102 124.297 21.8125 124.781 22.5312 125.406L21.875 125.934C21.2344 125.41 20.4297 125.004 19.4609 124.715C18.4922 124.426 17.4492 124.281 16.332 124.281C14.6836 124.281 13.4219 124.676 12.5469 125.465C11.6797 126.254 11.2461 127.266 11.2461 128.5C11.2461 129.727 11.6133 130.738 12.3477 131.535C13.082 132.324 14.1367 132.719 15.5117 132.719ZM15.5117 134.406H16.8008C17.4023 134.406 17.8359 134.562 18.1016 134.875C18.3672 135.188 18.5 135.594 18.5 136.094C18.5 137.219 17.6602 137.781 15.9805 137.781C14.3945 137.781 13.2031 137.547 12.4062 137.078L13.0859 136.562C13.6328 136.812 14.5977 136.938 15.9805 136.938C16.6523 136.938 17.1016 136.863 17.3281 136.715C17.5625 136.566 17.6797 136.359 17.6797 136.094C17.6797 135.836 17.6133 135.633 17.4805 135.484C17.3555 135.328 17.1211 135.25 16.7773 135.25H15.5117C14.4336 135.25 13.457 135.074 12.582 134.723C11.7148 134.371 11 133.887 10.4375 133.27C9.88281 132.652 9.45703 131.938 9.16016 131.125C8.86328 130.312 8.71484 129.438 8.71484 128.5C8.71484 127.75 8.82031 127.039 9.03125 126.367C9.24219 125.695 9.55859 125.078 9.98047 124.516C10.4102 123.953 10.9219 123.469 11.5156 123.062C12.1172 122.648 12.8281 122.328 13.6484 122.102C14.4766 121.867 15.3711 121.75 16.332 121.75C17.8398 121.75 19.25 121.98 20.5625 122.441C21.875 122.895 22.9688 123.531 23.8438 124.352L23.1641 124.855C22.3672 124.137 21.3711 123.582 20.1758 123.191C18.9805 122.793 17.6992 122.594 16.332 122.594C15.2617 122.594 14.293 122.75 13.4258 123.062C12.5664 123.367 11.8555 123.789 11.293 124.328C10.7383 124.867 10.3086 125.492 10.0039 126.203C9.70703 126.914 9.55859 127.68 9.55859 128.5C9.55859 129.602 9.78125 130.594 10.2266 131.477C10.6719 132.359 11.3516 133.07 12.2656 133.609C13.1797 134.141 14.2617 134.406 15.5117 134.406ZM22.7539 171.469V160.594H23.5977V171.469C23.5977 172.656 23.1289 173.672 22.1914 174.516C21.2539 175.359 20.1289 175.781 18.8164 175.781C17.5039 175.781 16.3789 175.359 15.4414 174.516C14.5039 173.672 14.0352 172.656 14.0352 171.469V160.594H14.8789V171.469C14.8789 172.422 15.2617 173.238 16.0273 173.918C16.8008 174.598 17.7305 174.938 18.8164 174.938C19.9023 174.938 20.8281 174.598 21.5938 173.918C22.3672 173.238 22.7539 172.422 22.7539 171.469ZM24.4414 171.469V160.594H25.2852V171.469C25.2852 172.281 25.1133 173.059 24.7695 173.801C24.4258 174.535 23.9648 175.172 23.3867 175.711C22.8086 176.25 22.1211 176.68 21.3242 177C20.5273 177.312 19.6914 177.469 18.8164 177.469C17.9414 177.469 17.1055 177.312 16.3086 177C15.5117 176.68 14.8242 176.25 14.2461 175.711C13.668 175.172 13.207 174.535 12.8633 173.801C12.5195 173.059 12.3477 172.281 12.3477 171.469V160.594H13.1914V171.469C13.1914 172.398 13.4414 173.262 13.9414 174.059C14.4492 174.848 15.1328 175.473 15.9922 175.934C16.8594 176.395 17.8008 176.625 18.8164 176.625C19.832 176.625 20.7695 176.395 21.6289 175.934C22.4961 175.473 23.1797 174.848 23.6797 174.059C24.1875 173.262 24.4414 172.398 24.4414 171.469ZM26.1289 171.469V160.594H26.9727V171.469C26.9727 172.508 26.7539 173.504 26.3164 174.457C25.8867 175.402 25.3086 176.219 24.582 176.906C23.8555 177.594 22.9883 178.141 21.9805 178.547C20.9727 178.953 19.918 179.156 18.8164 179.156C17.7148 179.156 16.6602 178.953 15.6523 178.547C14.6445 178.141 13.7773 177.594 13.0508 176.906C12.3242 176.219 11.7422 175.402 11.3047 174.457C10.875 173.504 10.6602 172.508 10.6602 171.469V160.594H11.5039V171.469C11.5039 172.703 11.832 173.848 12.4883 174.902C13.1445 175.949 14.0312 176.781 15.1484 177.398C16.2734 178.008 17.4961 178.312 18.8164 178.312C20.1367 178.312 21.3555 178.008 22.4727 177.398C23.5977 176.781 24.4883 175.949 25.1445 174.902C25.8008 173.848 26.1289 172.703 26.1289 171.469ZM27.8164 171.469V160.594H28.6602V171.469C28.6602 173.156 28.2188 174.723 27.3359 176.168C26.4531 177.605 25.2539 178.746 23.7383 179.59C22.2305 180.426 20.5898 180.844 18.8164 180.844C17.043 180.844 15.3984 180.426 13.8828 179.59C12.375 178.746 11.1797 177.605 10.2969 176.168C9.41406 174.723 8.97266 173.156 8.97266 171.469V160.594H9.81641V171.469C9.81641 172.617 10.0547 173.719 10.5312 174.773C11.0078 175.828 11.6484 176.738 12.4531 177.504C13.2578 178.262 14.2148 178.867 15.3242 179.32C16.4414 179.773 17.6055 180 18.8164 180C20.0273 180 21.1875 179.773 22.2969 179.32C23.4141 178.867 24.375 178.262 25.1797 177.504C25.9844 176.738 26.625 175.828 27.1016 174.773C27.5781 173.719 27.8164 172.617 27.8164 171.469ZM23.0586 209.922L23.9023 208.328V217H23.0586V209.922ZM24.7461 206.688L25.5898 205.094V217H24.7461V206.688ZM26.4336 203.5L27.2773 201.895V217H26.4336V203.5ZM20.7734 209.523L20.293 208.645L26.1055 197.594H27.0547L20.7734 209.523ZM19.8008 207.684L19.3086 206.793L24.1836 197.594H25.1445L19.8008 207.684ZM14.1523 208.422L14.9961 210.016V217H14.1523V208.422ZM12.4648 205.211L13.3086 206.805V217H12.4648V205.211ZM10.7773 202L11.6211 203.605V217H10.7773V202ZM17.5977 211.938H16.6484L9.93359 199.199V217H9.08984V197.594H10.0391L17.5977 211.938ZM19.5078 211.938H18.5469L11 197.594H11.9609L19.5078 211.938ZM28.1211 199.199L21.4062 211.938H20.4453L12.9102 197.594H13.8594L20.9375 211.047L28.0039 197.594H28.9648V217H28.1211V199.199ZM13.3086 255H12.4648V235.594H13.3086V255ZM11.6211 255H10.7773V235.594H11.6211V255ZM9.93359 255H9.08984V235.594H9.93359V255ZM14.9961 250.781H23.9727V251.625H14.9961V252.469H23.9727V253.312H14.9961V254.156H23.9727V255H14.1523V235.594H23.9727V236.438H14.9961V237.281H23.9727V238.125H14.9961V238.969H23.9727V239.812H14.9961V243.188H19.6016V244.031H14.9961V244.875H19.6016V245.719H14.9961V246.562H19.6016V247.406H14.9961V250.781Z" fill="#21AFD9"/>
</svg>
