<svg width="51" height="16" viewBox="0 0 51 16" fill="none" xmlns="http://www.w3.org/2000/svg">
<path d="M5.22949 7.13379L4.85156 7.73145L0.272461 0.445312H1.01953L5.22949 7.13379ZM8.34961 11.8887L8.71875 11.291L11.0566 15H10.3096L8.34961 11.8887ZM5.97656 5.95605L5.59863 6.54492L1.7666 0.445312H2.50488L5.97656 5.95605ZM9.09668 10.7021L9.46582 10.1045L12.5508 15H11.8037L9.09668 10.7021ZM6.72363 4.76074L6.35449 5.34961L3.26074 0.445312H4.00781L6.72363 4.76074ZM9.85254 9.50684L10.2217 8.90918L14.0537 15H13.3066L9.85254 9.50684ZM7.4707 3.57422L7.10156 4.17188L4.75488 0.445312H5.50195L7.4707 3.57422ZM10.5908 8.32031L10.96 7.72266L15.5479 15H14.8008L10.5908 8.32031ZM14.3613 0.445312H15.1084L5.9502 15H5.20312L14.3613 0.445312ZM12.876 0.445312H13.6143L4.45605 15H3.70898L12.876 0.445312ZM11.373 0.445312H12.1201L2.95312 15H2.20605L11.373 0.445312ZM9.87891 0.445312H10.626L1.45898 15H0.711914L9.87891 0.445312ZM20.3994 2.34375H21.0322V15H20.3994V2.34375ZM19.1338 2.34375H19.7666V15H19.1338V2.34375ZM17.8682 2.34375H18.501V15H17.8682V2.34375ZM16.6025 2.34375H17.2354V15H16.6025V2.34375ZM31.667 8.75977C31.667 8.00977 31.4355 7.42969 30.9727 7.01953C30.5098 6.60938 29.8975 6.4043 29.1357 6.4043C28.4912 6.4043 27.9375 6.62695 27.4746 7.07227C27.0117 7.51758 26.7803 8.05078 26.7803 8.67188C26.7803 9.02344 26.8271 9.33984 26.9209 9.62109C27.0146 9.89648 27.1406 10.1279 27.2988 10.3154C27.4629 10.4971 27.6562 10.6494 27.8789 10.7725C28.1016 10.8896 28.333 10.9746 28.5732 11.0273C28.8193 11.0801 29.0801 11.1064 29.3555 11.1064C30.0234 11.1064 30.6328 10.9424 31.1836 10.6143V11.2471C30.6152 11.5459 30.0029 11.6953 29.3467 11.6953C28.9248 11.6953 28.5264 11.6396 28.1514 11.5283C27.7822 11.4111 27.4453 11.2383 27.1406 11.0098C26.8359 10.7754 26.5928 10.459 26.4111 10.0605C26.2354 9.65625 26.1475 9.19336 26.1475 8.67188C26.1475 7.86328 26.4316 7.17773 27 6.61523C27.5684 6.05273 28.2803 5.77148 29.1357 5.77148C30.0791 5.77148 30.8408 6.03809 31.4209 6.57129C32.0068 7.09863 32.2998 7.82812 32.2998 8.75977V15H31.667V8.75977ZM33.5654 8.75977V15H32.9326V8.75977C32.9326 7.65234 32.5781 6.77344 31.8691 6.12305C31.1602 5.4668 30.249 5.13867 29.1357 5.13867C28.1045 5.13867 27.2432 5.48145 26.5518 6.16699C25.8604 6.85254 25.5146 7.6875 25.5146 8.67188C25.5146 9.26953 25.6172 9.80566 25.8223 10.2803C26.0332 10.7549 26.3174 11.1357 26.6748 11.4229C27.0322 11.71 27.4307 11.9297 27.8701 12.082C28.3154 12.2285 28.7842 12.3018 29.2764 12.3018C29.9443 12.3018 30.5801 12.1465 31.1836 11.8359V12.5039C30.5508 12.7676 29.9121 12.8994 29.2676 12.8994C28.6875 12.8994 28.1367 12.8115 27.6152 12.6357C27.0938 12.4541 26.6279 12.1934 26.2178 11.8535C25.8076 11.5078 25.4824 11.0625 25.2422 10.5176C25.002 9.9668 24.8818 9.35156 24.8818 8.67188C24.8818 7.51758 25.2891 6.53613 26.1035 5.72754C26.9238 4.91309 27.9346 4.50586 29.1357 4.50586C29.9795 4.50586 30.7354 4.67871 31.4033 5.02441C32.0713 5.36426 32.5986 5.85938 32.9854 6.50977C33.3721 7.16016 33.5654 7.91016 33.5654 8.75977ZM34.8311 8.75977V15H34.1982V8.75977C34.1982 7.79297 33.9756 6.9375 33.5303 6.19336C33.0908 5.44336 32.4873 4.86914 31.7197 4.4707C30.9521 4.07227 30.0908 3.87305 29.1357 3.87305C28.2275 3.87305 27.3984 4.08984 26.6484 4.52344C25.8984 4.95117 25.3096 5.53125 24.8818 6.26367C24.46 6.99609 24.249 7.79883 24.249 8.67188C24.249 9.42188 24.3867 10.1074 24.6621 10.7285C24.9375 11.3438 25.3066 11.8506 25.7695 12.249C26.2383 12.6475 26.7686 12.958 27.3604 13.1807C27.958 13.3975 28.582 13.5059 29.2324 13.5059C29.8945 13.5059 30.5449 13.3682 31.1836 13.0928V13.7344C30.5156 13.9863 29.8594 14.1123 29.2148 14.1123C28.2012 14.1123 27.2695 13.8838 26.4199 13.4268C25.5703 12.9697 24.8906 12.3223 24.3809 11.4844C23.8711 10.6465 23.6162 9.70898 23.6162 8.67188C23.6162 7.93359 23.7568 7.23047 24.0381 6.5625C24.3252 5.89453 24.7119 5.31738 25.1982 4.83105C25.6846 4.34473 26.2705 3.95801 26.9561 3.6709C27.6416 3.38379 28.3682 3.24023 29.1357 3.24023C30.208 3.24023 31.1748 3.46875 32.0361 3.92578C32.9033 4.38281 33.5859 5.0332 34.084 5.87695C34.582 6.7207 34.8311 7.68164 34.8311 8.75977ZM36.0967 8.75977V15H35.4639V8.75977C35.4639 7.56445 35.1855 6.49805 34.6289 5.56055C34.0723 4.61719 33.3135 3.89062 32.3525 3.38086C31.3916 2.86523 30.3193 2.60742 29.1357 2.60742C27.999 2.60742 26.959 2.87988 26.0156 3.4248C25.0723 3.96973 24.3311 4.70801 23.792 5.63965C23.2529 6.56543 22.9834 7.57617 22.9834 8.67188C22.9834 9.39258 23.0977 10.0781 23.3262 10.7285C23.5605 11.373 23.877 11.9385 24.2754 12.4248C24.6797 12.9053 25.1426 13.3213 25.6641 13.6729C26.1914 14.0244 26.7568 14.291 27.3604 14.4727C27.9697 14.6543 28.5879 14.7451 29.2148 14.7451C29.9062 14.7451 30.5625 14.6133 31.1836 14.3496V15C30.5332 15.2285 29.8652 15.3428 29.1797 15.3428C28.4707 15.3428 27.7793 15.2432 27.1055 15.0439C26.4375 14.8447 25.8164 14.5518 25.2422 14.165C24.6738 13.7725 24.1729 13.3125 23.7393 12.7852C23.3057 12.252 22.9658 11.6309 22.7197 10.9219C22.4736 10.2129 22.3506 9.46289 22.3506 8.67188C22.3506 7.76367 22.5205 6.89941 22.8604 6.0791C23.2061 5.25293 23.6748 4.54102 24.2666 3.94336C24.8643 3.33984 25.585 2.8623 26.4287 2.51074C27.2783 2.15332 28.1807 1.97461 29.1357 1.97461C30.1084 1.97461 31.0225 2.13867 31.8779 2.4668C32.7334 2.79492 33.4717 3.25195 34.0928 3.83789C34.7139 4.41797 35.2031 5.13281 35.5605 5.98242C35.918 6.83203 36.0967 7.75781 36.0967 8.75977ZM47.6455 9.89355L47.0127 8.74219V2.34375H47.6455V9.89355ZM48.9111 12.082L48.2783 11.0098V2.34375H48.9111V12.082ZM40.1924 7.4502L40.8252 8.60156V15H40.1924V7.4502ZM38.9268 5.17383L39.5596 6.33398V15H38.9268V5.17383ZM39.1465 2.34375H39.8848L47.2148 15H46.4766L39.1465 2.34375ZM40.6406 2.34375H41.3877L48.709 15H47.9531L40.6406 2.34375ZM42.126 2.34375H42.8643L49.5439 13.9014V2.34375H50.1768V15H49.4297L42.126 2.34375ZM38.2939 3.43359V15H37.6611V2.34375H38.417L45.7207 15H44.9912L38.2939 3.43359Z" fill="#FF795B"/>
</svg>
