<svg width="132" height="492" viewBox="0 0 132 492" fill="none" xmlns="http://www.w3.org/2000/svg">
<rect x="1" y="32" width="131" height="460" fill="#353535"/>
<rect x="12" y="24.6667" width="109" height="7.33333" fill="#353535"/>
<rect x="22" y="17.3333" width="90" height="7.33333" fill="#353535"/>
<rect x="32" y="10" width="69" height="7.33333" fill="#353535"/>
<rect x="41" y="3" width="52" height="7" fill="#353535"/>
<line x1="32" y1="9.5" x2="101" y2="9.5" stroke="#F8B300"/>
<line x1="41" y1="2.5" x2="93" y2="2.5" stroke="#F8B300"/>
<path d="M22 17H112" stroke="#F8B300"/>
<line x1="12" y1="24.5" x2="121" y2="24.5" stroke="#F8B300"/>
<path d="M0 32L132 32" stroke="#F8B300"/>
<line x1="10.8389" y1="492.001" x2="10.8389" y2="272.998" stroke="#F8B300"/>
<path d="M40.9998 9L40.9998 2.00002M31.4999 16.5L31.5 9.00001M21.4998 24L21.5 16.5M11.4994 31.5L11.4997 24M101.5 16.5L101.5 9M93.4998 9.5L93.5 2M112.5 24L112.5 16.5M121.5 31.5L121.5 24" stroke="#F8B300"/>
<line x1="20.6694" y1="492" x2="20.6694" y2="273" stroke="#F8B300"/>
<line opacity="0.9" x1="30.835" y1="492.001" x2="30.835" y2="273" stroke="#F8B300"/>
<line x1="41.5" y1="492" x2="41.5" y2="42" stroke="#F8B300"/>
<line x1="51.5" y1="492" x2="51.5" y2="42" stroke="#F8B300"/>
<line x1="61.5" y1="492" x2="61.5" y2="42" stroke="#F8B300"/>
<line x1="71.5" y1="492" x2="71.5" y2="42" stroke="#F8B300"/>
<line x1="81.5" y1="492" x2="81.5" y2="42" stroke="#F8B300"/>
<line x1="91.5" y1="492" x2="91.5" y2="42" stroke="#F8B300"/>
<line x1="101.5" y1="492" x2="101.5" y2="42" stroke="#F8B300"/>
<line x1="111.5" y1="492" x2="111.5" y2="42" stroke="#F8B300"/>
<line x1="121.5" y1="492" x2="121.5" y2="42" stroke="#F8B300"/>
<line x1="131.5" y1="491.998" x2="131.5" y2="31.998" stroke="#F8B300"/>
<line x1="0.5" y1="491.998" x2="0.5" y2="31.998" stroke="#F8B300"/>
<line x1="47" y1="53.875" x2="127" y2="53.875" stroke="#F8B300" stroke-width="0.25"/>
<line x1="47" y1="73.875" x2="127" y2="73.875" stroke="#F8B300" stroke-width="0.25"/>
<line x1="47" y1="93.875" x2="127" y2="93.875" stroke="#F8B300" stroke-width="0.25"/>
<line x1="47" y1="113.875" x2="127" y2="113.875" stroke="#F8B300" stroke-width="0.25"/>
<line x1="47" y1="133.875" x2="127" y2="133.875" stroke="#F8B300" stroke-width="0.25"/>
<line x1="47" y1="153.875" x2="127" y2="153.875" stroke="#F8B300" stroke-width="0.25"/>
<line x1="47" y1="173.875" x2="127" y2="173.875" stroke="#F8B300" stroke-width="0.25"/>
<line x1="47" y1="193.875" x2="127" y2="193.875" stroke="#F8B300" stroke-width="0.25"/>
<line x1="47" y1="213.875" x2="127" y2="213.875" stroke="#F8B300" stroke-width="0.25"/>
<line x1="47" y1="239.875" x2="127" y2="239.875" stroke="#F8B300" stroke-width="0.25"/>
<line x1="47" y1="260.875" x2="127" y2="260.875" stroke="#F8B300" stroke-width="0.25"/>
<line x1="6.66797" y1="283.875" x2="127.817" y2="283.875" stroke="#F8B300" stroke-width="0.25"/>
<line x1="6.74219" y1="306.875" x2="127.891" y2="306.875" stroke="#F8B300" stroke-width="0.25"/>
<line x1="6.81641" y1="329.875" x2="127.965" y2="329.875" stroke="#F8B300" stroke-width="0.25"/>
<line x1="6.89062" y1="352.875" x2="128.039" y2="352.875" stroke="#F8B300" stroke-width="0.25"/>
<line x1="6.96484" y1="375.875" x2="128.114" y2="375.875" stroke="#F8B300" stroke-width="0.25"/>
<line x1="7.03906" y1="398.875" x2="128.188" y2="398.875" stroke="#F8B300" stroke-width="0.25"/>
<line x1="7.11328" y1="421.875" x2="128.262" y2="421.875" stroke="#F8B300" stroke-width="0.25"/>
<line x1="7.1875" y1="444.875" x2="128.336" y2="444.875" stroke="#F8B300" stroke-width="0.25"/>
<line x1="7.26172" y1="467.875" x2="128.41" y2="467.875" stroke="#F8B300" stroke-width="0.25"/>
</svg>
