<svg width="200" height="200" viewBox="0 0 200 200" fill="none" xmlns="http://www.w3.org/2000/svg">
<path fill-rule="evenodd" clip-rule="evenodd" d="M173.679 19.8681C153.993 10.117 133.829 9.12454 113.185 16.4504C94.1874 23.1918 79.0333 35.2548 67.7677 51.6841C48.7057 79.4852 34.8596 109.82 27.1003 142.772C23.1263 159.637 20.5522 177.525 21.2441 194.942C21.3006 196.356 21.5102 196.762 21.649 200H119.009C118.73 196.762 118.546 197.708 118.304 197.091C113.183 183.967 109.129 170.109 106.324 156.296C102.295 136.462 100.185 116.26 104.347 96.2432C110.17 68.2139 126.087 47.9896 152.92 37.5019C168.119 31.5651 182.546 33.2537 195.199 44.402C195.315 44.504 195.553 44.4425 195.863 44.4927L200 38.2062C192.033 30.5921 183.278 24.6246 173.679 19.8681V19.8681ZM2.16119 148.831C1.41929 155.182 0.725771 161.128 0 167.37L17.954 169.533L21.2425 150.278C14.7025 149.781 8.49152 149.31 2.16119 148.831V148.831ZM37.4014 93.4844L20.5135 86.8515L15.0557 102.405L32.2662 107.942C34.008 103.035 35.6467 98.4191 37.4014 93.4844V93.4844ZM117.106 180.357C122.871 180.788 128.649 181.084 135.013 181.456C132.702 176.633 130.649 172.272 128.499 167.962C128.263 167.494 127.468 167.043 126.928 167.034C122.036 166.963 117.141 166.994 111.943 166.994C113.114 171.249 114.132 175.175 115.323 179.044C115.502 179.628 116.464 180.31 117.106 180.357V180.357ZM66.0242 46.3642L53.1942 37.8354C49.7557 41.6934 46.4397 45.4122 42.9382 49.3382L56.1279 58.2361L66.0242 46.3642ZM106.884 132.767C106.863 133.287 107.329 134.114 107.783 134.32C112.404 136.405 117.073 138.392 122.157 140.59C121.946 136.556 121.804 133.183 121.563 129.817C121.52 129.212 121.236 128.341 120.789 128.092C116.546 125.734 112.243 123.482 107.538 120.976C107.282 125.291 107.021 129.026 106.884 132.767V132.767ZM103.082 15.9226L94.2987 5.91573L82.2041 12.2265C85.2298 15.9275 88.0861 19.4196 91.0021 22.983L103.082 15.9226ZM108.59 95.5373C108.327 96.1428 108.674 97.4266 109.191 97.8945C112.699 101.071 116.327 104.111 120.362 107.578C121.286 103.692 122.157 100.229 122.896 96.7418C123.026 96.1217 122.844 95.0969 122.415 94.7505C119.276 92.2103 116.036 89.7916 112.678 87.2206C111.203 90.1591 109.772 92.7948 108.59 95.5373ZM128.67 10.6642C133.153 10.7856 137.642 10.7322 142.377 10.7322C141.904 7.423 141.679 4.91521 141.116 2.48836C140.948 1.7663 139.866 0.80463 139.135 0.743109C134.64 0.377221 130.128 0.23637 125.183 0C125.842 3.33994 126.346 6.28324 127.057 9.17635C127.207 9.78994 128.1 10.648 128.67 10.6642V10.6642ZM134.129 68.4211C134.358 67.9904 134.416 67.2085 134.176 66.8329C131.973 63.3731 129.684 59.9668 127.315 56.3824L119.638 63.4606L130.253 75.2694C131.679 72.7778 132.955 70.6261 134.129 68.4211V68.4211ZM142.411 44.9023L146.996 53.4521C154.172 49.505 154.859 48.0771 152.318 42.388L142.411 44.9023V44.9023ZM176.743 18.5567C179.728 20.4056 182.881 21.9808 186.085 23.7131L188.23 20.3618C184.323 17.4946 180.553 14.7213 176.274 11.5773C176.106 13.3646 175.856 14.6129 175.921 15.8465C175.972 16.7871 176.129 18.1778 176.743 18.5567V18.5567ZM172.579 45.6243C175.804 45.9756 180.643 46.3108 183.869 46.6653V42.2649C180.643 41.5558 175.804 40.8532 172.579 40.123V45.6243Z" fill="#353535"/>
</svg>
