<svg width="126" height="16" viewBox="0 0 126 16" fill="none" xmlns="http://www.w3.org/2000/svg">
<path d="M5.22949 7.13379L4.85156 7.73145L0.272461 0.445312H1.01953L5.22949 7.13379ZM8.34961 11.8887L8.71875 11.291L11.0566 15H10.3096L8.34961 11.8887ZM5.97656 5.95605L5.59863 6.54492L1.7666 0.445312H2.50488L5.97656 5.95605ZM9.09668 10.7021L9.46582 10.1045L12.5508 15H11.8037L9.09668 10.7021ZM6.72363 4.76074L6.35449 5.34961L3.26074 0.445312H4.00781L6.72363 4.76074ZM9.85254 9.50684L10.2217 8.90918L14.0537 15H13.3066L9.85254 9.50684ZM7.4707 3.57422L7.10156 4.17188L4.75488 0.445312H5.50195L7.4707 3.57422ZM10.5908 8.32031L10.96 7.72266L15.5479 15H14.8008L10.5908 8.32031ZM14.3613 0.445312H15.1084L5.9502 15H5.20312L14.3613 0.445312ZM12.876 0.445312H13.6143L4.45605 15H3.70898L12.876 0.445312ZM11.373 0.445312H12.1201L2.95312 15H2.20605L11.373 0.445312ZM9.87891 0.445312H10.626L1.45898 15H0.711914L9.87891 0.445312ZM20.3994 2.34375H21.0322V15H20.3994V2.34375ZM19.1338 2.34375H19.7666V15H19.1338V2.34375ZM17.8682 2.34375H18.501V15H17.8682V2.34375ZM16.6025 2.34375H17.2354V15H16.6025V2.34375ZM31.667 8.75977C31.667 8.00977 31.4355 7.42969 30.9727 7.01953C30.5098 6.60938 29.8975 6.4043 29.1357 6.4043C28.4912 6.4043 27.9375 6.62695 27.4746 7.07227C27.0117 7.51758 26.7803 8.05078 26.7803 8.67188C26.7803 9.02344 26.8271 9.33984 26.9209 9.62109C27.0146 9.89648 27.1406 10.1279 27.2988 10.3154C27.4629 10.4971 27.6562 10.6494 27.8789 10.7725C28.1016 10.8896 28.333 10.9746 28.5732 11.0273C28.8193 11.0801 29.0801 11.1064 29.3555 11.1064C30.0234 11.1064 30.6328 10.9424 31.1836 10.6143V11.2471C30.6152 11.5459 30.0029 11.6953 29.3467 11.6953C28.9248 11.6953 28.5264 11.6396 28.1514 11.5283C27.7822 11.4111 27.4453 11.2383 27.1406 11.0098C26.8359 10.7754 26.5928 10.459 26.4111 10.0605C26.2354 9.65625 26.1475 9.19336 26.1475 8.67188C26.1475 7.86328 26.4316 7.17773 27 6.61523C27.5684 6.05273 28.2803 5.77148 29.1357 5.77148C30.0791 5.77148 30.8408 6.03809 31.4209 6.57129C32.0068 7.09863 32.2998 7.82812 32.2998 8.75977V15H31.667V8.75977ZM33.5654 8.75977V15H32.9326V8.75977C32.9326 7.65234 32.5781 6.77344 31.8691 6.12305C31.1602 5.4668 30.249 5.13867 29.1357 5.13867C28.1045 5.13867 27.2432 5.48145 26.5518 6.16699C25.8604 6.85254 25.5146 7.6875 25.5146 8.67188C25.5146 9.26953 25.6172 9.80566 25.8223 10.2803C26.0332 10.7549 26.3174 11.1357 26.6748 11.4229C27.0322 11.71 27.4307 11.9297 27.8701 12.082C28.3154 12.2285 28.7842 12.3018 29.2764 12.3018C29.9443 12.3018 30.5801 12.1465 31.1836 11.8359V12.5039C30.5508 12.7676 29.9121 12.8994 29.2676 12.8994C28.6875 12.8994 28.1367 12.8115 27.6152 12.6357C27.0938 12.4541 26.6279 12.1934 26.2178 11.8535C25.8076 11.5078 25.4824 11.0625 25.2422 10.5176C25.002 9.9668 24.8818 9.35156 24.8818 8.67188C24.8818 7.51758 25.2891 6.53613 26.1035 5.72754C26.9238 4.91309 27.9346 4.50586 29.1357 4.50586C29.9795 4.50586 30.7354 4.67871 31.4033 5.02441C32.0713 5.36426 32.5986 5.85938 32.9854 6.50977C33.3721 7.16016 33.5654 7.91016 33.5654 8.75977ZM34.8311 8.75977V15H34.1982V8.75977C34.1982 7.79297 33.9756 6.9375 33.5303 6.19336C33.0908 5.44336 32.4873 4.86914 31.7197 4.4707C30.9521 4.07227 30.0908 3.87305 29.1357 3.87305C28.2275 3.87305 27.3984 4.08984 26.6484 4.52344C25.8984 4.95117 25.3096 5.53125 24.8818 6.26367C24.46 6.99609 24.249 7.79883 24.249 8.67188C24.249 9.42188 24.3867 10.1074 24.6621 10.7285C24.9375 11.3438 25.3066 11.8506 25.7695 12.249C26.2383 12.6475 26.7686 12.958 27.3604 13.1807C27.958 13.3975 28.582 13.5059 29.2324 13.5059C29.8945 13.5059 30.5449 13.3682 31.1836 13.0928V13.7344C30.5156 13.9863 29.8594 14.1123 29.2148 14.1123C28.2012 14.1123 27.2695 13.8838 26.4199 13.4268C25.5703 12.9697 24.8906 12.3223 24.3809 11.4844C23.8711 10.6465 23.6162 9.70898 23.6162 8.67188C23.6162 7.93359 23.7568 7.23047 24.0381 6.5625C24.3252 5.89453 24.7119 5.31738 25.1982 4.83105C25.6846 4.34473 26.2705 3.95801 26.9561 3.6709C27.6416 3.38379 28.3682 3.24023 29.1357 3.24023C30.208 3.24023 31.1748 3.46875 32.0361 3.92578C32.9033 4.38281 33.5859 5.0332 34.084 5.87695C34.582 6.7207 34.8311 7.68164 34.8311 8.75977ZM36.0967 8.75977V15H35.4639V8.75977C35.4639 7.56445 35.1855 6.49805 34.6289 5.56055C34.0723 4.61719 33.3135 3.89062 32.3525 3.38086C31.3916 2.86523 30.3193 2.60742 29.1357 2.60742C27.999 2.60742 26.959 2.87988 26.0156 3.4248C25.0723 3.96973 24.3311 4.70801 23.792 5.63965C23.2529 6.56543 22.9834 7.57617 22.9834 8.67188C22.9834 9.39258 23.0977 10.0781 23.3262 10.7285C23.5605 11.373 23.877 11.9385 24.2754 12.4248C24.6797 12.9053 25.1426 13.3213 25.6641 13.6729C26.1914 14.0244 26.7568 14.291 27.3604 14.4727C27.9697 14.6543 28.5879 14.7451 29.2148 14.7451C29.9062 14.7451 30.5625 14.6133 31.1836 14.3496V15C30.5332 15.2285 29.8652 15.3428 29.1797 15.3428C28.4707 15.3428 27.7793 15.2432 27.1055 15.0439C26.4375 14.8447 25.8164 14.5518 25.2422 14.165C24.6738 13.7725 24.1729 13.3125 23.7393 12.7852C23.3057 12.252 22.9658 11.6309 22.7197 10.9219C22.4736 10.2129 22.3506 9.46289 22.3506 8.67188C22.3506 7.76367 22.5205 6.89941 22.8604 6.0791C23.2061 5.25293 23.6748 4.54102 24.2666 3.94336C24.8643 3.33984 25.585 2.8623 26.4287 2.51074C27.2783 2.15332 28.1807 1.97461 29.1357 1.97461C30.1084 1.97461 31.0225 2.13867 31.8779 2.4668C32.7334 2.79492 33.4717 3.25195 34.0928 3.83789C34.7139 4.41797 35.2031 5.13281 35.5605 5.98242C35.918 6.83203 36.0967 7.75781 36.0967 8.75977ZM47.6455 9.89355L47.0127 8.74219V2.34375H47.6455V9.89355ZM48.9111 12.082L48.2783 11.0098V2.34375H48.9111V12.082ZM40.1924 7.4502L40.8252 8.60156V15H40.1924V7.4502ZM38.9268 5.17383L39.5596 6.33398V15H38.9268V5.17383ZM39.1465 2.34375H39.8848L47.2148 15H46.4766L39.1465 2.34375ZM40.6406 2.34375H41.3877L48.709 15H47.9531L40.6406 2.34375ZM42.126 2.34375H42.8643L49.5439 13.9014V2.34375H50.1768V15H49.4297L42.126 2.34375ZM38.2939 3.43359V15H37.6611V2.34375H38.417L45.7207 15H44.9912L38.2939 3.43359ZM57.6826 0.445312H58.3154V15H57.6826V0.445312ZM61.4795 0.445312H62.1123V11.8359H67.1748V12.4688H62.1123V13.1016H67.1748V13.7344H62.1123V14.3672H67.1748V15H61.4795V0.445312ZM60.2139 0.445312H60.8467V15H60.2139V0.445312ZM58.9482 0.445312H59.5811V15H58.9482V0.445312ZM72.3779 2.34375H73.0107V15H72.3779V2.34375ZM71.1123 2.34375H71.7451V15H71.1123V2.34375ZM69.8467 2.34375H70.4795V15H69.8467V2.34375ZM68.5811 2.34375H69.2139V15H68.5811V2.34375ZM80.5166 0.445312H81.1494V15H80.5166V0.445312ZM84.3135 0.445312H84.9463V11.8359H90.0088V12.4688H84.9463V13.1016H90.0088V13.7344H84.9463V14.3672H90.0088V15H84.3135V0.445312ZM83.0479 0.445312H83.6807V15H83.0479V0.445312ZM81.7822 0.445312H82.415V15H81.7822V0.445312ZM96.249 6.8877C95.7568 7.37988 95.5107 7.97461 95.5107 8.67188C95.5107 9.36914 95.7568 9.9668 96.249 10.4648C96.7471 10.957 97.3447 11.2031 98.042 11.2031C98.7393 11.2031 99.334 10.957 99.8262 10.4648C100.324 9.9668 100.573 9.36914 100.573 8.67188C100.573 7.97461 100.324 7.37988 99.8262 6.8877C99.334 6.38965 98.7393 6.14062 98.042 6.14062C97.3447 6.14062 96.7471 6.38965 96.249 6.8877ZM95.8008 10.9131C95.1855 10.292 94.8779 9.54492 94.8779 8.67188C94.8779 7.79883 95.1855 7.05469 95.8008 6.43945C96.4219 5.81836 97.1689 5.50781 98.042 5.50781C98.915 5.50781 99.6592 5.81836 100.274 6.43945C100.896 7.05469 101.206 7.79883 101.206 8.67188C101.206 9.54492 100.896 10.292 100.274 10.9131C99.6592 11.5283 98.915 11.8359 98.042 11.8359C97.1689 11.8359 96.4219 11.5283 95.8008 10.9131ZM95.3525 5.99121C94.6143 6.73535 94.2451 7.62891 94.2451 8.67188C94.2451 9.71484 94.6143 10.6084 95.3525 11.3525C96.0967 12.0967 96.9932 12.4688 98.042 12.4688C99.0908 12.4688 99.9844 12.0967 100.723 11.3525C101.467 10.6084 101.839 9.71484 101.839 8.67188C101.839 7.62891 101.467 6.73535 100.723 5.99121C99.9844 5.24707 99.0908 4.875 98.042 4.875C96.9932 4.875 96.0967 5.24707 95.3525 5.99121ZM94.2012 10.8955C93.8086 10.2158 93.6123 9.47461 93.6123 8.67188C93.6123 7.86914 93.8086 7.12793 94.2012 6.44824C94.5996 5.76855 95.1387 5.23242 95.8184 4.83984C96.498 4.44141 97.2393 4.24219 98.042 4.24219C98.8447 4.24219 99.5859 4.44141 100.266 4.83984C100.945 5.23242 101.481 5.76855 101.874 6.44824C102.272 7.12793 102.472 7.86914 102.472 8.67188C102.472 9.47461 102.272 10.2158 101.874 10.8955C101.481 11.5752 100.945 12.1143 100.266 12.5127C99.5859 12.9053 98.8447 13.1016 98.042 13.1016C97.2393 13.1016 96.498 12.9053 95.8184 12.5127C95.1387 12.1143 94.5996 11.5752 94.2012 10.8955ZM93.375 6.71191C93.1113 7.33301 92.9795 7.98633 92.9795 8.67188C92.9795 9.35742 93.1113 10.0137 93.375 10.6406C93.6445 11.2617 94.0049 11.8008 94.4561 12.2578C94.9131 12.709 95.4521 13.0693 96.0732 13.3389C96.7002 13.6025 97.3564 13.7344 98.042 13.7344C98.7275 13.7344 99.3809 13.6025 100.002 13.3389C100.629 13.0693 101.168 12.709 101.619 12.2578C102.076 11.8008 102.437 11.2617 102.7 10.6406C102.97 10.0137 103.104 9.35742 103.104 8.67188C103.104 7.98633 102.97 7.33301 102.7 6.71191C102.437 6.08496 102.076 5.5459 101.619 5.09473C101.168 4.6377 100.629 4.27734 100.002 4.01367C99.3809 3.74414 98.7275 3.60938 98.042 3.60938C97.3564 3.60938 96.7002 3.74414 96.0732 4.01367C95.4521 4.27734 94.9131 4.6377 94.4561 5.09473C94.0049 5.5459 93.6445 6.08496 93.375 6.71191ZM92.7949 10.8867C92.4961 10.1836 92.3467 9.44531 92.3467 8.67188C92.3467 7.89844 92.4961 7.16016 92.7949 6.45703C93.0996 5.75391 93.5039 5.15039 94.0078 4.64648C94.5176 4.13672 95.124 3.73242 95.8271 3.43359C96.5303 3.12891 97.2686 2.97656 98.042 2.97656C98.8154 2.97656 99.5537 3.12891 100.257 3.43359C100.96 3.73242 101.563 4.13672 102.067 4.64648C102.577 5.15039 102.981 5.75391 103.28 6.45703C103.585 7.16016 103.737 7.89844 103.737 8.67188C103.737 9.44531 103.585 10.1836 103.28 10.8867C102.981 11.5898 102.577 12.1963 102.067 12.7061C101.563 13.21 100.96 13.6143 100.257 13.9189C99.5537 14.2178 98.8154 14.3672 98.042 14.3672C97.2686 14.3672 96.5303 14.2178 95.8271 13.9189C95.124 13.6143 94.5176 13.21 94.0078 12.7061C93.5039 12.1963 93.0996 11.5898 92.7949 10.8867ZM92.2148 6.21973C91.8809 6.99902 91.7139 7.81641 91.7139 8.67188C91.7139 9.52734 91.8809 10.3477 92.2148 11.1328C92.5488 11.9121 92.9971 12.5859 93.5596 13.1543C94.1279 13.7168 94.8018 14.165 95.5811 14.499C96.3662 14.833 97.1865 15 98.042 15C98.8975 15 99.7148 14.833 100.494 14.499C101.279 14.165 101.953 13.7168 102.516 13.1543C103.084 12.5859 103.535 11.9121 103.869 11.1328C104.203 10.3477 104.37 9.52734 104.37 8.67188C104.37 7.81641 104.203 6.99902 103.869 6.21973C103.535 5.43457 103.084 4.76074 102.516 4.19824C101.953 3.62988 101.279 3.17871 100.494 2.84473C99.7148 2.51074 98.8975 2.34375 98.042 2.34375C97.1865 2.34375 96.3662 2.51074 95.5811 2.84473C94.8018 3.17871 94.1279 3.62988 93.5596 4.19824C92.9971 4.76074 92.5488 5.43457 92.2148 6.21973ZM91.6348 11.3789C91.2656 10.5176 91.0811 9.61523 91.0811 8.67188C91.0811 7.72852 91.2656 6.8291 91.6348 5.97363C92.0039 5.1123 92.499 4.37109 93.1201 3.75C93.7412 3.12891 94.4795 2.63379 95.335 2.26465C96.1963 1.89551 97.0986 1.71094 98.042 1.71094C98.9854 1.71094 99.8848 1.89551 100.74 2.26465C101.602 2.63379 102.343 3.12891 102.964 3.75C103.585 4.37109 104.08 5.1123 104.449 5.97363C104.818 6.8291 105.003 7.72852 105.003 8.67188C105.003 9.61523 104.818 10.5176 104.449 11.3789C104.08 12.2344 103.585 12.9727 102.964 13.5938C102.343 14.2148 101.602 14.71 100.74 15.0791C99.8848 15.4482 98.9854 15.6328 98.042 15.6328C97.0986 15.6328 96.1963 15.4482 95.335 15.0791C94.4795 14.71 93.7412 14.2148 93.1201 13.5938C92.499 12.9727 92.0039 12.2344 91.6348 11.3789ZM118.907 10.9307C119.03 10.9365 119.18 10.9395 119.355 10.9395C119.531 10.9395 119.678 10.9365 119.795 10.9307C119.918 10.9189 120.044 10.8955 120.173 10.8604C120.302 10.8193 120.404 10.7666 120.48 10.7021C120.557 10.6377 120.618 10.5469 120.665 10.4297C120.718 10.3066 120.744 10.1602 120.744 9.99023V2.34375H121.377V9.99023C121.377 11.0449 120.703 11.5723 119.355 11.5723C118.676 11.5723 118.172 11.4434 117.844 11.1855C117.797 11.4141 117.741 11.6162 117.677 11.792C118.122 12.0674 118.682 12.2051 119.355 12.2051C120.141 12.2051 120.779 12.0234 121.271 11.6602C121.764 11.291 122.01 10.7344 122.01 9.99023V2.34375H122.643V9.99023C122.643 10.9102 122.332 11.6162 121.711 12.1084C121.096 12.5947 120.311 12.8379 119.355 12.8379C118.611 12.8379 117.973 12.6855 117.439 12.3809C117.352 12.5684 117.249 12.7471 117.132 12.917C117.771 13.2861 118.512 13.4707 119.355 13.4707C119.9 13.4707 120.407 13.3945 120.876 13.2422C121.351 13.0898 121.767 12.8701 122.124 12.583C122.481 12.2959 122.763 11.9297 122.968 11.4844C123.173 11.0391 123.275 10.541 123.275 9.99023V2.34375H123.908V9.99023C123.908 10.834 123.7 11.5723 123.284 12.2051C122.874 12.8379 122.326 13.3125 121.641 13.6289C120.961 13.9453 120.199 14.1035 119.355 14.1035C118.371 14.1035 117.504 13.8779 116.754 13.4268C116.59 13.6143 116.44 13.7666 116.306 13.8838C117.179 14.4521 118.195 14.7363 119.355 14.7363C120.311 14.7363 121.178 14.5488 121.957 14.1738C122.736 13.7988 123.36 13.248 123.829 12.5215C124.304 11.7891 124.541 10.9453 124.541 9.99023V2.34375H125.174V9.99023C125.174 10.7988 125.019 11.543 124.708 12.2227C124.403 12.9023 123.987 13.4707 123.46 13.9277C122.938 14.3848 122.323 14.7393 121.614 14.9912C120.905 15.2432 120.152 15.3691 119.355 15.3691C117.961 15.3691 116.769 15.0117 115.778 14.2969C114.753 15.0117 113.543 15.3691 112.148 15.3691C111.352 15.3691 110.599 15.2432 109.89 14.9912C109.181 14.7393 108.562 14.3848 108.035 13.9277C107.514 13.4707 107.098 12.9023 106.787 12.2227C106.482 11.543 106.33 10.7988 106.33 9.99023V2.34375H106.963V9.99023C106.963 10.7109 107.098 11.373 107.367 11.9766C107.643 12.5801 108.015 13.0811 108.483 13.4795C108.952 13.8779 109.5 14.1885 110.127 14.4111C110.76 14.6279 111.434 14.7363 112.148 14.7363C113.08 14.7363 113.944 14.5254 114.741 14.1035C115.538 13.6758 116.168 13.0986 116.631 12.3721C117.1 11.6396 117.334 10.8457 117.334 9.99023V2.34375H117.967V9.99023C117.967 10.1602 117.99 10.3066 118.037 10.4297C118.09 10.5469 118.154 10.6377 118.23 10.7021C118.307 10.7666 118.409 10.8193 118.538 10.8604C118.667 10.8955 118.79 10.9189 118.907 10.9307ZM114.17 2.34375V9.99023C114.17 11.0449 113.496 11.5723 112.148 11.5723C110.801 11.5723 110.127 11.0449 110.127 9.99023V2.34375H110.76V9.99023C110.76 10.1602 110.783 10.3066 110.83 10.4297C110.883 10.5469 110.947 10.6377 111.023 10.7021C111.1 10.7666 111.202 10.8193 111.331 10.8604C111.46 10.8955 111.583 10.9189 111.7 10.9307C111.823 10.9365 111.973 10.9395 112.148 10.9395C112.324 10.9395 112.471 10.9365 112.588 10.9307C112.711 10.9189 112.837 10.8955 112.966 10.8604C113.095 10.8193 113.197 10.7666 113.273 10.7021C113.35 10.6377 113.411 10.5469 113.458 10.4297C113.511 10.3066 113.537 10.1602 113.537 9.99023V2.34375H114.17ZM115.436 2.34375V9.99023C115.436 10.9102 115.125 11.6162 114.504 12.1084C113.889 12.5947 113.104 12.8379 112.148 12.8379C111.193 12.8379 110.405 12.5947 109.784 12.1084C109.169 11.6162 108.861 10.9102 108.861 9.99023V2.34375H109.494V9.99023C109.494 10.7344 109.74 11.291 110.232 11.6602C110.725 12.0234 111.363 12.2051 112.148 12.2051C112.934 12.2051 113.572 12.0234 114.064 11.6602C114.557 11.291 114.803 10.7344 114.803 9.99023V2.34375H115.436ZM116.701 2.34375V9.99023C116.701 10.834 116.493 11.5723 116.077 12.2051C115.667 12.8379 115.119 13.3125 114.434 13.6289C113.754 13.9453 112.992 14.1035 112.148 14.1035C111.305 14.1035 110.54 13.9453 109.854 13.6289C109.175 13.3125 108.627 12.8379 108.211 12.2051C107.801 11.5723 107.596 10.834 107.596 9.99023V2.34375H108.229V9.99023C108.229 10.541 108.331 11.0391 108.536 11.4844C108.741 11.9297 109.022 12.2959 109.38 12.583C109.737 12.8701 110.15 13.0898 110.619 13.2422C111.094 13.3945 111.604 13.4707 112.148 13.4707C112.693 13.4707 113.2 13.3945 113.669 13.2422C114.144 13.0898 114.56 12.8701 114.917 12.583C115.274 12.2959 115.556 11.9297 115.761 11.4844C115.966 11.0391 116.068 10.541 116.068 9.99023V2.34375H116.701Z" fill="#FF795B"/>
</svg>
